<svg width="28" height="22" viewBox="0 0 28 22" fill="none" xmlns="http://www.w3.org/2000/svg">
<path d="M13.8051 4.86585L11.9561 4.99098C10.7605 3.57293 7.41 0 4.07341 0C4.07341 0 1.33463 4.11512 4.0178 9.60659C3.25317 10.7605 2.78049 11.3583 2.68317 12.7346L0 13.1378L0.291951 14.5002L2.73878 14.1388L2.93341 15.1259L0.750732 16.4327L1.40415 17.67L3.42 16.4327C5.01878 19.8249 9.06439 21.5488 13.8051 21.5488C18.5459 21.5488 22.5915 19.8249 24.1902 16.4327L26.2061 17.67L26.8595 16.4327L24.6768 15.1259L24.8715 14.1388L27.3183 14.5002L27.6102 13.1378L24.9271 12.7346C24.8298 11.3583 24.3571 10.7605 23.5924 9.60659C26.2756 4.11512 23.5368 0 23.5368 0C20.2002 0 16.8498 3.57293 15.6541 4.99098L13.8051 4.86585ZM9.63439 9.03659C10.0031 9.03659 10.3567 9.18306 10.6174 9.44378C10.8782 9.7045 11.0246 10.0581 11.0246 10.4268C11.0246 10.7955 10.8782 11.1492 10.6174 11.4099C10.3567 11.6706 10.0031 11.8171 9.63439 11.8171C9.26567 11.8171 8.91206 11.6706 8.65134 11.4099C8.39062 11.1492 8.24415 10.7955 8.24415 10.4268C8.24415 10.0581 8.39062 9.7045 8.65134 9.44378C8.91206 9.18306 9.26567 9.03659 9.63439 9.03659M17.9759 9.03659C18.3446 9.03659 18.6982 9.18306 18.9589 9.44378C19.2196 9.7045 19.3661 10.0581 19.3661 10.4268C19.3661 10.7955 19.2196 11.1492 18.9589 11.4099C18.6982 11.6706 18.3446 11.8171 17.9759 11.8171C17.6071 11.8171 17.2535 11.6706 16.9928 11.4099C16.7321 11.1492 16.5856 10.7955 16.5856 10.4268C16.5856 10.0581 16.7321 9.7045 16.9928 9.44378C17.2535 9.18306 17.6071 9.03659 17.9759 9.03659M12.4149 13.2073H15.1954L14.2222 15.1398C14.5002 16.0295 15.2788 16.6829 16.238 16.6829C16.7911 16.6829 17.3215 16.4632 17.7126 16.0721C18.1037 15.6811 18.3234 15.1506 18.3234 14.5976H19.0185C19.0185 15.335 18.7256 16.0422 18.2042 16.5637C17.6827 17.0851 16.9755 17.378 16.238 17.378C15.1954 17.378 14.2917 16.808 13.8051 15.9878C13.3185 16.808 12.4149 17.378 11.3722 17.378C10.6348 17.378 9.92754 17.0851 9.40609 16.5637C8.88465 16.0422 8.59171 15.335 8.59171 14.5976H9.28683C9.28683 15.1506 9.50654 15.6811 9.89762 16.0721C10.2887 16.4632 10.8191 16.6829 11.3722 16.6829C12.3315 16.6829 13.11 16.0295 13.388 15.1398L12.4149 13.2073Z" fill="black" fill-opacity="0.58"/>
</svg>
