<svg width="334" height="355" viewBox="0 0 334 355" fill="none" xmlns="http://www.w3.org/2000/svg">
<path fill-rule="evenodd" clip-rule="evenodd" d="M303.491 272.014L302.6 270.853C302.008 271.307 301.319 271.655 300.549 271.862L296.93 272.831L297.309 274.246L300.928 273.276C301.887 273.019 302.75 272.583 303.491 272.014ZM101.881 326.61L101.502 325.196L97.883 326.166C97.1133 326.372 96.3419 326.415 95.6029 326.317L95.4112 327.769C96.3377 327.891 97.3031 327.837 98.2619 327.58L101.881 326.61ZM28.2195 94.4648L29.6338 94.0859L28.6644 90.4678C28.4581 89.6981 28.4153 88.9267 28.5129 88.1877L27.0613 87.996C26.9389 88.9225 26.9931 89.8879 27.25 90.8468L28.2195 94.4648ZM231.474 28.5457L235.093 27.576C236.052 27.3191 237.017 27.2649 237.944 27.3873L237.752 28.8389C237.013 28.7413 236.242 28.7841 235.472 28.9903L231.853 29.96L231.474 28.5457ZM305.136 260.691L303.721 261.07L304.691 264.688C304.897 265.458 304.94 266.229 304.842 266.968L306.294 267.16C306.416 266.234 306.362 265.268 306.105 264.309L305.136 260.691ZM303.197 253.455L301.782 253.834L299.843 246.598L301.258 246.219L303.197 253.455ZM299.319 238.983L297.904 239.362L295.966 232.126L297.38 231.747L299.319 238.983ZM295.441 224.511L294.027 224.89L292.088 217.653L293.502 217.274L295.441 224.511ZM291.563 210.038L290.149 210.417L288.21 203.181L289.624 202.802L291.563 210.038ZM287.685 195.566L286.271 195.945L284.332 188.709L285.746 188.33L287.685 195.566ZM283.807 181.094L282.393 181.473L280.454 174.237L281.869 173.858L283.807 181.094ZM279.93 166.621L278.515 167L276.576 159.764L277.991 159.385L279.93 166.621ZM276.052 152.149L274.637 152.528L272.699 145.292L274.113 144.913L276.052 152.149ZM272.174 137.677L270.76 138.056L268.821 130.82L270.235 130.441L272.174 137.677ZM268.296 123.205L266.882 123.584L264.943 116.347L266.357 115.968L268.296 123.205ZM264.418 108.732L263.004 109.111L261.065 101.875L262.479 101.496L264.418 108.732ZM260.54 94.26L259.126 94.639L257.187 87.4029L258.602 87.0239L260.54 94.26ZM256.663 79.7878L255.248 80.1667L253.309 72.9306L254.724 72.5516L256.663 79.7878ZM252.785 65.3155L251.37 65.6944L249.432 58.4583L250.846 58.0793L252.785 65.3155ZM248.907 50.8432L247.493 51.2222L245.554 43.986L246.968 43.6071L248.907 50.8432ZM245.029 36.3709L243.615 36.7499L242.645 33.1318C242.439 32.3621 242.09 31.6726 241.636 31.0815L242.798 30.1896C243.367 30.9308 243.803 31.7939 244.06 32.7528L245.029 36.3709ZM224.236 30.4852L224.615 31.8995L217.377 33.8389L216.998 32.4246L224.236 30.4852ZM209.76 34.364L210.139 35.7784L202.901 37.7178L202.522 36.3035L209.76 34.364ZM195.284 38.2429L195.663 39.6572L188.425 41.5967L188.046 40.1823L195.284 38.2429ZM180.808 42.1218L181.186 43.5361L173.948 45.4756L173.569 44.0612L180.808 42.1218ZM166.331 46.0007L166.71 47.415L159.472 49.3544L159.093 47.9401L166.331 46.0007ZM151.855 49.8795L152.234 51.2939L144.996 53.2333L144.617 51.819L151.855 49.8795ZM137.379 53.7584L137.758 55.1727L130.52 57.1122L130.141 55.6979L137.379 53.7584ZM122.903 57.6373L123.282 59.0516L116.044 60.9911L115.665 59.5767L122.903 57.6373ZM108.427 61.5162L108.806 62.9305L101.568 64.8699L101.189 63.4556L108.427 61.5162ZM93.9505 65.3951L94.3295 66.8094L87.0914 68.7488L86.7124 67.3345L93.9505 65.3951ZM79.4744 69.2739L79.8533 70.6883L72.6152 72.6277L72.2363 71.2134L79.4744 69.2739ZM64.9982 73.1528L65.3771 74.5671L58.1391 76.5066L57.7601 75.0922L64.9982 73.1528ZM50.522 77.0317L50.901 78.446L43.6629 80.3855L43.2839 78.9711L50.522 77.0317ZM36.0459 80.9106L36.4248 82.3249L32.8058 83.2946C32.0361 83.5008 31.3467 83.8495 30.7555 84.3035L29.8637 83.1422C30.6048 82.573 31.468 82.1372 32.4268 81.8803L36.0459 80.9106ZM30.1584 101.701L31.5728 101.322L33.5117 108.558L32.0973 108.937L30.1584 101.701ZM34.0362 116.173L35.4506 115.794L37.3895 123.03L35.9752 123.409L34.0362 116.173ZM37.9141 130.646L39.3284 130.267L41.2673 137.503L39.853 137.882L37.9141 130.646ZM41.7919 145.118L43.2063 144.739L45.1452 151.975L43.7308 152.354L41.7919 145.118ZM45.6698 159.59L47.0841 159.211L49.023 166.447L47.6087 166.826L45.6698 159.59ZM49.5476 174.062L50.9619 173.683L52.9009 180.92L51.4865 181.299L49.5476 174.062ZM53.4254 188.535L54.8398 188.156L56.7787 195.392L55.3644 195.771L53.4254 188.535ZM57.3033 203.007L58.7176 202.628L60.6565 209.864L59.2422 210.243L57.3033 203.007ZM61.1811 217.479L62.5955 217.1L64.5344 224.336L63.12 224.715L61.1811 217.479ZM65.0589 231.952L66.4733 231.573L68.4122 238.809L66.9979 239.188L65.0589 231.952ZM68.9368 246.424L70.3511 246.045L72.29 253.281L70.8757 253.66L68.9368 246.424ZM72.8146 260.896L74.229 260.517L76.1679 267.753L74.7535 268.132L72.8146 260.896ZM76.6925 275.368L78.1068 274.989L80.0457 282.226L78.6314 282.605L76.6925 275.368ZM80.5703 289.841L81.9846 289.462L83.9236 296.698L82.5092 297.077L80.5703 289.841ZM84.4481 304.313L85.8625 303.934L87.8014 311.17L86.387 311.549L84.4481 304.313ZM88.326 318.785L89.7403 318.406L90.7098 322.024C90.916 322.794 91.2646 323.483 91.7187 324.075L90.5574 324.967C89.9882 324.225 89.5524 323.362 89.2954 322.403L88.326 318.785ZM109.119 324.671L108.74 323.257L115.978 321.317L116.357 322.732L109.119 324.671ZM123.595 320.792L123.216 319.378L130.454 317.438L130.833 318.853L123.595 320.792ZM138.071 316.913L137.692 315.499L144.931 313.559L145.309 314.974L138.071 316.913ZM152.548 313.034L152.169 311.62L159.407 309.681L159.786 311.095L152.548 313.034ZM167.024 309.155L166.645 307.741L173.883 305.802L174.262 307.216L167.024 309.155ZM181.5 305.277L181.121 303.862L188.359 301.923L188.738 303.337L181.5 305.277ZM195.976 301.398L195.597 299.983L202.835 298.044L203.214 299.458L195.976 301.398ZM210.452 297.519L210.073 296.105L217.311 294.165L217.69 295.579L210.452 297.519ZM224.928 293.64L224.549 292.226L231.788 290.286L232.166 291.701L224.928 293.64ZM239.405 289.761L239.026 288.347L246.264 286.407L246.643 287.822L239.405 289.761ZM253.881 285.882L253.502 284.468L260.74 282.528L261.119 283.943L253.881 285.882ZM268.357 282.003L267.978 280.589L275.216 278.65L275.595 280.064L268.357 282.003ZM282.833 278.124L282.454 276.71L289.692 274.771L290.071 276.185L282.833 278.124Z" fill="#595959"/>
<g filter="url(#filter0_d_2027_2406)">
<path fill-rule="evenodd" clip-rule="evenodd" d="M96.7462 33.2333L299.412 87.5376C300.194 87.7469 300.657 88.5498 300.448 89.3309L238.402 320.887C238.193 321.669 237.39 322.132 236.609 321.923L33.9428 267.619C33.1617 267.409 32.6982 266.606 32.9075 265.825L94.9529 34.2687C95.1622 33.4876 95.965 33.024 96.7462 33.2333ZM300.928 81.8803C304.834 82.9268 307.152 86.9412 306.105 90.8468L244.06 322.403C243.013 326.309 238.999 328.627 235.093 327.58L32.4269 273.276C28.5214 272.229 26.2036 268.215 27.2501 264.309L89.2955 32.7528C90.342 28.8473 94.3565 26.5295 98.2621 27.576L300.928 81.8803Z" fill="white"/>
<path d="M300.799 82.3632L98.1326 28.059C94.4938 27.084 90.7533 29.2435 89.7783 32.8824L27.733 264.439C26.7579 268.077 28.9175 271.818 32.5564 272.793L235.222 327.097C238.861 328.072 242.602 325.913 243.577 322.274L305.622 90.7176C306.567 87.1926 304.57 83.5721 301.136 82.4627L300.799 82.3632ZM299.542 87.0542C300.59 87.335 301.212 88.4128 300.931 89.4606L238.886 321.017C238.605 322.065 237.527 322.687 236.479 322.406L33.8133 268.102C32.7654 267.821 32.1441 266.744 32.4249 265.696L94.4702 34.1395C94.751 33.0917 95.8278 32.4692 96.8757 32.7499L299.542 87.0542Z" stroke="black"/>
</g>
<rect x="235.748" y="321.531" width="213.366" height="242.602" transform="rotate(-165 235.748 321.531)" fill="#D7F4DD"/>
<path d="M237.5 253.894C276.436 214.958 276.436 151.83 237.5 112.894C198.564 73.9579 135.436 73.9579 96.4998 112.894C57.5637 151.83 57.5637 214.958 96.4998 253.894C135.436 292.83 198.564 292.83 237.5 253.894Z" fill="#EAE5DF"/>
<path d="M103.098 243.934L112.597 281.751" stroke="black" stroke-width="0.885218" stroke-miterlimit="10"/>
<path d="M148.245 169.691L117.731 174.321C117.731 174.321 114.695 175.436 102.682 174.808C90.67 174.179 80.6228 180.774 77.0819 191.052C75.7541 194.885 73.1604 201.453 70.4517 208.331C73.7614 221.13 79.5907 233.141 87.5983 243.66C90.8676 244.006 94.1548 244.154 97.4419 244.103C97.4419 244.103 99.2124 250.706 101.204 258.266C118.99 273.938 141.795 282.73 165.497 283.052C173.293 280.514 180.836 277.254 188.026 273.315L184.485 234.117C184.485 234.117 194.515 231.125 203.367 221.087C205.306 218.901 183.892 182.306 177.696 174.808C171.499 167.31 148.245 169.691 148.245 169.691Z" fill="#7E7B44"/>
<path d="M161.608 231.091C168.666 221.203 166.372 207.465 156.484 200.407C146.596 193.348 132.858 195.642 125.799 205.531C118.741 215.419 121.035 229.157 130.923 236.215C140.811 243.274 154.549 240.98 161.608 231.091Z" fill="#EFD79A"/>
<path d="M137.003 209.721L138.304 217.537" stroke="#7E7B44" stroke-width="0.885218" stroke-linecap="round" stroke-linejoin="round"/>
<path d="M147.244 208.003L148.555 215.829" stroke="#7E7B44" stroke-width="0.885218" stroke-linecap="round" stroke-linejoin="round"/>
<path d="M157.239 214.386C157.761 218.008 156.843 221.691 154.684 224.645C152.524 227.6 149.294 229.591 145.684 230.194C142.075 230.797 138.373 229.963 135.37 227.87C132.368 225.778 130.304 222.593 129.62 218.998" stroke="#7E7B44" stroke-width="0.885218" stroke-linecap="round" stroke-linejoin="round"/>
<path d="M114.253 174.852C114.253 174.852 128.354 188.945 141.305 185.519C152.476 182.571 150.246 169.532 150.246 169.532" stroke="#514D27" stroke-width="0.663913" stroke-linecap="round" stroke-linejoin="round"/>
<path d="M111.154 148.393C111.154 148.393 116.899 156.616 117.731 174.321C117.731 174.321 130.213 184.058 138.977 182.73C147.74 181.403 148.209 169.673 148.209 169.673C143.96 163.598 141.331 156.538 140.57 149.163L111.154 148.393Z" fill="#FFB48C"/>
<path d="M133.17 159.511C137.454 158.838 140.119 157.307 141.783 155.66C141.222 153.534 140.829 151.368 140.605 149.181L111.154 148.393C112.204 150.065 113.071 151.846 113.739 153.704C118.626 156.794 126.265 160.591 133.17 159.511Z" fill="#EF8D6F"/>
<path d="M91.3963 135.504C91.3963 135.504 78.4545 107.239 75.8519 101.175C73.2494 95.1116 81.8803 91.3494 81.8803 91.3494C81.8803 91.3494 79.1361 83.3824 89.3603 73.4237C99.5846 63.465 120.166 68.1124 128.354 59.4816C128.354 59.4816 127.69 66.5633 124.592 70.5468C124.592 70.5468 140.969 61.4733 157.345 73.645C157.345 73.645 157.345 84.2677 153.14 92.0133C153.14 92.0133 157.345 88.6937 159.558 79.6203C159.558 79.6203 165.755 102.114 150.706 112.223L91.3963 135.504Z" fill="#D86224"/>
<path d="M121.095 70.5469C121.095 70.5469 135.657 57.7112 157.566 70.5469" stroke="#D86224" stroke-width="0.442609" stroke-linecap="round" stroke-linejoin="round"/>
<path d="M157.345 73.645C157.345 73.645 151.591 82.4972 135.214 82.9398" stroke="#FF8326" stroke-width="0.442609" stroke-linecap="round" stroke-linejoin="round"/>
<path d="M130.143 78.2925C136.953 80.2611 144.149 80.4864 151.069 78.9475" stroke="#FF8326" stroke-width="0.442609" stroke-linecap="round" stroke-linejoin="round"/>
<path d="M114.739 77.8322C135.781 72.096 146.466 83.7986 151.919 102.919C157.371 122.04 157.283 143.878 141.995 148.756C126.708 153.633 104.993 152.819 95.6984 133.318C86.4036 113.816 83.385 86.3657 114.739 77.8322Z" fill="#FFB48C"/>
<path d="M141.446 97.1297C138.173 96.6497 135.003 95.6201 132.072 94.0846C134.728 90.5614 141.446 92.6859 141.446 97.1297Z" fill="#D86224"/>
<path d="M121.095 95.6604C119.599 97.2184 118.005 98.7232 116.669 100.405C115.093 101.883 114.119 103.946 112.623 105.513C112.154 104.32 112.014 103.023 112.22 101.758C112.426 100.493 112.969 99.3072 113.792 98.3249C115.367 96.3154 118.51 94.6512 121.095 95.6604Z" fill="#D86224"/>
<path d="M139.871 133.734C139.871 133.734 129.567 138.912 121.449 131.565" stroke="#EF8D6F" stroke-width="0.663913" stroke-linecap="round" stroke-linejoin="round"/>
<path d="M137.303 110.585C137.666 112.099 138.728 113.143 139.667 112.913C140.605 112.683 141.074 111.285 140.711 109.771C140.348 108.257 139.295 107.213 138.348 107.443C137.4 107.673 136.94 109.116 137.303 110.585Z" fill="#3A130E"/>
<path d="M117.855 115.401C118.218 116.914 119.28 117.95 120.219 117.729C121.157 117.508 121.626 116.091 121.263 114.578C120.9 113.064 119.847 112.028 118.9 112.249C117.952 112.471 117.492 113.887 117.855 115.401Z" fill="#3A130E"/>
<path d="M110.46 136.264C116.747 135.312 121.209 130.353 120.427 125.188C119.644 120.024 113.913 116.61 107.626 117.563C101.339 118.515 96.8765 123.474 97.659 128.638C98.4414 133.802 104.173 137.217 110.46 136.264Z" fill="#F27F52"/>
<path d="M151.379 107.434C151.93 107.352 152.486 107.305 153.043 107.292C154.535 113.374 155.248 119.62 155.167 125.882C154.831 125.953 154.495 126.023 154.149 126.068C147.873 127.006 142.155 123.571 141.393 118.419C140.632 113.267 145.102 108.363 151.379 107.434Z" fill="#F27F52"/>
<path d="M130.143 101.175C130.143 101.175 130.39 110.311 135.454 117.941C135.454 117.941 143.562 116.1 144.412 117.561C145.262 119.021 139.986 128.183 139.986 128.183" fill="#FFB48C"/>
<path d="M130.143 101.175C130.143 101.175 130.39 110.311 135.454 117.941C135.454 117.941 143.562 116.1 144.412 117.561C145.262 119.021 139.986 128.183 139.986 128.183" stroke="#EF8D6F" stroke-width="0.663913" stroke-linecap="round" stroke-linejoin="round"/>
<path d="M98.9207 95.4568C110.871 95.6604 125.035 81.3907 124.592 70.5468C127.69 66.5633 128.354 59.4816 128.354 59.4816C120.166 68.1124 99.5758 63.465 89.4046 73.4237C79.2335 83.3824 81.8803 91.3494 81.8803 91.3494C81.8803 91.3494 73.2494 95.1116 75.8519 101.175C77.5338 105.088 83.5268 118.26 87.5633 127.103C107.463 119.597 98.9207 95.4568 98.9207 95.4568Z" fill="#FF8326"/>
<path d="M81.6145 87.3482C81.6145 87.3482 85.5714 77.3364 100.204 76.3803C114.837 75.4243 120.157 74.0876 124.583 70.5468" stroke="#D86224" stroke-width="0.442609" stroke-linecap="round" stroke-linejoin="round"/>
<path d="M128.354 59.4816C125.745 63.8028 122.243 67.5173 118.083 70.3766C113.923 73.2359 109.201 75.1741 104.232 76.0617" stroke="#D86224" stroke-width="0.442609" stroke-linecap="round" stroke-linejoin="round"/>
<path d="M75.6833 97.1299C75.6833 97.1299 82.2782 110.045 100.558 110.213" stroke="#D86224" stroke-width="0.442609" stroke-linecap="round" stroke-linejoin="round"/>
<path d="M100.205 140.39L92.2375 124.864C92.2375 124.864 85.085 115.126 77.3836 121.048C70.6028 126.298 87.4751 149.375 100.205 140.39Z" fill="#FFB48C"/>
<path d="M91.9276 124.43C92.1489 124.696 92.2728 124.864 92.2728 124.864L100.24 140.391C92.2728 146.012 82.6771 139.081 78.2864 131.813C81.181 125.422 87.2713 124.253 91.9276 124.43Z" fill="#EF8D6F"/>
<path d="M162.072 169.532C162.072 169.532 179.165 198.744 184.477 234.153C184.477 234.153 194.506 231.161 203.358 221.122C205.297 218.936 183.884 182.341 177.687 174.843C174.81 171.338 168.259 169.983 162.072 169.532Z" fill="#969269"/>
<path d="M183.778 229.913C183.778 229.913 192.993 226.664 202.606 217.52" stroke="#514D27" stroke-width="0.663913" stroke-linecap="round" stroke-linejoin="round"/>
<path d="M176.695 95.5719L194.559 123.102L161.514 137.868L152.927 124.678L176.695 95.5719Z" fill="#371315"/>
<path d="M226.551 95.5719L208.679 123.102L241.724 137.868L250.31 124.678L226.551 95.5719Z" fill="#371315"/>
<path d="M256.126 228.098C249.522 197.31 239.227 177.039 239.227 177.039C239.227 177.039 246.955 171.798 248.734 167.558C250.514 163.318 245.733 139.107 239.227 131.627C232.721 124.147 214.671 122.854 201.623 122.854C188.575 122.854 170.516 124.147 164.01 131.627C157.504 139.107 152.724 163.318 154.512 167.558C156.3 171.798 164.01 177.039 164.01 177.039C164.01 177.039 141.136 222.061 141.729 279.857C163.841 285.623 187.262 283.63 208.082 274.21C228.902 264.79 245.86 248.514 256.126 228.098Z" fill="#D0915E"/>
<path d="M221.479 160.228C233.412 166.425 243.007 164.353 248.983 161.476C248.142 152.562 244.202 137.292 239.245 131.627C233.642 125.182 219.478 123.332 207.315 122.943C206.174 131.698 205.545 151.907 221.479 160.228Z" fill="#AD7041"/>
<path d="M141.73 279.343C141.73 279.75 141.615 279.83 142.057 279.936C142.367 280.025 142.686 280.104 142.996 280.175C143.633 280.335 144.261 280.485 144.899 280.627C146.286 280.945 147.675 281.24 149.068 281.512C151.777 282.008 154.512 282.397 157.256 282.654C162.888 283.204 168.556 283.272 174.2 282.857C175.554 282.76 176.908 282.636 178.263 282.477C178.785 282.424 179.759 282.477 180.104 282.078C180.449 281.68 180.874 281.131 181.255 280.653C182.633 278.871 183.904 277.009 185.061 275.076C187.495 271.03 189.37 266.674 190.638 262.126C193.404 252.357 192.574 241.92 188.301 232.71C184.869 225.422 179.627 219.135 173.075 214.448C168.226 210.998 162.843 208.366 157.141 206.658C156.159 206.357 155.176 206.083 154.176 205.844L152.999 205.569C152.583 206.915 152.166 208.269 151.777 209.632C150.189 215.026 148.785 220.47 147.563 225.964C143.582 243.488 141.613 261.409 141.694 279.379L141.73 279.343Z" fill="#AD7041"/>
<path d="M256.003 227.708C253.129 214.303 249.165 201.155 244.15 188.396C239.723 192.114 237.422 197.646 236.749 203.276C235.687 212.182 237.803 222.22 243.061 229.576C244.82 232.058 246.997 234.215 249.496 235.95C249.78 236.144 250.072 236.33 250.381 236.516C250.691 236.702 250.983 237.092 251.267 236.649C251.869 235.702 252.453 234.737 253.037 233.763C253.621 232.789 254.161 231.807 254.701 230.815C255.117 230.001 256.233 228.62 256.003 227.708Z" fill="#AD7041"/>
<path d="M152.928 124.678C151.741 121.721 173.42 94.8194 176.696 95.5719C179.971 96.3243 185.486 130.75 183.149 134.123C180.812 137.496 156.468 133.548 152.928 124.678Z" fill="#AD7041"/>
<path d="M250.31 124.678C251.497 121.721 229.826 94.8194 226.551 95.5719C223.276 96.3243 217.752 130.75 220.089 134.123C222.426 137.496 246.77 133.548 250.31 124.678Z" fill="#D0915E"/>
<g style="mix-blend-mode:multiply">
<path d="M185.45 221.299C185.45 221.299 180.679 240.217 190.974 250.237C190.974 250.237 188.965 243.687 190.974 239.526C190.974 239.526 190.974 252.016 209.015 255.194C209.015 255.194 211.892 247.564 211.538 240.34C211.538 240.34 213.645 245.652 213.255 249.193C213.255 249.193 220.656 246.192 221.435 234.41" stroke="#EDC8B9" stroke-width="0.663913" stroke-linejoin="round"/>
</g>
<path d="M179.697 155.643C181.633 155.643 183.202 153.736 183.202 151.385C183.202 149.033 181.633 147.127 179.697 147.127C177.761 147.127 176.191 149.033 176.191 151.385C176.191 153.736 177.761 155.643 179.697 155.643Z" fill="#3A130E"/>
<path d="M179.697 155.643C181.635 155.643 183.237 153.731 183.237 151.385C183.238 150.7 183.1 150.023 182.83 149.393L176.412 152.775C176.577 153.543 176.985 154.238 177.577 154.755C178.169 155.272 178.913 155.584 179.697 155.643Z" fill="#231012"/>
<path d="M179.095 150.951C179.095 151.836 178.758 152.518 178.342 152.518C177.926 152.518 177.59 151.819 177.59 150.951C177.59 150.084 177.926 149.393 178.342 149.393C178.758 149.393 179.095 150.093 179.095 150.951Z" fill="#EFF6FE"/>
<path d="M227.056 151.385C227.056 153.731 225.48 155.643 223.515 155.643C221.55 155.643 219.974 153.731 219.974 151.385C219.974 149.039 221.541 147.127 223.515 147.127C225.489 147.127 227.056 149.03 227.056 151.385Z" fill="#3A130E"/>
<path d="M223.542 155.643C225.48 155.643 227.083 153.731 227.083 151.385C227.084 150.7 226.945 150.023 226.675 149.393L220.258 152.775C220.422 153.543 220.83 154.238 221.422 154.755C222.014 155.272 222.758 155.584 223.542 155.643Z" fill="#231012"/>
<path d="M222.94 150.951C222.94 151.836 222.603 152.518 222.187 152.518C221.771 152.518 221.435 151.819 221.435 150.951C221.435 150.084 221.771 149.393 222.187 149.393C222.603 149.393 222.94 150.093 222.94 150.951Z" fill="#EFF6FE"/>
<path d="M201.624 160.228C201.538 161.765 200.951 163.231 199.951 164.402C198.952 165.573 197.596 166.383 196.091 166.708V175.277C196.091 176.744 196.674 178.152 197.712 179.189C198.749 180.227 200.157 180.81 201.624 180.81C203.091 180.81 204.498 180.227 205.536 179.189C206.574 178.152 207.157 176.744 207.157 175.277V166.708C205.651 166.386 204.293 165.576 203.293 164.405C202.293 163.234 201.706 161.766 201.624 160.228Z" fill="#F49A8E"/>
<path d="M201.624 160.219V173.418" stroke="#E27169" stroke-width="0.885218" stroke-linecap="round" stroke-linejoin="round"/>
<path d="M201.623 148.189C195.843 148.189 186.92 149.482 187.141 152.704C187.362 155.926 195.108 159.582 201.623 160.228C208.085 159.582 215.893 155.926 216.105 152.704C216.318 149.482 207.404 148.189 201.623 148.189Z" fill="#231012"/>
<path d="M217.788 161.158C217.788 161.158 217.319 166.965 209.556 166.965C201.792 166.965 201.589 160.228 201.589 160.228C201.589 160.228 201.42 166.965 193.622 166.965C185.823 166.965 185.389 161.158 185.389 161.158" stroke="#231012" stroke-width="0.885218" stroke-linecap="round" stroke-linejoin="round"/>
<path d="M239.484 177.552C235.218 179.526 218.885 186.519 201.624 186.519C184.362 186.519 167.985 179.526 163.754 177.552C163.435 178.216 162.869 179.499 161.984 181.358C164.985 185.191 177.032 198.177 201.606 198.177C226.18 198.177 238.219 185.156 241.228 181.358C240.423 179.499 239.803 178.216 239.484 177.552Z" fill="#EFD79A"/>
<path d="M211.259 212.829C212.517 207.5 209.216 202.16 203.887 200.902C198.558 199.644 193.218 202.945 191.96 208.274C190.703 213.603 194.003 218.943 199.332 220.201C204.661 221.459 210.001 218.158 211.259 212.829Z" fill="#F89D4A"/>
<path d="M187.876 213.801L213.256 196.221" stroke="#EFD79A" stroke-width="2.65565" stroke-miterlimit="10"/>
<path d="M188.983 218.741L214.362 201.169" stroke="#EFD79A" stroke-width="4.42609" stroke-miterlimit="10"/>
<path d="M208.804 212.249C209.741 208.276 207.281 204.295 203.308 203.357C199.335 202.42 195.354 204.88 194.416 208.853C193.478 212.827 195.939 216.808 199.912 217.745C203.885 218.683 207.866 216.222 208.804 212.249Z" fill="#B2552D"/>
<path d="M209.015 210.562C209.015 209.1 208.581 207.671 207.769 206.455C206.957 205.24 205.803 204.292 204.452 203.733C203.101 203.173 201.615 203.027 200.181 203.312C198.747 203.597 197.43 204.301 196.397 205.335C195.363 206.369 194.659 207.686 194.374 209.12C194.089 210.554 194.235 212.04 194.794 213.39C195.354 214.741 196.301 215.895 197.517 216.708C198.732 217.52 200.161 217.953 201.623 217.953C202.595 217.957 203.558 217.768 204.456 217.398C205.354 217.028 206.171 216.483 206.858 215.796C207.545 215.109 208.089 214.293 208.459 213.395C208.83 212.496 209.018 211.533 209.015 210.562Z" fill="#D46327"/>
<path d="M201.624 192.131V201.86" stroke="white" stroke-width="1.77044" stroke-linecap="round" stroke-linejoin="round"/>
<path d="M201.358 248.679C201.243 247.608 186.973 249.157 188.682 248.608C190.39 248.059 207.431 242.075 205.926 241.314C204.421 240.553 184.477 243.474 187.407 242.367C190.337 241.261 209.467 233.409 208.059 231.984C206.652 230.559 184.902 239.066 186.513 237.738C188.124 236.41 206.307 225.177 205.182 224.132C204.058 223.087 194.498 227.93 192.125 229.337C189.753 230.745 173.412 237.021 172.429 236.286C171.447 235.551 172.686 233.745 175.156 230.267C177.625 226.788 177.723 223.185 177.085 221.308C176.2 218.741 173.987 220.423 170.367 226.619C168.145 230.461 164.285 233.701 159.744 237.552C156.203 240.544 155.318 247.218 155.106 249.998C139.738 251.946 111.349 255.017 106.118 253.955C103.595 253.442 102.771 228.08 103.338 214.12C104.17 193.707 101.886 185.917 88.5018 189.423C78.3837 192.078 72.8688 202.577 76.1618 242.013C78.2864 267.437 87.5723 283.858 94.8576 285.69C100.682 287.159 140.137 272.916 161.063 264.498C164.666 263.613 173.562 259.744 181.166 256.885C188.77 254.026 201.544 250.272 201.358 248.679Z" fill="#FFB48C"/>
<path d="M106.286 242.651C107.1 241.279 109.942 183.509 88.5816 177.773C83.1767 180.549 79.0536 185.307 77.0738 191.051C73.5329 201.32 60.8389 231.205 61.432 234.117C62.0251 237.03 76.7728 244.403 97.4338 244.102C101.559 244.12 105.401 244.12 106.286 242.651Z" fill="#969269"/>
<path d="M61.6973 232.241C61.6973 232.241 76.8433 241.597 106.587 240.305" stroke="#514D27" stroke-width="0.663913" stroke-linecap="round" stroke-linejoin="round"/>
<defs>
<filter id="filter0_d_2027_2406" x="0.142124" y="0.468052" width="333.071" height="354.22" filterUnits="userSpaceOnUse" color-interpolation-filters="sRGB">
<feFlood flood-opacity="0" result="BackgroundImageFix"/>
<feColorMatrix in="SourceAlpha" type="matrix" values="0 0 0 0 0 0 0 0 0 0 0 0 0 0 0 0 0 0 127 0" result="hardAlpha"/>
<feOffset/>
<feGaussianBlur stdDeviation="13.4283"/>
<feComposite in2="hardAlpha" operator="out"/>
<feColorMatrix type="matrix" values="0 0 0 0 0 0 0 0 0 0 0 0 0 0 0 0 0 0 0.1 0"/>
<feBlend mode="normal" in2="BackgroundImageFix" result="effect1_dropShadow_2027_2406"/>
<feBlend mode="normal" in="SourceGraphic" in2="effect1_dropShadow_2027_2406" result="shape"/>
</filter>
</defs>
</svg>
