<svg width="32" height="24" viewBox="0 0 32 24" fill="none" xmlns="http://www.w3.org/2000/svg">
<path d="M24.7805 0.390244C22.3614 0.390244 20.8902 0.857073 20.0414 1.25317C18.9522 0.71561 17.7073 0.390244 16.2927 0.390244C14.878 0.390244 13.6332 0.71561 12.5439 1.25317C11.6951 0.857073 10.2239 0.390244 7.80486 0.390244C3.56096 0.390244 0.731689 11.7073 0.731689 14.5366C0.731689 15.7107 2.59901 16.7859 5.17364 17.2244C6.07901 20.3932 10.3512 22.8122 15.5853 23.0244V16.9698C14.7507 16.4463 13.4634 15.4985 13.4634 14.5366C13.4634 13.122 16.2927 13.122 16.2927 13.122C16.2927 13.122 19.1219 13.122 19.1219 14.5366C19.1219 15.4985 17.8346 16.4463 17 16.9698V23.0244C22.2341 22.8122 26.5063 20.3932 27.4117 17.2244C29.9863 16.7859 31.8536 15.7107 31.8536 14.5366C31.8536 11.7073 29.0244 0.390244 24.7805 0.390244ZM5.18779 14.3527C4.48047 14.1829 3.92876 13.9849 3.56096 13.8293C3.91462 9.91073 6.67315 3.78537 7.87559 3.21951C8.6395 3.21951 9.21949 3.30439 9.74291 3.37512C6.77218 6.64293 5.59803 11.7639 5.18779 14.3527ZM12.0488 11.7073C11.6736 11.7073 11.3138 11.5583 11.0485 11.293C10.7832 11.0277 10.6341 10.6679 10.6341 10.2927C10.6341 9.52878 11.2707 8.87805 12.0488 8.87805C12.4239 8.87805 12.7838 9.02709 13.0491 9.29239C13.3144 9.55768 13.4634 9.9175 13.4634 10.2927C13.4634 11.0849 12.8268 11.7073 12.0488 11.7073ZM20.5366 11.7073C20.1614 11.7073 19.8016 11.5583 19.5363 11.293C19.271 11.0277 19.1219 10.6679 19.1219 10.2927C19.1219 9.52878 19.7585 8.87805 20.5366 8.87805C20.9118 8.87805 21.2716 9.02709 21.5369 9.29239C21.8022 9.55768 21.9512 9.9175 21.9512 10.2927C21.9512 11.0849 21.3146 11.7073 20.5366 11.7073ZM27.3975 14.3527C26.9873 11.7639 25.8132 6.64293 22.8424 3.37512C23.3658 3.30439 23.9458 3.21951 24.7097 3.21951C25.9122 3.78537 28.6707 9.91073 29.0244 13.8293C28.6707 13.9849 28.119 14.1829 27.3975 14.3527Z" fill="#3A130E" fill-opacity="0.58"/>
</svg>
