<svg width="317" height="324" viewBox="0 0 317 324" fill="none" xmlns="http://www.w3.org/2000/svg">
<path fill-rule="evenodd" clip-rule="evenodd" d="M160.432 95.757C174.047 82.1417 167.525 53.5447 145.865 31.884C124.204 10.2233 95.607 3.70119 81.9916 17.3165C68.3763 30.9318 74.8984 59.5287 96.5591 81.1895C118.22 102.85 146.817 109.372 160.432 95.757ZM80.871 96.8778C102.532 118.539 109.054 147.135 95.4385 160.751C81.8232 174.366 53.2263 167.844 31.5656 146.183C9.90484 124.522 3.38275 95.9256 16.9981 82.3103C30.6134 68.6949 59.2103 75.217 80.871 96.8778ZM229.496 221.811C343.479 253.184 384.855 17.2646 160.494 125.351C144.536 133.039 131.6 145.976 123.912 161.934C15.8253 386.294 251.744 344.918 220.372 230.935C218.971 225.845 224.405 220.41 229.496 221.811ZM65.1829 197.73C84.987 217.534 91.0074 243.622 78.6298 256C66.2523 268.377 40.1639 262.357 20.3598 242.553C0.555657 222.749 -5.46475 196.66 6.91282 184.283C19.2904 171.905 45.3788 177.926 65.1829 197.73ZM255.681 78.9483C268.059 66.5708 262.038 40.4823 242.234 20.6782C222.43 0.874134 196.342 -5.14625 183.964 7.23131C171.587 19.6089 177.607 45.6973 197.411 65.5014C217.215 85.3055 243.304 91.3259 255.681 78.9483Z" fill="#B75DFC" fill-opacity="0.3"/>
</svg>
