<svg width="116" height="114" viewBox="0 0 116 114" fill="none" xmlns="http://www.w3.org/2000/svg">
<path fill-rule="evenodd" clip-rule="evenodd" d="M81.6421 57.4683C86.4856 62.3118 96.6587 59.9917 104.364 52.2861C112.07 44.5805 114.39 34.4074 109.547 29.5639C104.703 24.7203 94.5299 27.0405 86.8243 34.7461C79.1187 42.4517 76.7986 52.6248 81.6421 57.4683ZM81.2434 29.1652C73.5378 36.8708 63.3647 39.191 58.5212 34.3475C53.6777 29.504 55.9978 19.3309 63.7034 11.6253C71.409 3.91969 81.5821 1.59952 86.4256 6.44304C91.2692 11.2866 88.949 21.4596 81.2434 29.1652ZM36.7994 82.0372C25.639 122.585 109.565 137.305 71.1141 57.4905C68.3792 51.8136 63.7772 47.2116 58.1003 44.4767C-21.7138 6.02588 -6.99458 89.9518 33.5536 78.7914C35.3646 78.293 37.2978 80.2262 36.7994 82.0372ZM45.3663 23.5843C38.3211 30.6295 29.0404 32.7712 24.6372 28.368C20.234 23.9648 22.3757 14.6841 29.4209 7.63894C36.466 0.593822 45.7467 -1.54788 50.1499 2.85532C54.5531 7.25852 52.4114 16.5392 45.3663 23.5843ZM87.6216 91.3523C92.0248 95.7555 101.305 93.6138 108.351 86.5687C115.396 79.5236 117.537 70.2429 113.134 65.8397C108.731 61.4365 99.4503 63.5782 92.4052 70.6233C85.3601 77.6684 83.2184 86.9491 87.6216 91.3523Z" fill="#B75DFC" fill-opacity="0.45"/>
</svg>
