<svg width="34" height="30" viewBox="0 0 34 30" fill="none" xmlns="http://www.w3.org/2000/svg">
<path fill-rule="evenodd" clip-rule="evenodd" d="M20.986 9.58351C22.5579 10.0346 24.4168 8.35965 25.138 5.84235C25.8592 3.32506 25.1696 0.918684 23.5977 0.467569C22.0259 0.0164552 20.167 1.69143 19.4458 4.20873C18.7246 6.72603 19.4142 9.1324 20.986 9.58351ZM14.3888 4.12047C15.0217 6.6614 14.2486 9.04224 12.6619 9.43822C11.0753 9.8342 9.27599 8.09538 8.64308 5.55444C8.01017 3.01351 8.78332 0.632669 10.37 0.236687C11.9566 -0.159295 13.7559 1.57953 14.3888 4.12047ZM18.106 27.4502C24.1697 34.7114 40.2567 20.3293 21.6131 11.8341C18.7073 10.51 15.3587 10.4516 12.4085 11.6734C-6.52031 19.5128 9.05501 34.4476 15.3684 27.4024C16.005 26.692 17.4946 26.718 18.106 27.4502ZM5.17559 9.60783C6.62954 11.1148 7.04534 13.0738 6.10431 13.9834C5.16327 14.893 3.22176 14.4087 1.76781 12.9017C0.313869 11.3947 -0.101927 9.4357 0.839104 8.52613C1.78014 7.61655 3.72165 8.10085 5.17559 9.60783ZM27.9262 14.3643C28.8349 15.3062 30.7921 14.8899 32.2978 13.4346C33.8034 11.9793 34.2873 10.036 33.3786 9.09412C32.4699 8.15225 30.5127 8.56849 29.007 10.0238C27.5014 11.4791 27.0175 13.4224 27.9262 14.3643Z" fill="#3A130E" fill-opacity="0.58"/>
</svg>
