<svg width="506" height="483" viewBox="0 0 506 483" fill="none" xmlns="http://www.w3.org/2000/svg">
<path fill-rule="evenodd" clip-rule="evenodd" d="M117.482 265.448C118.097 268.495 117.409 271.678 116.283 274.567C116.565 274.843 116.847 275.118 117.129 275.394C122.761 270.895 128.481 266.303 132.575 260.306C134.3 257.779 132.262 254.09 129.5 252.872C126.737 251.655 123.596 252.03 120.591 251.9C116.977 251.743 113.396 250.809 110.146 249.178C105.428 246.809 101.098 242.901 95.8463 242.82C95.2666 242.811 94.6457 242.866 94.1901 243.234C93.0791 244.131 93.7579 245.959 94.5922 247.13C98.7329 252.943 104.94 257.17 111.769 258.827C114.721 259.543 116.866 262.4 117.482 265.448Z" fill="#B75DFC" fill-opacity="0.55"/>
<path fill-rule="evenodd" clip-rule="evenodd" d="M208.084 354.234L133.421 371.331C118.162 374.825 103.03 364.966 99.6243 349.308C97.9828 341.762 99.3416 333.855 103.4 327.339L144.594 261.201C157.276 240.84 161.522 216.132 156.392 192.548L139.729 115.943C136.323 100.286 145.933 84.7602 161.193 81.2658C168.548 79.5815 176.254 80.9757 182.604 85.1395L247.065 127.406C266.909 140.418 290.991 144.775 313.976 139.511L388.638 122.414C403.898 118.92 419.029 128.78 422.435 144.437C424.076 151.984 422.718 159.891 418.659 166.406L377.465 232.544C364.784 252.905 360.537 277.614 365.667 301.197L382.33 377.803C385.736 393.46 376.126 408.985 360.866 412.48C353.511 414.164 345.805 412.77 339.455 408.606L274.995 366.339C255.15 353.328 231.069 348.971 208.084 354.234Z" fill="#B75DFC" fill-opacity="0.55"/>
<path d="M470.682 324.41C470.682 324.41 136.084 324.591 3.6087 324.41C-6.78923 301.153 6.29166 270.076 29.922 261.897C22.5267 270.553 15.1314 279.21 7.73602 287.866C20.7292 287.732 470.682 287.866 470.682 287.866V324.41Z" fill="white"/>
<path fill-rule="evenodd" clip-rule="evenodd" d="M362.767 324.461C196.632 324.527 76.9126 324.51 3.60866 324.41C-6.78927 301.152 248.163 310.946 344.841 310.946C441.518 310.946 396.792 324.448 362.767 324.461Z" fill="#E7EAEE"/>
<path fill-rule="evenodd" clip-rule="evenodd" d="M293.578 57.7843C294.759 56.403 297.089 56.3009 298.38 57.5739C294.209 49.0981 282.007 46.5573 279.385 37.4514C276.029 25.7948 271.079 14.6228 264.724 4.36499C262.08 14.45 257.029 23.8611 250.136 31.5452C248.342 31.5535 246.549 31.5618 244.755 31.5701C240.681 31.5889 236.571 31.6117 232.592 32.5104C225.434 34.1273 219.017 38.5074 211.765 39.5973C212.302 38.9066 212.84 38.2158 213.377 37.525C213.228 36.8122 212.221 36.4861 211.699 36.9816C210.781 33.2323 207.821 30.2881 204.464 28.5331C201.107 26.778 196.157 23.5114 186.249 24.3707C198.27 38.1784 194.547 95.6615 197.505 106.555C198.513 106.831 199.285 105.7 199.942 104.867C200.598 104.034 202.129 103.522 202.484 104.53C204.946 111.533 205.296 122.311 212.845 126.484C214.301 127.289 215.168 125.785 215.055 125.052C214.91 124.116 216.006 123.394 216.92 123.536C217.833 123.679 218.563 124.357 219.275 124.961C231.282 135.133 250.942 129.89 262.963 140.044C265.339 142.05 267.432 144.665 270.396 145.51C272.165 146.014 274.05 145.815 275.857 145.483C286.618 143.504 296.198 136.953 303.672 128.767C311.145 120.581 316.725 110.793 321.92 100.924C317.134 98.1426 312.102 95.1109 309.501 90.1373C307.452 86.2185 306.192 80.6012 301.883 80.1223C303.25 84.677 304.617 89.2317 305.984 93.7864C306.484 95.4541 306.99 97.1935 306.726 98.9173C306.461 100.641 305.177 102.334 303.479 102.422C301.173 102.541 299.55 99.8638 297.261 99.559C296.827 108.369 293.53 117.005 288.017 123.773C286.104 126.122 282.425 128.254 280.484 125.93C283.431 121.046 286.377 116.161 289.324 111.277C291.161 108.233 293.045 105.048 293.382 101.485C293.718 97.9213 291.996 93.8793 288.657 92.8404C288.509 91.8983 289.477 91.0891 290.407 91.061C291.337 91.0329 292.193 91.5379 292.992 92.0267C295.964 93.8459 298.937 95.665 301.909 97.4842C300.961 90.2521 299.021 83.1577 296.166 76.4744C298.933 76.2055 301.761 76.6393 304.33 77.7263C302.352 71.8551 298.726 66.5795 293.999 62.6975C292.601 61.5491 292.396 59.1656 293.578 57.7843Z" fill="white"/>
<path fill-rule="evenodd" clip-rule="evenodd" d="M234.215 42.1994C236.664 43.8626 238.596 46.3148 239.667 49.1203C240 49.9928 240.947 50.4137 241.585 51.0836C242.224 51.7535 242.33 53.1853 241.435 53.3725C241.044 53.4543 240.659 53.2331 240.316 53.023C234.826 49.6592 228.149 46.9433 222.159 49.2407C223.144 49.7569 223.641 51.0813 223.248 52.142C224.471 52.1873 225.611 52.7515 226.709 53.3045C227.676 53.7915 228.644 54.2785 229.611 54.7655C229.509 55.0586 229.408 55.3516 229.307 55.6446C224.934 53.3598 219.592 53.1222 215.042 55.0102C216.554 55.2459 218.095 55.289 219.617 55.1382C221.837 56.286 224.057 57.4339 226.276 58.5818C226.77 58.8371 227.291 59.1179 227.569 59.6085C227.847 60.099 227.741 60.8597 227.224 61.0619C223.214 57.4325 217.54 55.8276 212.283 56.8356C211.67 56.9532 211.25 56.0753 211.51 55.4933C211.771 54.9114 212.395 54.6128 212.976 54.3782C215.89 53.201 218.963 52.4395 222.079 52.1225C220.52 50.6398 218.715 49.4308 216.764 48.5639C216.443 47.4367 218.028 46.3563 218.916 47.0969C225.666 45.7394 232.897 47.0864 238.75 50.7917C238.799 49.6136 237.948 48.6228 237.151 47.773C234.66 45.1163 232.169 42.4596 229.679 39.8029C234.04 40.3698 238.315 41.6298 242.305 43.5241C243.207 43.9525 244.098 44.4151 244.916 44.9957C247.994 47.1822 249.826 51.0934 249.567 54.9255C247.702 50.8818 244.751 47.3727 241.125 44.8884C239.052 43.4685 236.702 42.3629 234.215 42.1994V42.1994Z" fill="#E7EAEE"/>
<path fill-rule="evenodd" clip-rule="evenodd" d="M75.6725 233.324C69.3567 239.141 69.9081 249.432 72.1877 257.82C75.1204 268.611 80.0799 278.818 86.7138 287.715L7.73602 288.529L29.922 262.56C6.29166 270.739 -6.78923 301.816 3.6087 325.073C136.084 325.254 268.56 324.976 401.033 324.239C376.871 340.994 353.447 361.321 342.219 388.936C330.991 416.552 335.64 452.86 359.509 470.051C368.4 476.455 379.076 479.736 389.749 481.81C400.753 483.949 414.08 484.038 420.872 474.901C424.839 469.564 422.943 461.19 421.067 452.909C419.759 447.132 418.461 441.4 419.171 436.775C421.576 421.093 431.866 413.14 443.607 404.065C446.074 402.158 448.604 400.203 451.139 398.115C472.784 380.291 497.596 357.756 503.913 330.027C509.682 304.7 503.332 279.575 486.83 259.83C480.889 252.72 473.585 246.25 466.244 239.746C456.38 231.007 446.448 222.209 439.667 211.723C435.526 205.319 434.074 198.474 432.551 191.29C432.004 188.712 431.448 186.09 430.755 183.429C421.858 149.269 390.134 131.705 357.468 113.619C353.331 111.328 349.179 109.029 345.056 106.687C326.151 95.9481 307.071 82.2019 301.001 60.6839C304.349 60.8179 305.589 55.6555 303.661 52.845C302.226 50.755 299.96 49.5789 297.7 48.4058L297.699 48.4056C296.92 48.0013 296.142 47.5973 295.399 47.1563C288.496 43.0621 284.539 34.7094 280.486 26.1556C274.398 13.3047 268.095 0 251.266 0C250.631 4.36002 251.288 8.24431 251.903 11.8836C252.853 17.5079 253.705 22.547 249.54 27.8527C237.614 26.4957 225.284 29.1716 214.915 35.3676C208.92 23.6901 193.716 18.7018 181.391 22.4825C182.952 24.4981 183.877 25.5091 184.645 26.3471C186.265 28.1175 187.18 29.1162 191.882 37.1839C198.81 49.0707 194.421 92.7695 193.324 99.6785C192.228 106.587 197.416 111.497 202.162 108.086C199.85 118.326 208.179 128.099 218.42 128.393C221.917 129.033 224.091 130.769 226.145 132.41C227.423 133.431 228.654 134.414 230.129 135.074C197.612 158.939 161.615 177.801 123.709 190.839L123.042 191.068C115.949 193.504 108.536 196.05 103.514 201.705C98.3342 207.537 97.1179 217.891 103.145 222.792C99.4651 226.216 94.4286 227.147 89.3906 228.078C84.3732 229.006 79.3544 229.933 75.6725 233.324ZM411.588 279.508C405.719 285.197 394.23 285.495 386.156 285.461L281.453 285.022C278.428 280.898 280.299 274.56 284.207 271.31C288.114 268.06 293.375 267.185 298.389 266.778C314.573 265.463 331.033 267.849 346.229 273.712C350.496 274.49 353.736 268.967 352.705 264.648C351.674 260.329 348.089 257.24 344.755 254.398C333.999 245.229 323.452 234.905 318.403 221.524C313.167 207.648 314.686 191.279 322.38 178.666C309.463 189.676 306.749 209.915 312.55 226.084C318.351 242.254 331.09 254.831 344.893 264.644C337.355 266.23 329.528 264.463 321.781 262.715C312.393 260.596 303.122 258.503 294.621 262.433L292.868 213.367L288.323 256.375C287.986 259.573 287.005 263.529 283.924 264.124C275.562 265.738 270.605 276.974 274.94 284.485C271.204 287.072 265.504 285.915 263.009 282.063C260.515 278.211 261.684 272.371 265.456 269.839C274.605 263.698 275.329 250.469 275.08 239.254L273.362 161.823C273.321 159.954 273.733 157.497 275.538 157.239C301.956 153.473 325.444 133.107 333.467 107.009C356.88 117.77 380.296 130.177 399.188 147.265C442.421 186.368 430.562 218.883 427.46 227.389C426.917 228.879 426.642 229.632 426.979 229.555C429.135 229.06 430.158 226.57 430.755 224.388C432.149 219.29 433.057 214.053 433.462 208.775C440.597 222.375 451.957 232.708 463.34 243.062C473.744 252.526 484.168 262.007 491.401 274.016C502.556 292.534 504.89 316.369 497.551 336.795C488.881 360.925 468.954 377.804 449.3 394.452C444.577 398.453 439.87 402.44 435.339 406.511C425.855 415.032 416.313 425.59 416.007 438.521C415.925 441.986 416.528 445.401 417.132 448.822C417.559 451.239 417.986 453.66 418.173 456.102C418.622 461.999 417.204 468.708 412.337 471.879C410.285 473.216 407.844 473.766 405.437 474.123C380.491 477.82 349.933 460.499 342.817 435.69C335.834 411.345 348.091 381.311 364.196 362.05C374.201 350.085 387.146 341.534 400.135 332.955C408.054 327.725 415.989 322.484 423.283 316.452C430.118 310.799 436.868 304.706 441.194 296.868C445.519 289.029 447.073 279.064 443.187 270.987C440.003 264.367 433.727 259.77 427.574 255.263C419.836 249.595 412.29 244.068 411.328 234.838C411.446 238.985 413.152 243.631 414.844 248.236L414.844 248.236C416.318 252.251 417.782 256.235 418.171 259.83C419.006 267.548 417.089 274.174 411.588 279.508ZM424.319 263.68C434.829 263.797 441.002 277.449 438.045 287.798C435.089 298.147 426.405 305.513 418.171 312.215C414.039 315.578 409.478 319.105 404.205 319.145L6.59367 322.198L4.85157 290.55L81.5363 290.475C91.4552 290.465 102.702 291.047 109.163 298.769C111.512 301.577 115.696 298.52 118.562 296.273C125.352 290.952 134.573 290.692 143.117 290.657L423.67 289.489C426.678 289.476 430.726 288.439 430.627 285.354L411.762 284.626C418.537 279.841 423.212 272.042 424.319 263.68ZM132.542 287.041C136.75 276.612 139.943 265.752 142.057 254.675C142.651 251.564 143.162 248.379 142.758 245.236C141.547 235.804 132.818 229.596 124.798 224.82C128.221 224.75 131.141 222.267 133.338 219.573C133.949 218.823 134.533 218.044 135.117 217.264L135.117 217.263C136.631 215.241 138.145 213.219 140.14 211.723C144.233 208.654 144.888 208.599 153.342 207.888C154.213 207.814 155.166 207.734 156.214 207.643C163.649 206.996 181.631 200.045 194.76 194.97L194.76 194.97C201.458 192.381 206.893 190.28 209.021 189.753C238.14 182.543 258.325 191.982 262.87 197.07C265.351 199.846 265.96 203.828 266.458 207.56C268.7 224.348 270.943 241.401 268.582 258.172C268.141 261.303 267.325 264.754 264.738 266.474C262.143 268.198 259.7 270.162 257.447 272.335C253.836 275.817 250.588 281.471 253.394 285.663L132.542 287.041ZM298.292 56.3286C297 55.0557 294.67 55.1577 293.489 56.539C292.308 57.9203 292.512 60.3039 293.911 61.4522C298.637 65.3343 302.264 70.6099 304.242 76.4811C301.673 75.3941 298.844 74.9603 296.078 75.2292C298.933 81.9124 300.872 89.0069 301.821 96.2389L292.903 90.7815C292.104 90.2926 291.248 89.7877 290.319 89.8158C289.389 89.8439 288.42 90.653 288.569 91.5951C291.908 92.6341 293.63 96.676 293.293 100.239C292.957 103.803 291.072 106.988 289.236 110.032L280.395 124.685C282.337 127.009 286.015 124.877 287.928 122.528C293.442 115.76 296.739 107.123 297.172 98.3138C298.236 98.4553 299.155 99.1087 300.066 99.7559C301.117 100.502 302.156 101.24 303.39 101.177C305.089 101.089 306.373 99.3958 306.637 97.6721C306.902 95.9483 306.396 94.2089 305.895 92.5411L301.795 78.877C305.137 79.2485 306.645 82.712 308.11 86.0761C308.533 87.0488 308.953 88.0131 309.413 88.8921C312.013 93.8657 317.045 96.8974 321.832 99.6785C316.637 109.548 311.057 119.336 303.583 127.522C296.11 135.708 286.529 142.259 275.769 144.237C273.961 144.57 272.077 144.769 270.308 144.264C268.091 143.633 266.362 142.012 264.638 140.395L264.637 140.395L264.637 140.395L264.637 140.395L264.636 140.394C264.055 139.849 263.474 139.304 262.875 138.799C256.868 133.724 248.954 132.495 241.04 131.266C233.117 130.035 225.194 128.805 219.187 123.716L219.081 123.626L219.017 123.571L219.016 123.57C218.357 123.007 217.672 122.422 216.831 122.291C215.918 122.149 214.822 122.87 214.966 123.806C215.079 124.54 214.213 126.044 212.756 125.239C207.139 122.133 205.508 115.371 204.027 109.228C203.517 107.116 203.025 105.077 202.395 103.284C202.041 102.277 200.509 102.789 199.853 103.622C199.801 103.688 199.748 103.756 199.694 103.826L199.693 103.826C199.072 104.627 198.344 105.564 197.416 105.31C196.309 101.131 196.695 96.4071 197.068 91.837C197.22 89.9763 197.37 88.1411 197.416 86.3785C197.42 86.2191 197.468 85.7382 197.544 84.9842L197.544 84.9823C198.402 76.3797 202.8 32.2757 186.249 24.3706C190.184 23.5747 196.535 24.3112 202.162 27.8527C207.855 31.4357 211.947 38.0047 211.676 38.3521C215.608 37.7612 219.295 36.2031 222.987 34.6427C226.104 33.3249 229.226 32.0055 232.504 31.2652C236.483 30.3665 240.593 30.3437 244.667 30.3249L250.047 30.3C255.843 23.839 255.619 16.7615 255.359 8.55378C255.31 6.99996 255.259 5.40563 255.248 3.76732C265.293 5.12103 275.941 24.5496 279.297 36.2061C280.699 41.0748 284.839 44.0667 289.027 47.0925C292.671 49.7257 296.351 52.3846 298.292 56.3286ZM127.075 193.772C128.225 193.472 129.369 193.174 130.497 192.868C147.753 188.183 163.859 179.939 179.826 171.75C198.849 161.992 218.199 152.001 233.46 136.803C234.64 135.628 236.51 135.71 238.14 135.925C244.169 136.723 250.098 138.302 255.744 140.613C258.702 141.824 262.029 143.903 262.05 147.171C262.057 148.322 261.627 149.422 261.203 150.487L258.361 157.635C257.148 160.684 255.915 163.847 256.02 167.139C256.124 170.43 257.946 173.905 261.033 174.809C264.119 175.713 267.932 172.767 267.134 169.577C265.768 164.114 264.834 158.538 264.343 152.921C270.356 165.141 268.282 179.721 266.065 193.219C258.106 188.916 249.774 185.339 241.2 182.543C238.255 181.583 234.954 180.737 232.172 182.117C225.361 185.496 212.541 186.396 211.279 185.488C210.016 184.58 208.289 185.018 206.835 185.542C204.493 186.387 200.031 188.171 194.7 190.304L194.698 190.305L194.695 190.306L194.694 190.306L194.694 190.306C181.607 195.541 163.287 202.869 158.244 203.525C156.916 203.697 155.58 203.825 154.245 203.953C151.358 204.229 148.473 204.505 145.667 205.234C141.564 206.299 137.519 208.506 135.347 212.233C133.724 211.318 132.712 209.699 131.693 208.07L131.693 208.07C131.201 207.285 130.709 206.497 130.145 205.785C128.415 203.598 124.782 202.248 123.122 204.493C121.667 199.385 114.298 197.413 110.597 201.141C110.025 201.717 109.548 202.381 109.07 203.045C108.574 203.735 108.078 204.425 107.476 205.016C106.295 206.176 104.403 206.89 103.032 205.976C108.635 198.575 118.068 196.118 127.075 193.772ZM108.811 286.529C104.584 288.089 99.9193 286.568 95.7254 284.915C91.761 283.352 87.6226 281.488 85.2142 277.899C82.3159 273.58 82.6283 267.88 83.0554 262.654L84.8445 240.764C82.1914 243.053 80.2428 246.189 79.34 249.623C77.1961 244.771 80.3851 238.289 85.4635 237.177C83.318 235.354 79.7863 236.55 78.272 238.949C76.7576 241.348 76.792 244.438 77.2347 247.26C77.3542 248.021 77.4996 248.782 77.6451 249.542C78.0387 251.599 78.4325 253.657 78.3112 255.741C75.1235 250.63 74.516 243.92 76.7315 238.294C77.7348 235.746 79.5132 233.253 82.114 232.596C84.7148 231.94 87.9335 234.121 87.5027 236.833C86.5153 243.049 89.3402 249.429 93.6721 253.891C98.0041 258.352 103.681 261.163 109.411 263.421C111.52 264.251 114.142 266.155 113.113 268.218C112.039 270.374 111.299 272.813 111.668 275.204C112.037 277.595 113.743 279.879 116.068 280.292C118.934 280.8 121.484 278.522 123.544 276.416L135.715 263.975C134.093 268.599 132.19 273.119 130.022 277.5C128.536 280.501 126.837 283.54 124.152 285.473C121.466 287.406 117.535 287.909 114.995 285.78C113.579 284.593 111.648 285.382 109.851 286.117C109.498 286.261 109.149 286.404 108.811 286.529ZM107.606 242.992C106.471 242.22 105.335 241.446 104.157 240.765C100.51 238.654 95.6661 237.519 92.3178 240.099C91.2445 236.555 93.3663 232.747 96.1339 230.357C101.03 226.128 108.208 224.888 114.183 227.238C119.849 229.466 125.6 231.892 130.101 236.068C134.601 240.244 137.678 246.558 136.522 252.67C135.256 252.986 134.2 251.944 133.213 250.969L133.212 250.968C133.024 250.783 132.838 250.599 132.654 250.429C129.855 247.831 126.016 247.76 122.104 247.688C119.725 247.645 117.319 247.601 115.103 246.988C112.365 246.23 109.988 244.613 107.606 242.992ZM116.284 274.568C117.409 271.678 118.098 268.496 117.482 265.448C116.867 262.401 114.722 259.544 111.77 258.827C104.941 257.17 98.7335 252.943 94.5928 247.13C93.7585 245.959 93.0798 244.132 94.1908 243.234C94.6463 242.866 95.2672 242.812 95.847 242.82C99.5865 242.878 102.858 244.875 106.136 246.876C107.461 247.686 108.788 248.496 110.147 249.178C113.396 250.81 116.977 251.743 120.592 251.9C121.317 251.932 122.049 251.934 122.782 251.936C125.089 251.942 127.404 251.949 129.5 252.873C132.263 254.09 134.301 257.779 132.576 260.306C128.481 266.304 122.761 270.896 117.13 275.394L116.284 274.568ZM323.566 103.126C324.195 101.961 325.127 100.623 326.417 100.774C328.086 100.969 328.423 103.307 328.193 105.015C326.567 117.132 319.257 127.905 309.956 135.557C300.656 143.209 289.467 148.053 278.148 151.894C277.37 152.158 276.608 152.655 275.859 153.144C274.428 154.079 273.047 154.98 271.704 154.154C270.156 153.202 270.551 150.589 271.96 149.432C273.237 148.381 274.939 148.156 276.579 147.939L276.764 147.914L276.907 147.895L277.079 147.872C288.023 146.36 297.796 139.698 305.272 131.36C312.749 123.023 318.218 113.039 323.566 103.126ZM120.651 205.192C121.637 206.397 122.723 207.725 124.219 207.691C125.478 207.663 126.262 208.712 127.074 209.799C127.65 210.569 128.24 211.359 129.024 211.797C130.898 212.845 131.059 215.764 129.829 217.554C128.599 219.344 126.464 220.215 124.399 220.769C120.188 221.897 115.741 222.092 111.451 221.337C108.654 220.844 105.754 219.834 103.99 217.552C102.227 215.27 102.177 211.436 104.512 209.78C105.293 209.226 106.233 208.968 107.168 208.711C108.282 208.405 109.39 208.101 110.21 207.3C110.818 206.705 111.183 205.913 111.547 205.121C111.929 204.292 112.309 203.464 112.97 202.866C114.038 201.899 115.658 201.767 117.003 202.25C118.348 202.734 119.454 203.746 120.378 204.859C120.468 204.968 120.559 205.079 120.651 205.192ZM112.765 294.295C112.333 294.47 111.845 294.498 111.396 294.374C110.961 294.254 110.565 293.992 110.279 293.636C109.114 292.188 110.738 289.57 112.51 290.039C114.282 290.509 114.468 293.606 112.765 294.295ZM256.842 285.208C256.411 285.738 255.36 285.683 255.248 285.002C254.788 282.203 254.57 278.76 256.826 277.118L257.209 283.226C257.252 283.915 257.273 284.678 256.842 285.208ZM234.215 37.8345C236.664 39.4977 238.596 41.9499 239.667 44.7554C239.886 45.3272 240.367 45.705 240.853 46.0861C241.109 46.2865 241.365 46.4878 241.585 46.7187C242.224 47.3886 242.33 48.8204 241.435 49.0075C241.044 49.0894 240.659 48.8682 240.316 48.6581C234.826 45.2943 228.149 42.5783 222.159 44.8758C223.144 45.3919 223.641 46.7164 223.248 47.7771C224.471 47.8224 225.611 48.3866 226.709 48.9395L229.611 50.4006L229.307 51.2797C224.934 48.9949 219.592 48.7573 215.042 50.6453C216.554 50.881 218.095 50.9241 219.617 50.7733L226.276 54.2169C226.77 54.4722 227.291 54.753 227.569 55.2435C227.847 55.7341 227.741 56.4948 227.224 56.697C223.214 53.0676 217.54 51.4627 212.283 52.4707C211.67 52.5883 211.25 51.7104 211.51 51.1284C211.771 50.5465 212.395 50.2478 212.976 50.0133C215.89 48.8361 218.963 48.0746 222.079 47.7576C220.52 46.2749 218.715 45.0659 216.764 44.199C216.443 43.0718 218.028 41.9914 218.916 42.7319C225.666 41.3744 232.897 42.7215 238.75 46.4268C238.8 45.2486 237.948 44.2579 237.151 43.4081L229.679 35.4379C234.04 36.0049 238.315 37.2649 242.305 39.1591C243.207 39.5876 244.098 40.0502 244.916 40.6308C247.994 42.8173 249.826 46.7285 249.567 50.5606C247.702 46.5169 244.751 43.0077 241.125 40.5235C239.052 39.1036 236.702 37.998 234.215 37.8345ZM249.581 75.0484C249.158 71.6668 249.138 68.0596 250.706 65.0534C251.175 64.1544 251.826 63.2906 252.749 62.9137C254.162 62.3371 255.788 63.0731 256.902 64.1346C259.667 66.7682 260.255 71.0342 260.018 74.897C259.915 76.5755 259.675 78.2923 258.873 79.7591C258.071 81.2258 256.604 82.4058 254.965 82.4306C253.32 82.4555 251.817 81.3139 250.962 79.8718C250.106 78.4296 249.791 76.7231 249.581 75.0484ZM210.229 87.6284C207.12 82.7466 207.33 75.8798 210.73 71.2073C211.137 70.649 211.599 70.108 212.202 69.7887C213.378 69.1669 214.881 69.5418 215.9 70.4078C216.919 71.2738 217.531 72.5421 217.974 73.8211C219.288 77.6094 219.342 81.8443 218.126 85.6668C217.389 87.9852 215.561 90.4935 213.22 90.0743C211.927 89.8428 210.947 88.7554 210.229 87.6284ZM240.091 112.702C240.465 112.596 240.836 112.49 241.112 112.22C241.694 111.648 241.489 110.543 240.828 110.069C240.166 109.596 239.238 109.678 238.533 110.079C237.819 110.485 237.251 111.289 237.372 112.117C237.493 112.946 238.525 113.564 239.19 113.077C239.453 112.884 239.773 112.793 240.091 112.702ZM248.485 99.2426C253.647 98.0691 256.532 98.2177 260.96 99.3755L261.893 99.6253C266.311 100.809 269.071 100.814 274.679 98.9491C275.35 98.7261 276.07 99.103 276.287 99.7909C276.504 100.479 266.271 103.462 261.593 102.25L260.731 102.02C256.424 100.859 253.918 100.69 249.037 101.8C248.349 101.956 247.668 101.51 247.515 100.804C247.363 100.098 247.797 99.399 248.485 99.2426ZM289.025 86.5953C288.714 85.9465 287.949 85.6794 287.317 85.9988C278.234 90.586 273.201 91.1835 264.919 90.0986L262.829 89.8329C262.591 89.8052 262.381 89.7827 262.161 89.7608L261.415 89.6927C256.484 89.295 252.574 90.1535 247.557 93.2275C246.952 93.5983 246.755 94.4023 247.116 95.0232C247.477 95.6441 248.261 95.8468 248.866 95.476C253.534 92.6159 256.98 91.9066 261.586 92.336C261.891 92.3644 262.146 92.3901 262.441 92.4238L265.504 92.8103C273.732 93.7906 289.337 87.2442 289.025 86.5953ZM226.014 98.8886C226.717 98.8372 227.327 99.3804 227.377 100.102C227.427 100.823 226.898 101.45 226.195 101.501C223.285 101.713 221.281 102.729 218.273 105.216L217.185 106.138L216.824 106.448C216.634 106.611 216.473 106.75 216.412 106.802C213.761 109.07 211.994 110.306 209.652 111.292C208.999 111.566 204.496 112.506 207.987 110.577C211.477 108.648 216.026 103.719 216.026 103.719L216.692 103.16C220.068 100.372 222.483 99.1465 226.014 98.8886ZM227.929 105.153C227.652 104.488 226.902 104.179 226.254 104.463C223.05 105.866 221.247 107.659 218.215 111.73L217.279 112.979C216.666 113.784 216.152 114.596 215.653 115.385C214.553 117.123 213.527 118.745 211.674 119.914C208.982 121.613 212.83 120.722 213.43 120.343C215.821 118.835 217.371 117.17 219.791 113.928L220.493 112.986C223.119 109.493 224.653 108.012 227.256 106.872C227.904 106.588 228.205 105.818 227.929 105.153Z" fill="#00160A"/>
<path fill-rule="evenodd" clip-rule="evenodd" d="M232.4 100.994C231.356 100.028 229.839 99.7328 228.819 98.7402C227.852 97.7993 227.483 96.2651 227.91 94.9702C228.338 93.6753 229.54 92.6879 230.866 92.5437C234.667 92.1303 238.467 91.7169 242.268 91.3034C243.171 91.2053 244.168 91.1317 244.898 91.6833C246.014 92.5254 245.838 94.3659 245.032 95.5213C244.225 96.6767 242.982 97.4213 242.011 98.4341C240.758 99.7394 239.975 101.509 239.841 103.335C239.741 104.692 239.885 106.308 238.838 107.142C237.523 108.188 235.578 106.951 234.773 105.457C233.967 103.963 233.636 102.137 232.4 100.994H232.4Z" fill="#B75DFC"/>
<path fill-rule="evenodd" clip-rule="evenodd" d="M405.437 474.123C407.844 473.766 410.285 473.216 412.337 471.879C417.204 468.708 418.622 461.999 418.173 456.102C417.723 450.205 415.867 444.435 416.007 438.521C416.313 425.59 425.855 415.032 435.339 406.511C458.727 385.497 486.798 366.723 497.551 336.795C501.857 324.812 447.794 361.455 418.173 404.596C397.301 434.995 395.126 475.651 405.437 474.123Z" fill="#E7EAEE"/>
</svg>
