<svg width="152" height="121" viewBox="0 0 152 121" fill="none" xmlns="http://www.w3.org/2000/svg">
<path d="M148.925 75.4339C143.629 79.3603 135.67 75.4996 135.67 75.4996C104.627 98.1891 67.3389 105.521 67.3389 105.521C67.3389 105.521 56.3782 123.092 46.4635 119.787C36.5489 116.482 42.2692 103.803 42.2692 103.803C18.4124 90.695 12.2373 73.9836 12.2373 73.9836C9.40738 73.8471 7.22434 73.4833 5.53652 73.0032C0.346745 71.5276 -0.239442 64.3873 4.6724 62.1588C9.4377 60.001 15.7342 61.4109 15.7342 61.4109C21.3737 54.4878 28.3473 49.1969 35.8212 45.1593C63.2911 30.3126 97.5578 32.3491 97.5578 32.3491C99.8167 27.9982 107.392 27.9982 109.807 29.9336C112.223 31.869 106.421 34.2037 106.421 34.2037C115.553 34.3149 123.78 39.9898 130.106 46.266C138.02 54.1189 142.957 62.9117 142.957 62.9117C147.621 64.6399 149.668 67.3334 150.557 69.4861C151.437 71.5933 150.764 74.0695 148.925 75.4339Z" fill="#B75DFC" fill-opacity="0.31"/>
<g opacity="0.3">
<path opacity="0.3" d="M130.105 46.261C129.256 50.248 124.633 54.7253 110.165 57.3429C89.1329 61.1531 84.3171 69.2435 83.362 73.9229C82.7657 76.8438 81.0173 79.4109 78.5816 81.134C58.0701 95.6422 53.3806 79.0622 51.0459 75.6764C48.5395 72.0532 41.5861 74.2514 41.5861 74.2514C21.9892 80.376 22.5249 66.3328 22.5249 66.3328L28.2958 63.6293C35.234 60.3749 38.5136 52.3351 35.8202 45.1593C63.2902 30.3126 97.5568 32.3491 97.5568 32.3491C99.8157 27.9982 107.391 27.9982 109.806 29.9336C112.222 31.869 106.42 34.2037 106.42 34.2037C115.552 34.3098 123.779 39.9847 130.105 46.261Z" fill="#000072"/>
</g>
<g opacity="0.5">
<path opacity="0.5" d="M83.293 75.5046C83.293 75.5046 91.0549 64.6753 100.783 61.7646C110.697 58.7932 115.397 60.7185 115.397 60.7185C115.397 60.7185 113.8 58.9044 112.148 58.7023C112.148 58.7023 119.338 53.1385 126.883 55.0335C126.883 55.0335 120.288 49.0302 110.455 57.9746C110.455 57.9746 102.93 56.6607 97.1644 60.1829C91.3985 63.7051 84.7433 66.7623 83.4547 75.8685" fill="white"/>
</g>
<g opacity="0.3">
<path opacity="0.3" d="M105.141 30.6361C106.909 30.6563 108.643 30.8988 110.33 31.3183C110.487 30.8584 110.376 30.3834 109.81 29.9286C109.35 29.5597 108.703 29.2616 107.94 29.0493C106.808 29.964 105.141 30.6361 105.141 30.6361Z" fill="#000072"/>
</g>
<g opacity="0.3">
<path opacity="0.3" d="M150.557 69.4811C150.057 68.2784 149.203 66.909 147.727 65.6305C147.955 67.3284 147.262 69.0769 145.842 70.128C140.769 73.8876 133.148 70.1937 133.148 70.1937C108.003 88.5726 75.707 97.1027 66.3533 99.2958C64.7362 99.6748 63.3668 100.741 62.5987 102.212C60.36 106.502 54.8923 114.997 47.7166 112.606C44.4875 111.53 42.9866 109.413 42.4207 107.088C42.264 106.441 41.3443 106.451 41.1826 107.093C40.1972 111.085 39.7828 117.564 46.4583 119.792C56.3729 123.097 67.3336 105.527 67.3336 105.527C67.3336 105.527 104.627 98.1942 135.665 75.5047C135.665 75.5047 143.624 79.3604 148.92 75.434C150.764 74.0696 151.436 71.5985 150.557 69.4811Z" fill="#000072"/>
</g>
<g opacity="0.3">
<path opacity="0.3" d="M41.8373 96.2436C25.1815 86.5664 17.7935 74.6911 15.3578 69.9662C14.6706 68.6321 13.2657 67.8337 11.77 67.9196C10.5117 67.9954 9.53133 68.0864 8.52066 67.7983C5.80196 67.0252 4.40219 64.6249 4.46788 62.2599C-0.221619 64.5945 0.420156 71.5479 5.53413 73.0033C7.22195 73.4834 9.41004 73.8421 12.2349 73.9836C12.2349 73.9836 18.3949 90.6344 42.1506 103.738C42.2466 102.02 42.6357 100.402 42.9996 99.22C43.3533 98.0729 42.8733 96.8449 41.8373 96.2436Z" fill="#000072"/>
</g>
<path d="M49.0466 121C48.1016 121 47.1567 120.858 46.2117 120.545C43.5385 119.656 41.6788 118.044 40.6783 115.755C38.7934 111.449 40.5418 106.047 41.2695 104.157C29.192 97.4008 21.7889 89.745 17.6805 84.4693C13.9714 79.704 12.2381 76.0404 11.6923 74.7568C9.23134 74.6103 7.09378 74.2818 5.32006 73.7765C2.61147 73.0084 0.726572 70.6939 0.519386 67.8893C0.312199 65.0746 1.77767 62.6035 4.34476 61.4362C8.56935 59.521 13.8046 60.2487 15.4166 60.5367C21.4756 53.2296 29.5104 47.1605 39.3038 42.4963C47.2476 38.7164 56.3588 35.841 66.3897 33.9612C81.6457 31.096 94.4711 31.4194 97.1089 31.5255C98.1651 29.863 100.04 28.6754 102.46 28.165C105.401 27.5435 108.701 28.0235 110.303 29.3071C111.152 29.9893 111.243 30.722 111.172 31.2223C111.036 32.1471 110.177 32.9708 109.242 33.6075C117.034 34.6535 125.185 39.6159 132.983 48.1005C138.839 54.4778 142.72 60.9107 143.504 62.2549C148.34 64.1246 150.406 67.0353 151.291 69.1729C152.317 71.649 151.538 74.489 149.396 76.0757C144.449 79.7394 137.576 77.1976 135.762 76.4194C119.748 88.042 102.132 95.526 90.1252 99.7708C78.4065 103.915 69.6187 105.855 67.8248 106.234C66.425 108.402 57.895 121 49.0466 121ZM11.091 61.7546C9.17575 61.7546 6.94218 62.0022 5.0017 62.8815C2.67716 63.9326 1.98485 66.0954 2.10613 67.763C2.23247 69.4609 3.2583 71.5227 5.75464 72.2352C7.53342 72.7405 9.72657 73.0589 12.2785 73.1852C12.5969 73.2004 12.8748 73.4076 12.986 73.7057C13.0011 73.7461 14.5677 77.8848 18.9893 83.5496C23.0724 88.7798 30.4907 96.4154 42.6541 103.101C43.018 103.303 43.1696 103.748 42.9978 104.127C42.9674 104.193 40.1477 110.575 42.1387 115.113C42.9523 116.967 44.4935 118.286 46.717 119.024C55.9242 122.091 66.5564 105.264 66.6625 105.092C66.7788 104.905 66.9708 104.774 67.183 104.733C67.274 104.713 76.6227 102.853 89.6249 98.2498C101.611 94.01 119.248 86.5058 135.196 74.8528C135.433 74.681 135.747 74.6507 136.015 74.777C136.09 74.8124 143.61 78.3699 148.451 74.7871C150.002 73.635 150.568 71.5783 149.825 69.7793C149.047 67.8994 147.177 65.3071 142.685 63.6445C142.508 63.5788 142.362 63.4525 142.266 63.2857C142.225 63.215 138.223 56.1454 131.79 49.1515C125.913 42.7641 116.736 35.1184 106.417 34.9971C106.038 34.9921 105.715 34.7192 105.644 34.3453C105.573 33.9713 105.775 33.6024 106.129 33.4609C107.726 32.8141 109.5 31.667 109.601 30.9898C109.606 30.9444 109.626 30.8029 109.313 30.5502C108.241 29.6911 105.508 29.1504 102.794 29.7265C101.546 29.9893 99.297 30.7321 98.2661 32.713C98.1196 32.991 97.8265 33.1628 97.5132 33.1426C97.3767 33.1325 83.5205 32.3644 66.6474 35.5378C51.1336 38.4536 29.8186 45.3969 16.3515 61.9163C16.1595 62.1487 15.8563 62.2549 15.5581 62.1892C15.5227 62.1791 13.5823 61.7546 11.091 61.7546Z" fill="#000072"/>
<path d="M110.605 57.1914C110.893 57.2521 111.125 57.3127 111.373 57.3986C111.616 57.4795 111.853 57.5704 112.091 57.6715C112.56 57.8736 113.01 58.1212 113.44 58.3992C113.657 58.5356 113.859 58.6923 114.061 58.854C114.263 59.0106 114.455 59.1824 114.632 59.3694C114.986 59.7434 115.279 60.1881 115.441 60.6782C115.451 60.7136 115.436 60.749 115.4 60.7591C115.385 60.7641 115.365 60.7641 115.35 60.754H115.345C114.885 60.5165 114.496 60.2841 114.082 60.0769C113.672 59.8697 113.278 59.6625 112.849 59.5109C112.429 59.3492 112 59.2077 111.57 59.0814C111.353 59.0207 111.135 58.9601 110.923 58.9045C110.711 58.8489 110.479 58.7984 110.297 58.758L110.266 58.7529C109.837 58.6569 109.564 58.2324 109.66 57.8029C109.756 57.3733 110.175 57.1055 110.605 57.1914Z" fill="#000072"/>
<path d="M121.381 52.3958C121.674 52.4009 121.921 52.4261 122.184 52.4666C122.442 52.507 122.7 52.5525 122.952 52.6182C123.463 52.7394 123.958 52.9062 124.443 53.1134C124.923 53.3307 125.388 53.5833 125.813 53.8966C126.232 54.215 126.616 54.589 126.899 55.0185C126.909 55.0337 126.904 55.0488 126.889 55.0589C126.879 55.064 126.869 55.064 126.859 55.0589C126.394 54.8416 125.944 54.6749 125.489 54.5384C125.024 54.4171 124.569 54.3211 124.105 54.2504C123.64 54.1796 123.175 54.1291 122.71 54.0887C122.477 54.0685 122.245 54.0483 122.012 54.0381L121.34 53.9927H121.315C120.875 53.9623 120.542 53.5833 120.572 53.1437C120.603 52.7192 120.961 52.3908 121.381 52.3958Z" fill="#000072"/>
<path d="M86.2165 70.4362C85.9891 70.8304 85.7263 71.2498 85.4787 71.6591C85.2311 72.0735 84.9784 72.4828 84.7409 72.9022C84.4984 73.3216 84.2811 73.7461 84.0587 74.1757C83.8313 74.6052 83.5989 75.0297 83.3058 75.4996C83.3007 75.5097 83.2856 75.5148 83.2755 75.5097C83.2704 75.5047 83.2654 75.5047 83.2654 75.4996C83.0885 74.9741 83.0784 74.4233 83.139 73.8977C83.1744 73.635 83.2249 73.3772 83.2957 73.1246C83.3563 72.8668 83.4321 72.6192 83.513 72.3666C83.6797 71.8713 83.8718 71.3862 84.0992 70.9163C84.3266 70.4463 84.5691 70.0016 84.8824 69.5519C85.1351 69.1931 85.6303 69.1021 85.9942 69.3548C86.3378 69.5923 86.4338 70.0521 86.2266 70.4059L86.2165 70.4362Z" fill="#000072"/>
<path d="M11.4827 74.2464C11.3867 73.8877 11.321 73.5339 11.2553 73.1751C11.1997 72.8163 11.1442 72.4525 11.1138 72.0887C11.038 71.361 10.9875 70.6232 11.0431 69.8905C11.0431 69.8551 11.0734 69.8298 11.1088 69.8349C11.1341 69.8349 11.1543 69.85 11.1593 69.8702C11.4474 70.5373 11.7607 71.174 12.074 71.8107L12.549 72.7658C12.7006 73.0842 12.8522 73.4076 12.9886 73.7209C13.1604 74.1252 12.9735 74.5951 12.5692 74.772C12.1649 74.9438 11.695 74.7568 11.5181 74.3526C11.508 74.3172 11.4928 74.2818 11.4827 74.2464Z" fill="#000072"/>
<path d="M15.9442 60.6428C16.0503 60.6782 16.1059 60.7034 16.1817 60.7337C16.2525 60.7641 16.3182 60.7994 16.3839 60.8348C16.5153 60.9056 16.6365 60.9864 16.7578 61.0673C16.9953 61.234 17.2177 61.4261 17.4147 61.6383C17.6118 61.8505 17.7937 62.0779 17.9302 62.3356C18.0717 62.5833 18.1626 62.8662 18.2031 63.1492C18.2081 63.1897 18.1778 63.2301 18.1374 63.2351C18.1222 63.2351 18.102 63.2351 18.0919 63.225H18.0868C17.8342 63.0936 17.6169 62.9673 17.3945 62.8612C17.1722 62.7551 16.965 62.649 16.7477 62.5681C16.5304 62.4822 16.3182 62.4064 16.1059 62.3407C15.9998 62.3053 15.8937 62.2801 15.7876 62.2497L15.5096 62.179L15.4945 62.1739C15.07 62.0628 14.8123 61.6282 14.9184 61.2037C15.0296 60.7792 15.4642 60.5215 15.8886 60.6276C15.9089 60.6276 15.9291 60.6377 15.9442 60.6428Z" fill="#000072"/>
<path d="M67.5131 106.3C67.1594 106.35 66.8309 106.37 66.4923 106.381C66.1538 106.401 65.8152 106.396 65.4817 106.391C65.1431 106.391 64.8045 106.37 64.471 106.345C64.1324 106.31 63.7939 106.274 63.4603 106.204C63.4098 106.194 63.3744 106.143 63.3845 106.087C63.3896 106.057 63.4149 106.027 63.4452 106.017C63.7635 105.88 64.0768 105.774 64.3902 105.658C64.7035 105.547 65.0168 105.441 65.3301 105.34C65.6434 105.239 65.9516 105.127 66.2599 105.031C66.5681 104.93 66.8815 104.829 67.1745 104.738C67.594 104.607 68.0437 104.844 68.1751 105.264C68.3065 105.683 68.069 106.133 67.6496 106.264C67.599 106.285 67.5535 106.295 67.5131 106.3Z" fill="#000072"/>
<path d="M146.649 53.7099C146.765 60.729 144.557 68.2181 140.55 74.2871C139.968 75.1715 139.347 76.0204 138.69 76.834C129.149 88.679 118.547 84.1715 118.163 77.1069C118.027 74.6257 119.154 71.8262 122.034 69.3096C123.985 67.6066 125.642 65.934 127.057 64.3321C132.171 58.5409 134.076 53.6695 134.683 51.7442C134.86 51.1732 134.925 50.8599 134.925 50.8599C135.511 48.0199 134.673 45.5943 133.369 43.6639C132.348 42.1479 131.039 40.9351 129.907 40.0558C129.21 39.5151 128.578 39.0957 128.123 38.8178C127.664 38.5348 127.376 38.3933 127.376 38.3933L123.303 31.2074C126.451 31.1872 129.245 31.5713 131.711 32.2888C137.386 33.9413 141.308 37.3725 143.703 41.7386C145.638 45.2658 146.583 49.3994 146.649 53.7099Z" fill="white"/>
<path d="M146.649 53.7098C146.765 60.7289 144.557 68.218 140.55 74.287C137.664 66.515 130.863 64.716 127.062 64.3319C132.176 58.5408 134.082 53.6694 134.688 51.7441C139.494 51.0417 143.486 52.0725 146.649 53.7098Z" fill="#00160A"/>
<path d="M143.703 41.7436C139.403 41.3444 135.658 42.6077 133.374 43.6689C131.727 41.2231 129.327 39.5605 128.129 38.8227C128.872 36.1899 130.216 34.0221 131.717 32.2938C137.387 33.9463 141.308 37.3724 143.703 41.7436Z" fill="#00160A"/>
<g opacity="0.3">
<path opacity="0.3" d="M146.65 53.7099C146.766 60.729 144.558 68.2181 140.55 74.2871C139.969 75.1715 139.348 76.0204 138.691 76.834C129.15 88.679 118.548 84.1715 118.164 77.1069C121.05 78.9918 126.942 81.0687 134.39 74.2871C145.083 64.5494 146.064 43.5022 134.39 37.9132C134.39 37.9132 131.758 36.6448 129.908 40.0558C129.211 39.5151 128.579 39.0957 128.124 38.8178C127.664 38.5348 127.376 38.3933 127.376 38.3933L123.303 31.2074C126.452 31.1872 129.246 31.5713 131.712 32.2888C137.387 33.9413 141.308 37.3725 143.704 41.7386C145.639 45.2658 146.584 49.3994 146.65 53.7099Z" fill="#000072"/>
</g>
<g opacity="0.5">
<path opacity="0.5" d="M119.925 78.1074C119.788 75.6262 120.915 72.8267 123.795 70.3101C125.746 68.6071 127.404 66.9345 128.819 65.3326C133.932 59.5414 135.838 54.67 136.444 52.7447C136.621 52.1737 136.687 51.8604 136.687 51.8604C137.273 49.0204 136.434 46.5948 135.13 44.6644C134.109 43.1484 132.801 41.9356 131.669 41.0563C130.971 40.5156 130.34 40.0962 129.885 39.8183C129.425 39.5353 129.137 39.3938 129.137 39.3938L125.064 32.213C128.212 32.1928 131.007 32.5768 133.473 33.2944C134.832 33.6886 136.085 34.1888 137.247 34.7801C135.63 33.7442 133.791 32.8952 131.719 32.2938C129.253 31.5763 126.459 31.1922 123.31 31.2124L127.383 38.3983C127.383 38.3983 127.671 38.5448 128.131 38.8228C128.586 39.1007 129.218 39.5151 129.915 40.0608C131.047 40.9401 132.356 42.1529 133.377 43.6689C134.68 45.6043 135.519 48.0249 134.933 50.8649C134.933 50.8649 134.867 51.1782 134.69 51.7492C134.084 53.6745 132.179 58.5459 127.065 64.3371C125.65 65.939 123.988 67.6116 122.042 69.3146C119.162 71.8312 118.035 74.6257 118.171 77.1119C118.323 79.9418 120.117 82.3573 122.82 83.4791C121.117 82.1855 120.041 80.2702 119.925 78.1074Z" fill="white"/>
</g>
<path d="M126.339 84.9546C125.596 84.9546 124.864 84.8788 124.136 84.7222C120.892 84.0197 118.39 81.7154 117.612 78.7087C116.728 75.2926 118.153 71.6492 121.513 68.7132C132.216 59.3595 134.137 50.7839 134.152 50.698C135.617 43.588 127.102 39.1511 127.016 39.1057C126.88 39.0349 126.764 38.9237 126.683 38.7873L122.605 31.6015C122.463 31.3538 122.468 31.0557 122.61 30.8081C122.751 30.5655 123.014 30.4139 123.297 30.4089C128.644 30.3836 133.267 31.4852 137.032 33.7036C140.484 35.7401 143.142 38.661 144.936 42.3802C149.827 52.5172 147.462 67.2123 139.316 77.3291C135.339 82.2713 130.715 84.9546 126.339 84.9546ZM127.961 37.8019C129.427 38.6054 137.305 43.3151 135.713 51.0265C135.637 51.3954 133.702 60.1781 122.564 69.9159C119.674 72.4425 118.431 75.4998 119.158 78.3095C119.785 80.73 121.822 82.5896 124.475 83.1657C128.861 84.1158 133.818 81.6245 138.073 76.3387C145.855 66.6767 148.134 52.6941 143.5 43.0826C141.135 38.186 135.961 32.3999 124.687 32.031L127.961 37.8019Z" fill="#000072"/>
<path d="M126.336 43.5173C126.098 44.3258 125.836 45.099 125.563 45.8216C123.834 50.405 121.611 53.1944 121.611 53.1944C121.015 53.1995 120.444 53.2298 119.903 53.2854C113.404 53.9473 110.706 57.9749 110.706 57.9749C105.622 57.5605 101.337 58.4954 97.835 59.9962C89.7295 63.4678 85.8081 69.9968 85.8081 69.9968C84.6963 71.7957 82.4122 74.0546 79.4965 76.2124C72.4673 81.4122 61.7845 86.0361 55.0989 82.3168C51.1573 80.1186 50.7834 77.2635 51.7587 74.6256C53.2242 70.6537 57.7418 67.1669 57.7418 67.1669L58.5251 62.1742L62.2393 38.57C63.8918 28.049 69.6475 18.5538 78.3595 12.4241C81.063 10.524 83.8019 9.10907 86.5206 8.12367C88.3651 7.45663 90.1994 6.97656 92.0136 6.67842C97.7794 5.71828 103.348 6.51671 108.265 8.42182C108.452 8.49257 108.634 8.56837 108.816 8.64417C110.009 9.12929 111.156 9.6801 112.257 10.2865C118.19 13.5409 122.783 18.3921 125.037 23.3696C125.098 23.501 125.153 23.6374 125.214 23.7688C125.633 24.7492 125.987 25.7244 126.285 26.6795C128.286 33.1225 127.675 38.9642 126.336 43.5173Z" fill="white"/>
<path d="M79.4899 76.2072C72.4607 81.4071 61.778 86.0309 55.0924 82.3116C45.2182 76.8136 57.7302 67.1617 57.7302 67.1617L58.5135 62.169C65.2951 61.4413 79.2574 61.7142 79.4899 76.2072Z" fill="white"/>
<path d="M119.902 53.2802C113.403 53.9422 110.705 57.9697 110.705 57.9697C105.621 57.5553 101.336 58.4902 97.8337 59.991C97.8337 59.991 95.6709 51.7339 102.422 48.7676C102.422 48.7676 116.698 43.977 119.902 53.2802Z" fill="white"/>
<path d="M97.6318 19.7412L97.6217 20.5548C97.6318 21.0955 97.556 21.6362 97.5105 22.1668C97.4449 22.7025 97.3438 23.228 97.2326 23.7536C97.1972 23.9254 97.0254 24.0416 96.8536 24.0012C96.7374 23.981 96.6464 23.8951 96.6161 23.7889L96.611 23.7687C96.4443 23.2634 96.318 22.7682 96.1714 22.278L95.944 21.5503C95.9036 21.429 95.8733 21.3078 95.8379 21.1915L95.7166 20.8327L95.474 20.1253C95.3982 19.8928 95.2972 19.6654 95.2113 19.433C95.0496 18.9681 94.8474 18.5234 94.6655 18.0787C94.2714 17.1943 93.8671 16.3302 93.3921 15.5116C92.9322 14.6879 92.4168 13.8996 91.8559 13.1618C90.734 11.6761 89.4353 10.3471 87.9901 9.21007C87.515 8.82601 87.0249 8.46217 86.5195 8.1236C88.364 7.45656 90.1984 6.97649 92.0125 6.67834C92.4774 7.16347 92.9221 7.6688 93.3314 8.19435C94.0288 9.08373 94.6554 10.0338 95.2012 11.0192C96.2927 12.9849 97.0557 15.1275 97.4095 17.3005C97.4853 17.8462 97.5661 18.3869 97.5914 18.9327C97.6066 19.2005 97.6268 19.4683 97.6318 19.7412Z" fill="#00160A"/>
<path d="M112.252 10.2763C112.212 11.6407 112.03 13.0001 111.701 14.3038C111.555 14.8344 111.413 15.365 111.221 15.8754C111.13 16.1331 111.039 16.3908 110.938 16.6385L110.61 17.3813C110.403 17.8816 110.12 18.3465 109.872 18.8164C109.599 19.2814 109.296 19.726 108.993 20.1606C108.892 20.3072 108.69 20.3426 108.543 20.2364C108.447 20.1707 108.397 20.0545 108.407 19.9433V19.9231C108.452 19.3976 108.533 18.8922 108.594 18.3819L108.669 17.6239C108.68 17.4975 108.7 17.3762 108.715 17.2499L108.74 16.876L108.796 16.1331C108.816 15.8855 108.816 15.6379 108.831 15.3903C108.861 14.9001 108.856 14.4099 108.861 13.9299C108.851 12.9596 108.821 12.0096 108.705 11.0697C108.614 10.1702 108.462 9.2808 108.25 8.41162C109.645 8.95233 110.979 9.57894 112.252 10.2763Z" fill="#00160A"/>
<path d="M126.283 26.6694C125.869 27.0282 125.464 27.387 125.02 27.7003C124.797 27.862 124.58 28.0287 124.358 28.1753L123.665 28.6099C123.221 28.908 122.72 29.1405 122.25 29.3881C121.765 29.6256 121.265 29.8227 120.77 30.0147C120.603 30.0804 120.421 29.9995 120.355 29.8328C120.315 29.7216 120.34 29.6003 120.406 29.5144L120.421 29.4993C120.755 29.0899 121.103 28.7109 121.437 28.3218L121.927 27.7356C122.008 27.6396 122.094 27.5487 122.175 27.4527L122.407 27.1545L122.872 26.5683C123.024 26.3763 123.165 26.1691 123.312 25.972C123.615 25.588 123.878 25.1736 124.156 24.7744C124.464 24.3044 124.762 23.8345 125.04 23.3645C125.1 23.4959 125.156 23.6323 125.217 23.7637C125.631 24.739 125.99 25.7143 126.283 26.6694Z" fill="#00160A"/>
<path d="M100.346 39.8434C100.346 39.8434 103.494 38.6256 106.885 39.6211C107.274 39.7373 107.542 39.237 107.239 38.9793C106.102 38.004 103.934 36.8468 100.285 37.241L100.346 39.8434Z" fill="#00160A"/>
<path d="M103.883 28.2713C103.883 28.2713 107.238 28.6503 109.78 31.1063C110.068 31.3842 110.538 31.0709 110.392 30.6969C109.831 29.3073 108.451 27.2758 105.035 25.9316L103.883 28.2713Z" fill="#00160A"/>
<g opacity="0.3">
<path opacity="0.3" d="M126.336 43.5173C126.098 44.3259 125.836 45.099 125.563 45.8217C123.834 50.405 121.611 53.1945 121.611 53.1945C121.015 53.1995 120.444 53.2299 119.903 53.2854C113.404 53.9474 110.706 57.9749 110.706 57.9749C105.622 57.5606 101.337 58.4954 97.835 59.9963C89.7295 63.4679 85.8081 69.9968 85.8081 69.9968C84.6963 71.7958 82.4122 74.0547 79.4965 76.2124C72.4673 81.4123 61.7845 86.0361 55.0989 82.3169C51.1573 80.1187 50.7834 77.2635 51.7587 74.6257L52.0265 74.4488C52.0265 74.4488 59.1719 86.6628 78.4858 73.2108C78.8901 72.9328 79.2236 72.5639 79.456 72.1344C80.5829 70.0575 84.7065 63.2405 92.0944 59.2888C93.095 58.7532 93.7014 57.697 93.6155 56.5701C93.4386 54.3315 93.7014 50.5465 96.8951 47.9895C97.7441 47.3124 98.1382 46.2209 97.9108 45.1597C97.0063 40.9806 95.5863 30.7728 101.645 25.295C109.897 17.8312 116.229 25.5173 116.229 25.5173C116.229 25.5173 106.572 20.7773 102.11 30.1917C102.11 30.1917 98.5779 35.2703 101.458 46.1451C101.458 46.1451 105.385 45.1243 108.29 47.6257C108.29 47.6257 99.9524 47.2517 97.8654 54.1243C97.8654 54.1243 102.757 57.0097 108.705 54.3567C114.653 51.7037 113.455 50.5516 117.801 50.0008C121.601 49.5156 130.424 24.0569 108.816 8.64929C110.009 9.13441 111.156 9.68523 112.257 10.2916C118.19 13.546 122.783 18.3972 125.037 23.3747C125.098 23.5061 125.153 23.6425 125.214 23.7739C125.633 24.7543 125.987 25.7296 126.285 26.6847C128.286 33.1226 127.675 38.9643 126.336 43.5173Z" fill="#000072"/>
</g>
<g opacity="0.5">
<path opacity="0.5" d="M51.7512 76.6267C53.2166 72.6547 57.7343 69.1679 57.7343 69.1679L58.5176 64.1752L62.2318 40.5711C63.8842 30.05 69.64 20.5548 78.3519 14.4251C81.0555 12.5251 83.7944 11.1101 86.5131 10.1247C88.3575 9.45768 90.1919 8.97761 92.0061 8.67946C97.7719 7.71933 103.341 8.51776 108.258 10.4229C108.445 10.4936 108.626 10.5694 108.808 10.6452C110.001 11.1303 111.148 11.6811 112.25 12.2875C118.182 15.5419 122.776 20.3931 125.03 25.3706C125.09 25.502 125.146 25.6385 125.206 25.7699C125.626 26.7502 125.98 27.7255 126.278 28.6806C127.081 31.2729 127.465 33.7642 127.551 36.114C127.652 33.1932 127.319 30.0147 126.278 26.6744C125.98 25.7193 125.626 24.744 125.206 23.7637C125.151 23.6323 125.09 23.4959 125.03 23.3645C122.776 18.3869 118.182 13.5357 112.25 10.2814C111.148 9.67497 109.996 9.12416 108.808 8.63904C108.626 8.56324 108.445 8.49249 108.258 8.41669C103.341 6.51158 97.777 5.71316 92.0061 6.67329C90.1919 6.97144 88.3575 7.44645 86.5131 8.11854C83.7944 9.10395 81.0555 10.5189 78.3519 12.4189C69.64 18.5486 63.8893 28.0439 62.2318 38.5649L58.5176 62.1691L57.7343 67.1618C57.7343 67.1618 53.2166 70.6486 51.7512 74.6205C51.3519 75.712 51.1801 76.8389 51.3924 77.9405C51.4682 77.5009 51.5894 77.0612 51.7512 76.6267Z" fill="white"/>
</g>
<g opacity="0.5">
<path opacity="0.5" d="M116.225 25.5122C116.225 25.5122 107.573 23.031 103.288 32.7385C103.288 32.7385 100.423 38.6913 103.829 48.2927L102.424 48.7677C102.424 48.7677 98.2398 40.0254 101.171 32.2887C101.166 32.2887 104.45 20.2365 116.225 25.5122Z" fill="white"/>
</g>
<path d="M60.7839 84.4493C58.5857 84.4493 56.5138 84.0147 54.7098 83.0091C52.1022 81.5537 50.6924 79.6739 50.5205 77.415C50.1618 72.6043 55.7103 67.7783 56.9939 66.7323L61.4459 38.4386C63.1438 27.6447 69.1421 17.9221 77.8945 11.7671C88.744 4.13657 98.9669 4.7935 105.627 6.6885C114.728 9.27581 122.702 15.8553 125.942 23.4454C129.62 32.0613 128.418 39.8232 126.765 44.8159C124.976 50.218 122.344 53.5532 122.232 53.6896C122.081 53.8766 121.853 53.9878 121.616 53.9878C114.43 54.0383 111.484 58.2376 111.363 58.4195C111.201 58.657 110.923 58.7884 110.635 58.7682C103.879 58.2174 97.7642 60.0012 92.4734 64.0641C88.5014 67.1113 86.5054 70.3757 86.4852 70.4061C83.2763 75.6161 70.6985 84.4493 60.7839 84.4493ZM96.89 7.05234C91.5688 7.05234 85.3178 8.50265 78.8192 13.0759C70.4155 18.9833 64.6598 28.3218 63.0276 38.6913L58.525 67.2881C58.4947 67.4903 58.3835 67.6722 58.2269 67.7935C58.1612 67.844 51.7788 72.8317 52.1174 77.2988C52.2437 78.9866 53.3807 80.442 55.488 81.6144C57.0646 82.4936 58.8889 82.8726 60.8445 82.8777C70.0618 82.8777 82.1696 74.383 85.1309 69.5773C85.2117 69.4409 87.2634 66.0703 91.4526 62.8412C95.2578 59.9052 101.605 56.565 110.332 57.1511C111.287 55.9838 114.627 52.5829 121.207 52.4061C121.864 51.4965 123.865 48.5251 125.27 44.2601C127.528 37.3976 127.261 30.606 124.476 24.077C121.419 16.9114 113.849 10.6907 105.193 8.22977C102.843 7.55768 100.028 7.05234 96.89 7.05234Z" fill="#000072"/>
<path d="M61.0931 83.7772C61.0224 83.4689 60.987 83.2213 60.9668 82.9434C60.9415 82.6705 60.9415 82.4027 60.9516 82.1298C60.9718 81.584 61.0577 81.0383 61.2144 80.5026C61.3862 79.972 61.6136 79.4414 61.9673 78.9866C62.3261 78.5369 62.8214 78.1932 63.3621 78.0568C63.4379 78.0366 63.5137 78.0821 63.5339 78.1579C63.544 78.1932 63.5389 78.2236 63.5238 78.2539L63.5187 78.264C63.2812 78.7441 63.0942 79.1382 62.9527 79.5526C62.8163 79.967 62.7001 80.3763 62.6495 80.8159C62.6243 81.0332 62.6041 81.2505 62.599 81.4779C62.5839 81.7003 62.5839 81.9226 62.5889 82.15C62.5889 82.3724 62.6041 82.5998 62.6142 82.8221C62.6293 83.0394 62.6495 83.287 62.6597 83.4689L62.6647 83.5296C62.7001 83.9692 62.3716 84.3533 61.937 84.3886C61.5328 84.419 61.179 84.1562 61.0931 83.7772Z" fill="#000072"/>
<path d="M52.3272 81.0686C52.2413 80.7604 52.2009 80.5127 52.1756 80.2348C52.1605 80.0984 52.1504 79.9619 52.1504 79.8255C52.1453 79.689 52.1403 79.5526 52.1504 79.4162C52.1756 78.8654 52.2615 78.3095 52.4485 77.7738C52.6405 77.2382 52.9336 76.7177 53.348 76.3084C53.7674 75.899 54.3081 75.6464 54.8438 75.5756C54.9145 75.5655 54.9802 75.6161 54.9903 75.6868C54.9954 75.7222 54.9853 75.7575 54.9651 75.7828L54.955 75.7929C54.6366 76.2124 54.3789 76.561 54.2121 76.9552C54.0504 77.3494 53.9291 77.7385 53.8634 78.1528C53.7978 78.5672 53.7826 79.0018 53.7927 79.4364C53.7927 79.6537 53.8079 79.876 53.823 80.0933L53.8736 80.725L53.8786 80.7957C53.914 81.2354 53.5906 81.6194 53.1509 81.6548C52.777 81.6801 52.4283 81.4274 52.3272 81.0686Z" fill="#000072"/>
<path d="M97.0646 60.2237C96.9837 59.9862 96.9332 59.7942 96.8726 59.5769C96.817 59.3697 96.7665 59.1574 96.726 58.9452C96.6401 58.5258 96.5795 58.1013 96.5391 57.6718C96.4582 56.8127 96.4633 55.9435 96.5795 55.0693C96.7917 53.336 97.5093 51.5623 98.7575 50.2383C99.3689 49.5712 100.086 49.0103 100.865 48.5808C101.057 48.4747 101.259 48.3837 101.456 48.2826C101.557 48.2372 101.653 48.1866 101.754 48.1412L102.057 48.0199C102.259 47.9441 102.462 47.8582 102.664 47.7874C102.871 47.7268 103.073 47.6611 103.28 47.6055C104.938 47.1659 106.651 47.1507 108.278 47.5701C108.323 47.5802 108.349 47.6257 108.339 47.6712C108.334 47.6965 108.313 47.7167 108.288 47.7268H108.283C107.884 47.8733 107.495 47.9794 107.106 48.0805C106.716 48.1967 106.337 48.3079 105.958 48.4039C105.585 48.5202 105.211 48.6313 104.842 48.7374C104.483 48.8739 104.109 48.9598 103.76 49.1063C103.583 49.1771 103.407 49.2377 103.235 49.3034C103.063 49.3742 102.896 49.4601 102.729 49.5359L102.477 49.6521C102.396 49.6925 102.315 49.7431 102.239 49.7885C102.083 49.8795 101.916 49.9654 101.764 50.0614L101.32 50.3697C101.168 50.4707 101.042 50.5971 100.9 50.7082C100.759 50.8144 100.632 50.9407 100.506 51.067L100.314 51.254C100.253 51.3146 100.198 51.3904 100.142 51.4561C99.6822 51.9867 99.3133 52.5931 99.0304 53.245C98.7474 53.8969 98.5705 54.5993 98.4543 55.3219C98.3482 56.0446 98.3128 56.7925 98.338 57.5404C98.3583 57.9143 98.3785 58.2933 98.424 58.6622L98.4998 59.2181C98.525 59.3949 98.5604 59.5971 98.5958 59.7436L98.6059 59.784C98.6968 60.2136 98.424 60.6381 97.9944 60.729C97.5902 60.8351 97.1909 60.6027 97.0646 60.2237Z" fill="#000072"/>
<path d="M101.699 49.1112C101.527 48.7271 101.39 48.3785 101.254 48.0096C101.118 47.6457 100.996 47.2768 100.875 46.913C100.754 46.5441 100.653 46.1752 100.541 45.8013L100.253 44.6794C99.8946 43.1786 99.6672 41.6424 99.5662 40.096C99.5005 39.3229 99.5207 38.5447 99.5156 37.7715C99.5763 36.9933 99.5914 36.2151 99.7228 35.447L99.8037 34.8658L99.8441 34.5778L99.9098 34.2897L100.173 33.1426C100.208 32.9506 100.274 32.7636 100.334 32.5767L100.516 32.0157C100.643 31.6418 100.749 31.2678 100.905 30.904C101.188 30.1713 101.517 29.4436 101.901 28.7412C102.28 28.0337 102.74 27.3616 103.285 26.7502C103.826 26.1387 104.463 25.6031 105.155 25.1634C105.847 24.7187 106.59 24.3599 107.363 24.1022C108.137 23.8495 108.94 23.6929 109.739 23.6323C110.537 23.5817 111.335 23.612 112.119 23.7384C113.675 23.986 115.161 24.5823 116.384 25.4969C116.424 25.5273 116.434 25.5828 116.404 25.6233C116.379 25.6586 116.333 25.6687 116.293 25.6536C114.923 25.0522 113.468 24.749 112.028 24.7389C111.31 24.7288 110.598 24.7895 109.91 24.931C109.223 25.0623 108.551 25.2746 107.924 25.5576C107.298 25.8406 106.701 26.1892 106.166 26.6087C105.63 27.0281 105.14 27.5031 104.675 28.0084C103.75 29.0141 102.937 30.1864 102.386 31.5104C102.234 31.8338 102.138 32.1825 102.022 32.5211L101.85 33.0315C101.795 33.2033 101.734 33.37 101.699 33.5469L101.451 34.598L101.39 34.8608L101.35 35.1286L101.269 35.6643C101.138 36.3717 101.123 37.0994 101.062 37.822C101.062 38.5497 101.037 39.2723 101.107 40C101.198 41.4503 101.421 42.9006 101.759 44.3206L102.042 45.3818C102.153 45.7305 102.249 46.0842 102.366 46.4279C102.482 46.7715 102.598 47.1202 102.73 47.4587C102.856 47.7923 102.997 48.1409 103.134 48.4441L103.144 48.4694C103.326 48.8686 103.149 49.3436 102.745 49.5256C102.345 49.7075 101.87 49.5306 101.689 49.1263L101.699 49.1112Z" fill="#000072"/>
<path d="M101.668 53.8512C101.824 54.301 101.885 54.7053 101.92 55.1095C101.935 55.3066 101.94 55.5037 101.956 55.7008C101.966 55.8979 101.986 56.0899 102.006 56.2819C102.082 57.045 102.208 57.7777 102.39 58.4144L102.395 58.4346C102.522 58.8591 102.274 59.3089 101.849 59.4352C101.46 59.5514 101.051 59.3543 100.889 58.9956C100.687 58.5458 100.586 58.0758 100.536 57.621C100.49 57.1612 100.495 56.7114 100.541 56.2718C100.556 56.0495 100.596 55.8322 100.637 55.6199C100.677 55.4026 100.718 55.1904 100.783 54.9832C100.915 54.5688 101.107 54.1595 101.44 53.8058C101.491 53.7502 101.577 53.7502 101.632 53.8007C101.647 53.8108 101.657 53.831 101.668 53.8512Z" fill="#000072"/>
<path d="M109.142 52.9821C109.263 53.442 109.293 53.8513 109.299 54.2555C109.299 54.4577 109.288 54.6497 109.288 54.8468C109.283 55.0439 109.293 55.2359 109.293 55.4279C109.309 56.196 109.379 56.9338 109.516 57.5806L109.521 57.6009C109.612 58.0354 109.334 58.4599 108.899 58.5559C108.5 58.6419 108.111 58.4144 107.975 58.0456C107.808 57.5806 107.742 57.1056 107.732 56.6508C107.722 56.191 107.762 55.7412 107.843 55.3066C107.879 55.0894 107.934 54.8771 107.985 54.6649C108.04 54.4526 108.096 54.2454 108.177 54.0383C108.338 53.634 108.561 53.2398 108.925 52.9164C108.98 52.8659 109.066 52.8709 109.117 52.9265C109.127 52.9366 109.137 52.9568 109.142 52.9821Z" fill="#000072"/>
<path d="M33.2513 56.4587C33.2513 56.4587 23.0991 58.8186 22.7757 66.338C22.4523 73.8574 34.8633 78.4509 44.8588 65.5548C44.8588 65.5497 36.5562 61.79 33.2513 56.4587Z" fill="white"/>
<g opacity="0.3">
<path opacity="0.3" d="M23.1042 64.3773C22.9223 64.9888 22.806 65.6356 22.7757 66.333C22.4523 73.8523 34.8633 78.4458 44.8588 65.5497C44.8588 65.5497 44.1513 65.2313 43.075 64.6451C34.1205 73.9231 24.0946 70.598 23.1042 64.3773Z" fill="#000072"/>
</g>
<path d="M31.1916 74.4638C29.7968 74.4638 28.5082 74.2263 27.3813 73.8119C23.9602 72.5587 21.8378 69.6075 21.9793 66.2976C22.3229 58.2678 32.6318 55.7816 33.0714 55.6755C33.4049 55.5997 33.7485 55.7412 33.9305 56.0343C37.0686 61.0977 45.1085 64.7866 45.1893 64.822C45.4117 64.9231 45.5734 65.1202 45.634 65.3577C45.6946 65.5952 45.6391 65.8428 45.4925 66.0399C40.6666 72.2605 35.4263 74.4638 31.1916 74.4638ZM32.9046 57.3784C30.8884 57.9798 23.8238 60.4964 23.5762 66.3683C23.465 69.0112 25.1326 71.2903 27.9322 72.3161C31.6362 73.6704 37.8872 72.7355 43.6127 65.8327C41.3993 64.7108 35.7901 61.5929 32.9046 57.3784Z" fill="#000072"/>
<path d="M22.9466 69.8755C22.982 69.5975 23.0274 69.3752 23.0881 69.1326C23.1487 68.8951 23.2245 68.6627 23.3054 68.4302C23.4721 67.9704 23.6743 67.5206 23.9168 67.0961C24.1594 66.6666 24.4424 66.2573 24.786 65.8934C25.1347 65.5346 25.5339 65.2213 25.9938 65.0243C26.019 65.0142 26.0443 65.0243 26.0544 65.0495C26.0594 65.0596 26.0594 65.0748 26.0544 65.0849C25.8624 65.5448 25.6906 65.949 25.539 66.3684C25.3975 66.7879 25.2459 67.1921 25.1246 67.6116C25.0084 68.031 24.8972 68.4504 24.8012 68.8698L24.5182 70.1079L24.5131 70.1382C24.4171 70.5678 23.9876 70.8356 23.558 70.7396C23.1588 70.6587 22.9011 70.2747 22.9466 69.8755Z" fill="#000072"/>
<path d="M28.1901 73.5137C28.1598 73.1954 28.1649 72.9326 28.18 72.6496C28.1851 72.5081 28.1952 72.3717 28.2154 72.2302C28.2306 72.0887 28.2457 71.9522 28.271 71.8158C28.367 71.265 28.5085 70.7142 28.7308 70.1937C28.9582 69.6732 29.2463 69.1678 29.6354 68.7434C30.0346 68.329 30.5298 68.0056 31.0604 67.8641C31.0806 67.859 31.1009 67.8691 31.1059 67.8893C31.111 67.8995 31.1059 67.9146 31.1009 67.9197C30.7724 68.3593 30.5248 68.7686 30.3327 69.2083C30.1609 69.653 30.0194 70.0977 29.9285 70.5626C29.8426 71.0275 29.7971 71.5025 29.7769 71.9775C29.7617 72.215 29.7617 72.4525 29.7617 72.69C29.7617 72.9225 29.7668 73.1802 29.7769 73.3773V73.4126C29.7971 73.8523 29.4585 74.2262 29.0189 74.2464C28.5944 74.2566 28.2306 73.9331 28.1901 73.5137Z" fill="#000072"/>
<path d="M92.7476 10.1196L80.7055 27.7153C79.7757 26.2297 78.7853 24.9209 77.7695 23.7687C71.2558 16.3908 63.6758 15.4458 63.6758 15.4458C68.7544 11.3779 75.8998 8.51771 75.8998 8.51771C88.0026 4.15668 91.4237 6.59744 92.3838 8.51266C92.8032 9.37173 92.7476 10.1196 92.7476 10.1196Z" fill="white"/>
<g opacity="0.3">
<path opacity="0.3" d="M73.426 12.3128C71.6522 13.3083 71.5158 15.7693 73.143 17.0023C76.7864 19.7614 77.7668 23.7283 77.7668 23.7283L77.7617 23.7687C71.248 16.3908 63.668 15.4458 63.668 15.4458C68.7466 11.3779 75.892 8.51771 75.892 8.51771C87.9947 4.15668 91.4159 6.59744 92.376 8.51266C86.4787 5.9961 78.3429 9.55365 73.426 12.3128Z" fill="#000072"/>
</g>
<path d="M80.7062 28.5137C80.7011 28.5137 80.6961 28.5137 80.691 28.5137C80.4232 28.5087 80.1756 28.3672 80.029 28.1398C73.4445 17.6137 63.6714 16.2543 63.5754 16.2392C63.257 16.1987 62.9942 15.9713 62.9083 15.6631C62.8224 15.3548 62.9285 15.0264 63.1762 14.8242C68.2901 10.731 75.3092 7.90116 75.6023 7.77988C75.6124 7.77483 75.6175 7.77483 75.6276 7.76978C83.5967 4.89443 89.0391 4.50532 91.8033 6.61762C93.6882 8.05782 93.5467 10.0943 93.5417 10.1802C93.5316 10.3167 93.481 10.4531 93.4052 10.5643L81.3631 28.16C81.2115 28.3823 80.969 28.5137 80.7062 28.5137ZM65.5462 15.0314C68.7096 15.8804 75.4558 18.5233 80.7213 26.2802L91.9499 9.87702C91.9246 9.48791 91.7528 8.56821 90.8078 7.86579C89.504 6.8905 85.8707 5.77876 76.1834 9.26557C75.8853 9.38685 70.2053 11.7114 65.5462 15.0314Z" fill="#000072"/>
<path d="M87.7678 38.4387C87.0856 39.5302 86.3326 40.6369 85.5039 41.7536L77.7773 23.7284C77.7773 23.7284 81.1985 12.9496 89.8296 9.02317C91.0676 8.4572 92.523 9.15961 92.8818 10.4684C93.0334 11.0142 93.19 11.6509 93.3315 12.3735C93.3315 12.3786 93.3315 12.3786 93.3315 12.3786C94.3725 17.624 94.7364 27.296 87.7678 38.4387Z" fill="#FFF1E1"/>
<g opacity="0.3">
<path opacity="0.3" d="M93.3237 12.3735C93.253 12.2624 91.358 9.39712 88.1491 12.4392C86.5017 14.0007 85.6275 14.9053 85.1626 15.4156C84.9554 15.6481 85.1373 16.0119 85.4456 15.9917L86.8352 15.8957C87.568 15.8452 88.2047 16.3859 88.2754 17.1136C88.4068 18.5032 88.326 20.9339 86.9717 24.0215C86.6988 24.638 86.6584 25.3354 86.8908 25.967C87.3102 27.1141 87.7145 29.2719 86.3248 31.8036C86.0418 32.3191 85.9458 32.9154 86.052 33.4965C86.2591 34.6436 86.7392 36.6093 87.76 38.4387C87.0778 39.5302 86.3248 40.6369 85.4961 41.7536L77.7695 23.7284C77.7695 23.7284 81.1906 12.9496 89.8217 9.02317C91.0598 8.4572 92.5152 9.15961 92.874 10.4684C93.0306 11.0192 93.1822 11.656 93.3237 12.3735Z" fill="#000072"/>
</g>
<path d="M85.5005 42.552C85.4702 42.552 85.4399 42.552 85.4096 42.547C85.1266 42.5116 84.884 42.3297 84.7678 42.0669L77.0412 24.0416C76.9654 23.8648 76.9553 23.6677 77.016 23.4858C77.1625 23.031 80.6442 12.323 89.4977 8.30049C90.2961 7.93665 91.2108 7.94676 92.0092 8.32071C92.8177 8.69971 93.414 9.40718 93.6515 10.2612C94.9755 15.0518 96.8907 27.766 86.1423 42.2337C85.9856 42.4307 85.7481 42.552 85.5005 42.552ZM78.6229 23.698L85.6774 40.1466C95.0867 26.7199 93.3382 15.1276 92.1103 10.6857C91.9991 10.2814 91.7161 9.94283 91.3321 9.76596C90.9531 9.5891 90.5336 9.58404 90.1546 9.75586C82.701 13.1365 79.2243 22.0254 78.6229 23.698Z" fill="#000072"/>
<path d="M80.0789 18.6699L85.5668 18.2808C85.5668 18.2808 85.9155 22.3487 83.6769 24.4408C83.6769 24.4408 87.5427 30.5199 81.6353 32.7434L77.7695 23.7333C77.7695 23.7283 78.8863 20.6104 80.0789 18.6699Z" fill="white"/>
<path d="M81.6367 33.5368C81.3284 33.5368 81.0353 33.3549 80.9039 33.0517L77.0381 24.0416C76.9573 23.8546 76.9522 23.6475 77.0179 23.4605C77.0634 23.3291 78.1751 20.2415 79.398 18.2555C79.5345 18.0383 79.7619 17.8968 80.0196 17.8765L85.5075 17.4874C85.9421 17.4571 86.3211 17.7805 86.3565 18.2151C86.3716 18.3869 86.6698 22.1719 84.6535 24.5621C85.1942 25.6082 86.1847 27.9782 85.4519 30.1713C84.9466 31.6772 83.7591 32.794 81.9146 33.4863C81.8236 33.5217 81.7276 33.5368 81.6367 33.5368ZM78.6299 23.7081L82.051 31.6873C83.0263 31.187 83.658 30.5099 83.941 29.671C84.6586 27.5284 83.0213 24.8906 83.0011 24.8653C82.7989 24.5419 82.8495 24.1174 83.1325 23.8546C84.507 22.5711 84.7546 20.3224 84.7849 19.1348L80.5502 19.438C79.7012 20.9288 78.9079 22.9602 78.6299 23.7081Z" fill="#000072"/>
<path d="M55.2624 16.6333C55.2624 16.6333 47.7127 15.4458 39.4151 20.7367C38.839 21.1005 38.2629 21.4997 37.6818 21.9343C36.9592 22.475 36.2264 23.0662 35.5038 23.7232L28.793 3.48456C28.793 3.48456 28.798 3.45929 28.8081 3.41381C28.8637 3.21168 29.0608 2.62044 29.5863 2.04941C31.0417 0.472771 35.0035 -0.927003 45.4286 6.60247C45.4286 6.59742 51.5027 11.3223 55.2624 16.6333Z" fill="white"/>
<g opacity="0.3">
<path opacity="0.3" d="M55.2624 16.6333C55.2624 16.6333 47.7127 15.4458 39.4151 20.7367C38.839 21.1005 38.2629 21.4997 37.6818 21.9343C37.4544 21.4694 37.3634 20.959 37.4342 20.393C37.9092 16.6384 41.7902 14.3139 44.4634 13.1415C45.6661 12.6159 45.9592 11.0595 45.0344 10.1348C33.7604 -1.16956 28.793 3.48456 28.793 3.48456C28.793 3.48456 28.798 3.45929 28.8081 3.41381C28.8637 3.21168 29.0608 2.62044 29.5863 2.04941C31.0417 0.472771 35.0035 -0.927003 45.4286 6.60247C45.4286 6.59742 51.5027 11.3223 55.2624 16.6333Z" fill="#000072"/>
</g>
<path d="M35.5053 24.5166C35.4346 24.5166 35.3689 24.5065 35.3032 24.4913C35.0455 24.4206 34.8383 24.2286 34.7524 23.9708L28.0365 3.73727C27.991 3.60588 27.986 3.46439 28.0112 3.32795C28.0264 3.24204 28.4559 1.24598 30.6642 0.381855C33.9034 -0.88148 39.0224 0.993309 45.8899 5.95569C45.895 5.96074 45.9051 5.96579 45.9101 5.97085C46.1628 6.16793 52.1258 10.8271 55.9107 16.1685C56.0977 16.4313 56.1078 16.7749 55.936 17.0478C55.7692 17.3206 55.4508 17.4672 55.1325 17.4167C55.0365 17.4015 45.2684 16.0118 36.0309 24.3094C35.8894 24.4459 35.6973 24.5166 35.5053 24.5166ZM29.6283 3.46944L35.8843 22.3336C43.0853 16.3302 50.3015 15.6581 53.5761 15.7137C50.0185 11.2364 45.2027 7.43632 44.95 7.23923C36.5665 1.18028 32.7664 1.27124 31.2454 1.86754C30.1741 2.28696 29.7647 3.11066 29.6283 3.46944Z" fill="#000072"/>
<path d="M25.7562 32.0765C26.1099 33.3145 26.5294 34.5829 27.0195 35.8867L39.4255 20.6964C39.4255 20.6964 39.1172 9.39204 31.9061 3.23707C30.8702 2.35274 29.2784 2.62562 28.5709 3.78283C28.2728 4.26795 27.9493 4.83898 27.6158 5.49086C27.6108 5.49086 27.6108 5.49086 27.6108 5.49086C25.1599 10.2511 22.1329 19.4431 25.7562 32.0765Z" fill="#FFF1E1"/>
<g opacity="0.3">
<path opacity="0.3" d="M27.6124 5.49079C27.7084 5.40488 30.326 3.17131 32.5647 6.98152C33.7168 8.93717 34.3081 10.0489 34.6113 10.6705C34.7477 10.9484 34.4748 11.2516 34.1817 11.1455L32.8729 10.6654C32.1806 10.4127 31.4226 10.7564 31.1548 11.4386C30.6444 12.7423 30.0481 15.0972 30.5029 18.4374C30.5939 19.1045 30.4372 19.7867 30.043 20.3274C29.3204 21.3178 28.2238 22.6772 28.8606 25.4919C28.9919 26.0629 28.4159 26.9321 28.1531 27.4577C27.6326 28.5037 27.006 30.2875 25.7578 32.0714C26.1115 33.3094 26.531 34.5778 27.0211 35.8816L39.4271 20.6912C39.4271 20.6912 39.1188 9.38691 31.9077 3.23195C30.8718 2.34761 29.28 2.62049 28.5725 3.77771C28.2744 4.26788 27.951 4.83891 27.6124 5.49079Z" fill="#000072"/>
</g>
<path d="M27.0181 36.6851C26.9777 36.6851 26.9322 36.68 26.8867 36.675C26.6037 36.6295 26.3713 36.4375 26.2702 36.1696C19.9384 19.2965 25.2949 7.61321 27.8873 3.36841C28.3522 2.61041 29.1203 2.09497 30.0046 1.95853C30.8738 1.82209 31.7581 2.06465 32.4252 2.63567C39.8232 8.94729 40.2124 20.2011 40.2275 20.6761C40.2326 20.8681 40.1669 21.0551 40.0456 21.2016L27.6346 36.392C27.483 36.5789 27.2556 36.6851 27.0181 36.6851ZM30.4897 3.51495C30.4139 3.51495 30.3331 3.52001 30.2573 3.53517C29.8378 3.60086 29.474 3.84342 29.2517 4.20726C26.8463 8.13876 21.9597 18.7963 27.291 34.2999L38.6155 20.4386C38.5043 18.6649 37.6149 9.16459 31.3892 3.85353C31.1366 3.62613 30.8182 3.51495 30.4897 3.51495Z" fill="#000072"/>
<path d="M38.6086 15.1984L33.4441 13.3085C33.4441 13.3085 31.9837 17.1237 33.5553 19.7464C33.5553 19.7464 28.1583 24.5218 33.2218 28.2866L39.4273 20.6914C39.4273 20.6965 39.2201 17.3916 38.6086 15.1984Z" fill="white"/>
<path d="M33.2232 29.0901C33.0564 29.0901 32.8897 29.0395 32.7482 28.9334C31.1665 27.756 30.3276 26.3562 30.2619 24.7694C30.1659 22.4601 31.7678 20.4539 32.5764 19.5948C31.3029 16.7397 32.637 13.1821 32.6977 13.0255C32.8543 12.6212 33.3091 12.414 33.7184 12.5606L38.8829 14.4505C39.1255 14.5364 39.3074 14.7386 39.3782 14.9862C40.0048 17.2349 40.217 20.5095 40.2221 20.6459C40.2372 20.8481 40.1715 21.0451 40.0452 21.2018L33.8397 28.797C33.6831 28.989 33.4557 29.0901 33.2232 29.0901ZM33.9559 14.3495C33.6527 15.4966 33.2687 17.7301 34.2389 19.3422C34.436 19.6706 34.3703 20.0951 34.0823 20.3478C34.0621 20.368 31.7527 22.45 31.8537 24.7038C31.8942 25.5881 32.3136 26.4118 33.112 27.1647L38.605 20.4387C38.5444 19.6454 38.3422 17.4775 37.938 15.8048L33.9559 14.3495Z" fill="#000072"/>
<path d="M85.1737 53.9877C85.1737 53.9877 86.0075 55.4531 87.5639 56.7367C88.3927 57.4189 88.4179 58.6771 87.6043 59.3745C84.7037 61.8658 78.4073 66.5149 72.0754 66.2521C72.0198 66.2521 71.9643 66.247 71.9087 66.247C71.9087 66.247 47.7284 77.8141 30.8099 59.5109C30.8099 59.5109 24.9935 57.712 22.0322 50.5514C21.8351 50.0713 21.9109 49.5508 22.1889 49.1516C22.3455 48.9192 22.5679 48.7322 22.8458 48.621C23.3259 48.4239 23.9424 48.242 24.6701 48.1763C24.6701 48.1763 23.1642 47.0696 22.2344 44.1842C22.012 43.4969 22.3304 42.744 22.9772 42.4155C23.6948 42.0567 24.6094 41.4705 25.2259 40.5912C25.4988 40.2021 25.7161 39.7524 25.8323 39.237C25.9132 38.8731 26.0698 38.1151 26.3427 37.0741C26.4488 36.685 26.5651 36.2504 26.7066 35.7855C26.9643 34.9315 27.2877 33.9613 27.697 32.9152C29.9559 27.114 34.711 19.0034 44.5651 15.1578C44.8127 15.0618 45.0603 14.9658 45.313 14.8799C47.8548 13.9652 50.4876 13.4144 53.1355 13.2173C53.3427 13.2022 53.5499 13.187 53.7571 13.1769C56.9609 13.0051 60.1799 13.3487 63.2826 14.2027C63.6566 14.3038 64.0255 14.415 64.3944 14.5312C66.0215 15.0466 67.6133 15.7036 69.1445 16.502C69.6094 16.7445 70.0794 17.0023 70.5493 17.2802C72.2018 18.2504 73.8795 19.4279 75.4915 20.8782C79.6908 24.6429 83.4505 30.1915 85.2242 38.3678C85.4264 39.3026 85.6032 40.2729 85.7548 41.2785C85.7548 41.2785 85.7397 41.5008 85.7548 41.8799C85.7649 42.1477 85.7851 42.4964 85.8306 42.8956C85.9974 44.2701 86.4825 46.2712 87.852 47.8681C88.1349 48.2016 88.4533 48.5098 88.8171 48.7979C89.4892 49.3285 89.6813 50.2785 89.2366 51.0163C88.4685 52.2847 87.1041 53.9422 85.1737 53.9877Z" fill="white"/>
<path d="M73.3969 65.1L71.9062 66.2269C71.8506 66.2269 71.795 66.2218 71.7394 66.2218C71.7394 66.2218 47.5592 77.7889 30.6406 59.4857C30.6406 59.4857 33.8293 51.1679 41.5912 49.9955C42.1572 49.9096 42.9859 49.5407 43.4559 49.2173C44.9163 48.2066 48.8731 47.4335 55.4929 51.1376C56.0134 51.4307 56.5895 51.6176 57.1858 51.6732C60.4301 51.9764 70.466 53.8361 73.3969 65.1Z" fill="white"/>
<path d="M42.5959 36.3516C42.3988 37.2865 41.1203 37.4027 40.7312 36.5335C40.4179 35.8362 39.958 35.1186 39.2859 34.5324C37.5476 33.0215 43.5661 31.6975 42.5959 36.3516Z" fill="white"/>
<path d="M60.3042 38.8529C60.1577 39.6362 61.1077 40.1264 61.6838 39.5705C62.4873 38.7973 63.6344 38.0596 65.2312 37.7462C68.8191 37.0539 61.7394 31.3235 60.3042 38.8529Z" fill="white"/>
<g opacity="0.3">
<path opacity="0.3" d="M46.1326 50.0613C46.1326 50.0613 44.5509 52.689 39.7148 52.8912C39.7148 52.8912 40.4021 61.2444 47.6789 61.4061C54.9557 61.5678 57.0175 54.8923 57.0175 54.8923C57.0175 54.8923 50.433 53.821 50.1197 50.4757C49.8064 47.1304 46.1326 50.0613 46.1326 50.0613Z" fill="#000072"/>
</g>
<path d="M63.2853 14.1926C63.2196 14.2481 63.1539 14.3037 63.0832 14.3694C62.972 14.4857 62.8507 14.5968 62.7294 14.6979C62.2443 15.183 61.6682 15.6782 61.0972 16.3049C60.9506 16.4565 60.8041 16.6081 60.6474 16.7647C60.5666 16.8355 60.4958 16.9214 60.4251 17.0073L60.2129 17.27C59.9299 17.6238 59.6166 17.9522 59.3588 18.3565C59.086 18.7456 58.808 19.1347 58.5351 19.539L57.7721 20.8175L57.575 21.1409C57.5043 21.247 57.4436 21.3582 57.388 21.4744L57.0394 22.1566L56.3218 23.5463C56.1146 24.0264 55.8973 24.5115 55.68 24.9966L55.3465 25.7293L55.1797 26.0982L55.0332 26.4722L54.4369 27.9932L54.1236 28.7613L53.9669 29.1504L53.8305 29.5395C53.6991 29.9135 53.5677 30.2824 53.4363 30.6563C53.214 31.2678 52.3246 31.2021 52.1932 30.5654C52.1124 30.1662 52.0366 29.7669 51.9658 29.3627C51.7738 28.2358 51.6677 27.0937 51.5514 25.9466L51.511 25.512L51.4958 25.0774L51.4756 24.2083C51.4605 23.6271 51.4504 23.041 51.4453 22.4548C51.4706 21.8686 51.506 21.2723 51.5464 20.681C51.5919 20.0898 51.6171 19.4834 51.7283 18.8871L52.0163 17.073C52.1528 16.4666 52.3145 15.8602 52.4661 15.2487L52.5823 14.7889C52.6227 14.6373 52.6834 14.4857 52.7339 14.329L52.9815 13.6417L53.0624 13.4093L53.1331 13.2122C53.3403 13.1971 53.5475 13.1819 53.7547 13.1718C56.9636 13 60.1825 13.3436 63.2853 14.1926Z" fill="#00160A"/>
<path d="M52.9827 13.6368C52.8766 13.6772 52.7705 13.7176 52.6644 13.748C52.7149 13.7429 52.7604 13.7328 52.8109 13.7176L52.8261 13.7328C52.8362 13.7429 52.8463 13.7429 52.8513 13.753C52.8362 13.7833 52.821 13.8136 52.8008 13.8339L52.7604 13.8793L52.7149 13.9299C52.6997 13.945 52.6846 13.9602 52.6694 13.9754C52.6543 13.9855 52.634 14.0057 52.6189 14.0259C52.5481 14.1067 52.4723 14.1674 52.3864 14.2432C52.3056 14.3291 52.2146 14.4099 52.1237 14.4807C51.7699 14.8344 51.3505 15.1983 50.9361 15.6531C50.83 15.7642 50.7188 15.8754 50.6077 15.9866C50.547 16.0371 50.4965 16.1028 50.446 16.1685L50.2893 16.3555C50.0821 16.6132 49.8547 16.8558 49.6627 17.1489C49.4656 17.4318 49.2584 17.7148 49.0613 18.013L48.5004 18.9377L48.3589 19.1752C48.3084 19.251 48.2629 19.3319 48.2225 19.4178L47.9648 19.9181L47.4443 20.9288C47.2927 21.2825 47.136 21.6312 46.9743 21.99L46.7317 22.5256L46.6054 22.7985L46.4993 23.0714L46.0647 24.178L45.8373 24.739L45.7211 25.0169L45.62 25.3049C45.524 25.5778 45.428 25.8456 45.332 26.1185C45.1703 26.5632 44.5184 26.5177 44.4274 26.0528C44.3718 25.7597 44.3163 25.4666 44.2607 25.1736C44.1242 24.3549 44.0484 23.5211 43.9625 22.6772L43.9322 22.3639L43.9221 22.0455L43.9069 21.4139C43.8968 20.9894 43.8918 20.5599 43.8867 20.1303C43.9069 19.7008 43.9322 19.2713 43.9625 18.8367C43.9928 18.4021 44.0131 17.9675 44.0939 17.5279L44.3011 16.2039C44.3769 15.8552 44.4679 15.5065 44.5588 15.1528C44.8064 15.0568 45.054 14.9608 45.3067 14.8748C47.8485 13.9602 50.4813 13.4094 53.1293 13.2123C53.3365 13.1971 53.5436 13.182 53.7508 13.1719C53.5285 13.3588 53.2657 13.5155 52.9827 13.6368Z" fill="#00160A"/>
<path d="M70.5447 17.265C70.2567 17.4519 69.9484 17.6541 69.6402 17.8916C69.5139 17.9825 69.3875 18.0735 69.2561 18.1594C69.1904 18.1998 69.1298 18.2554 69.0641 18.3059L68.8771 18.4626C68.6295 18.6799 68.3566 18.8719 68.1191 19.1296C67.8766 19.3722 67.6189 19.6148 67.3712 19.8674L66.6537 20.6861L66.4717 20.8933C66.4111 20.959 66.3505 21.0297 66.2949 21.1055L65.9563 21.5502L65.2589 22.4497C65.0467 22.768 64.8244 23.0864 64.602 23.4048L64.2685 23.8899L64.0967 24.1324L63.94 24.3851L63.3084 25.4008L62.9799 25.9062L62.8131 26.1639L62.6666 26.4267C62.5251 26.6793 62.3785 26.9269 62.232 27.1796C61.9945 27.5889 61.3628 27.4222 61.3527 26.9522C61.3477 26.6541 61.3477 26.3559 61.3477 26.0578C61.3578 25.224 61.4336 24.3952 61.5043 23.5513L61.5296 23.238L61.5751 22.9247L61.6761 22.2981C61.7418 21.8787 61.8126 21.4592 61.8884 21.0347C61.9844 20.6153 62.0905 20.1959 62.1966 19.7765C62.3078 19.357 62.4038 18.9275 62.5655 18.5131L63.0102 17.2498C63.1871 16.8354 63.3842 16.4211 63.5762 15.9966L63.7227 15.6833C63.7733 15.5771 63.839 15.4761 63.8945 15.375L64.2483 14.7585L64.3847 14.521C66.0119 15.0364 67.6037 15.6934 69.1349 16.4918C69.6048 16.7293 70.0748 16.987 70.5447 17.265Z" fill="#00160A"/>
<path d="M87.8457 47.8528L87.0625 47.4637C86.643 47.2616 86.2236 47.0595 85.7941 46.8573C84.9401 46.4581 84.0557 46.0842 83.1562 45.7405C82.7065 45.5536 82.2466 45.4171 81.7817 45.2403C81.3168 45.0988 80.8469 44.9219 80.3668 44.7804C79.4016 44.4519 78.4112 44.2144 77.3398 43.8607C77.5824 43.7293 77.83 43.6131 78.0877 43.4969C78.3455 43.3907 78.6032 43.2745 78.866 43.1987C79.1287 43.1179 79.3915 43.037 79.6644 42.9612C79.9373 42.8955 80.2051 42.85 80.478 42.7944L80.8873 42.7237C81.0237 42.7035 81.1602 42.6934 81.3017 42.6782C81.5745 42.653 81.8525 42.6327 82.1304 42.6075C82.6812 42.6024 83.2421 42.5923 83.798 42.6327C84.4802 42.6732 85.1574 42.754 85.8295 42.8753C85.9912 44.2549 86.4763 46.2509 87.8457 47.8528Z" fill="#00160A"/>
<path d="M85.7494 41.8596C85.4209 41.7231 85.0925 41.5917 84.7539 41.4654C84.3042 41.2784 83.8443 41.142 83.3794 40.9651C82.9145 40.8236 82.4445 40.6417 81.9645 40.5053C80.9993 40.1768 80.0088 39.9393 78.9375 39.5855C79.1801 39.4542 79.4327 39.3379 79.6854 39.2217C79.9381 39.1156 80.1958 38.9994 80.4586 38.9236C80.7213 38.8427 80.9892 38.7619 81.257 38.6911C81.5248 38.6204 81.7977 38.5749 82.0706 38.5243L82.4849 38.4536C82.6214 38.4334 82.7629 38.4233 82.8993 38.4081C83.1722 38.3829 83.4552 38.3626 83.7331 38.3424C84.2233 38.3374 84.7236 38.3273 85.2239 38.3576C85.426 39.2925 85.6029 40.2627 85.7545 41.2683C85.7494 41.2633 85.7342 41.4856 85.7494 41.8596Z" fill="#00160A"/>
<path d="M33.0126 39.9847C31.8857 40.0605 30.87 40.0454 29.8543 40.1262C29.354 40.1414 28.8537 40.197 28.3686 40.2172C27.8784 40.2728 27.3933 40.293 26.9132 40.3587C26.3473 40.4244 25.7863 40.5002 25.2305 40.5861C25.5033 40.197 25.7206 39.7472 25.8369 39.2318C25.9177 38.868 26.0744 38.11 26.3473 37.069C26.5848 37.1043 26.8273 37.1448 27.0598 37.1903C27.6055 37.2863 28.1462 37.4379 28.6819 37.5794C28.9447 37.6703 29.2074 37.7562 29.4702 37.8522C29.6016 37.9028 29.733 37.9432 29.8593 37.9988L30.2383 38.1706C30.491 38.2868 30.7386 38.398 30.9862 38.5344C31.2288 38.6709 31.4663 38.8124 31.7038 38.9589C31.9413 39.0954 32.1637 39.2722 32.3809 39.439C32.5982 39.6159 32.8105 39.7927 33.0126 39.9847Z" fill="#00160A"/>
<path d="M32.5262 35.4469C31.3993 35.5227 30.3785 35.5075 29.3628 35.5884C28.8625 35.6035 28.3622 35.6591 27.8771 35.6793C27.483 35.7198 27.0989 35.745 26.7148 35.7855C26.9726 34.9314 27.296 33.9612 27.7053 32.9152C27.867 32.9556 28.0338 33.0011 28.1955 33.0465C28.4582 33.1375 28.7261 33.2234 28.9838 33.3194C29.1101 33.37 29.2415 33.4104 29.3729 33.466L29.7519 33.6378C30.0046 33.7591 30.2522 33.8652 30.4998 34.0016C30.7424 34.1381 30.9799 34.2846 31.2123 34.4261C31.4498 34.5625 31.6722 34.7394 31.8895 34.9062C32.1068 35.083 32.319 35.2549 32.5262 35.4469Z" fill="#00160A"/>
<g opacity="0.3">
<path opacity="0.3" d="M85.5207 53.9624C85.3641 53.9826 85.2782 54.1544 85.3641 54.2858C85.6926 54.7811 86.4405 55.8069 87.5673 56.7367C88.3961 57.4189 88.4214 58.6772 87.6078 59.3745C84.7072 61.8658 78.4107 66.5149 72.0789 66.2521C72.0233 66.2521 71.9677 66.2471 71.9121 66.2471C71.9121 66.2471 47.7673 77.799 30.8537 59.5514C30.8285 59.5261 30.8032 59.5059 30.7678 59.4958C30.2018 59.3038 24.8403 57.3279 22.0407 50.5514C21.8992 50.2128 21.8992 49.849 22.0053 49.5256C22.0609 49.3588 22.2984 49.3386 22.3894 49.4953C23.2131 50.89 24.7746 52.9568 27.3922 54.488C27.5337 54.5739 27.7156 54.4728 27.7156 54.306C27.7105 53.9523 27.7409 53.3661 27.9278 52.6182C27.9733 52.4363 28.2108 52.3959 28.3119 52.5525C29.7167 54.7053 37.0289 64.7361 51.7998 65.4487C68.3546 66.2521 92.3428 43.497 76.7734 22.7025C76.7684 22.6974 76.7633 22.6873 76.7583 22.6822C76.5965 22.47 76.8997 22.2173 77.0867 22.4144C80.6241 26.1084 83.6763 31.2376 85.2226 38.3628C85.4247 39.2926 85.6016 40.2527 85.7481 41.2533C85.7481 41.2684 85.7532 41.2785 85.7481 41.2937C85.7431 41.3543 85.738 41.5615 85.7481 41.8748C85.7583 42.1427 85.7785 42.4913 85.8239 42.8905C85.9907 44.2651 86.4758 46.2662 87.8453 47.863C88.1283 48.1966 88.4466 48.5048 88.8105 48.7928C89.4826 49.3234 89.6746 50.2735 89.2299 51.0113C88.5174 52.2089 87.2692 53.7451 85.5207 53.9624Z" fill="#000072"/>
</g>
<g opacity="0.5">
<path opacity="0.5" d="M70.5465 17.265C70.0766 16.9871 69.6117 16.7294 69.1417 16.4868C67.6105 15.6884 66.0187 15.0315 64.3916 14.516C64.0227 14.3998 63.6538 14.2886 63.2798 14.1876C60.1771 13.3386 56.9581 12.995 53.7543 13.1617C53.5471 13.1718 53.3399 13.187 53.1327 13.2022C50.4797 13.3992 47.8469 13.9551 45.3102 14.8647C45.0575 14.9557 44.8099 15.0466 44.5623 15.1426C34.7083 18.9882 29.9531 27.1039 27.6993 32.9001C27.29 33.9461 26.9665 34.9164 26.7088 35.7704C26.5673 36.2353 26.446 36.6648 26.345 37.059C26.067 38.1 25.9154 38.858 25.8346 39.2218C25.7184 39.7322 25.5061 40.1819 25.2282 40.5761C24.6117 41.4554 23.697 42.0416 22.9795 42.4004C22.3326 42.7238 22.0092 43.4767 22.2366 44.169C23.1715 47.0545 24.6723 48.1612 24.6723 48.1612C24.6723 48.1612 25.0109 48.3178 24.076 45.4324C23.8537 44.7451 23.7375 44.3055 24.3893 43.982C25.1069 43.6233 26.0216 43.0371 26.6381 42.1578C26.911 41.7687 27.1282 41.3189 27.2445 40.8035C27.3253 40.4397 27.482 39.6817 27.7549 38.6407C27.861 38.2516 27.9772 37.817 28.1187 37.3521C28.3764 36.4981 28.6998 35.5278 29.1092 34.4818C29.7509 32.8344 30.5898 31 31.6965 29.1303C32.035 28.5593 32.6414 28.2257 33.3085 28.1904C34.6122 28.1146 36.6791 26.8866 38.5741 24.9411C40.3579 23.1118 41.505 21.146 41.6616 19.8423C41.7425 19.1702 42.1164 18.5739 42.7077 18.2454C43.7285 17.6845 44.8149 17.1741 45.9721 16.7243C46.2198 16.6283 46.4674 16.5323 46.72 16.4464C49.2619 15.5318 51.8947 14.9809 54.5426 14.7839C54.7498 14.7687 54.957 14.7535 55.1642 14.7434C58.368 14.5716 61.587 14.9152 64.6897 15.7693C65.0637 15.8703 65.4326 15.9815 65.8014 16.0977C67.4286 16.6132 69.0204 17.2701 70.5516 18.0685C71.0165 18.3111 71.4865 18.5688 71.9564 18.8467C74.1496 20.1303 76.3831 21.7928 78.455 23.9506C76.0092 21.0096 73.2501 18.8467 70.5465 17.265Z" fill="white"/>
</g>
<path d="M54.8398 70.6435C47.5428 70.6435 38.1991 68.5817 30.3665 60.1982C29.2396 59.7889 24.0801 57.5857 21.3008 50.8546C20.8207 49.6974 21.3816 48.3633 22.5439 47.8832C22.7309 47.8074 22.9229 47.7367 23.12 47.6761C22.5843 46.9686 21.9577 45.9124 21.4776 44.4268C21.134 43.3706 21.6292 42.1982 22.6247 41.703C23.5697 41.2331 24.7623 40.3942 25.0554 39.0652L25.1009 38.858C25.4344 37.3218 26.4552 32.6424 29.376 27.5486C33.1054 21.0349 38.376 16.5222 45.0414 14.1269C53.0408 11.2516 61.9599 11.858 69.5147 15.7844C76.0739 19.1954 84.3513 26.3661 86.5394 41.1471C86.5495 41.2027 86.5495 41.2583 86.5444 41.3139C86.5444 41.3594 86.3221 45.8063 89.3086 48.1612C90.2991 48.9445 90.5618 50.3392 89.9201 51.4155C89.2075 52.6081 88.0907 53.9877 86.5343 54.5385C86.9032 55.0034 87.4237 55.5845 88.0756 56.1202C88.6567 56.6003 88.9953 57.3077 89.0004 58.0556C89.0054 58.7934 88.687 59.4958 88.1261 59.9759C84.9071 62.7401 78.5703 67.3032 72.0666 67.0506C70.965 67.5508 65.28 69.9815 57.7606 70.5374C56.8358 70.6031 55.8606 70.6435 54.8398 70.6435ZM55.3603 13.9248C52.0554 13.9248 48.7404 14.4857 45.5821 15.6227C32.5748 20.2971 28.143 32.3948 26.6624 39.1915L26.6169 39.4088C26.1823 41.3442 24.5956 42.4964 23.3423 43.123C23.0442 43.2696 22.8976 43.6182 22.9987 43.9315C23.8325 46.4986 25.1363 47.5194 25.1514 47.5245C25.4192 47.7215 25.5355 48.0601 25.4445 48.3785C25.3536 48.6968 25.0807 48.9293 24.7472 48.9596C24.1913 49.0101 23.6556 49.1415 23.1554 49.3487C22.8067 49.4953 22.6349 49.8945 22.7763 50.2381C25.5456 56.9388 30.9981 58.7277 31.0537 58.7429C31.1851 58.7833 31.3064 58.8591 31.4024 58.9652C38.2345 66.3532 47.0475 69.7137 57.5989 68.9456C65.5276 68.3695 71.5158 65.5497 71.5714 65.5245C71.6927 65.4689 71.8241 65.4385 71.9605 65.4487C77.974 65.7771 84.0228 61.406 87.0952 58.7681C87.3024 58.5913 87.4136 58.3437 87.4136 58.0708C87.4085 57.7928 87.2822 57.5301 87.0649 57.3532C85.4175 55.9939 84.5281 54.4475 84.4928 54.3818C84.3563 54.1393 84.3513 53.8411 84.4928 53.5935C84.6292 53.351 84.8869 53.1943 85.1699 53.1893C86.7112 53.1539 87.8684 51.7592 88.5607 50.5969C88.7932 50.2078 88.6921 49.7025 88.3283 49.4144C84.897 46.7109 84.9324 42.0365 84.9577 41.3089C82.8504 27.2454 75.0026 20.4386 68.787 17.2044C64.6028 15.0264 59.9841 13.9248 55.3603 13.9248Z" fill="#000072"/>
<path d="M30.1675 59.9658C29.9957 59.6778 29.8593 59.3898 29.7279 59.0916C29.5965 58.7935 29.4853 58.4852 29.3792 58.177C29.2782 57.8637 29.1872 57.5453 29.1266 57.2168C29.0659 56.8884 29.0154 56.5548 29.0508 56.2213C29.1013 56.2921 29.1468 56.3578 29.1872 56.4234L29.3337 56.6155C29.4298 56.7418 29.5258 56.8631 29.6319 56.9793C29.8391 57.2168 30.0412 57.4493 30.2484 57.6767L30.87 58.3639C31.0771 58.5913 31.2793 58.8288 31.4663 59.0461L30.1675 59.9658Z" fill="#000072"/>
<path d="M71.4883 65.5699L73.2266 64.4835C73.8078 64.1146 74.3889 63.7457 74.965 63.3667C75.5411 62.9877 76.1121 62.5986 76.6781 62.2044C77.2491 61.8153 77.8201 61.4211 78.4619 61.0775C78.1183 61.7193 77.6736 62.2802 77.1935 62.8007C76.7033 63.3111 76.203 63.8114 75.6775 64.2813C75.1519 64.7563 74.6163 65.2162 74.0604 65.6558C73.7825 65.8782 73.5046 66.0904 73.2165 66.2976C72.9285 66.5099 72.6505 66.712 72.3423 66.9141L71.4883 65.5699Z" fill="#000072"/>
<path d="M84.5762 54.5082C84.4549 54.3566 84.3539 54.1848 84.2629 54.0079C84.1719 53.831 84.086 53.6491 84.0052 53.4621C83.8536 53.0882 83.7121 52.689 83.707 52.2039C83.9344 52.2746 84.1366 52.3555 84.3235 52.4464C84.5105 52.5374 84.6874 52.6384 84.8541 52.7496C85.026 52.8557 85.1877 52.9669 85.3443 53.0882C85.501 53.2095 85.6526 53.3308 85.7789 53.4672L84.5762 54.5082Z" fill="#000072"/>
<path d="M53.9185 55.6451C53.9185 55.6451 53.7871 56.2262 53.4384 57.0095C52.7057 58.6619 50.9875 61.2088 47.4704 60.9461C46.0858 60.845 45.0347 60.2639 44.2413 59.4806C42.2048 57.4795 41.8359 54.1544 41.8359 54.1544C46.5052 54.6344 47.9202 50.8495 47.9202 50.8495C49.1178 56.1403 53.9185 55.6451 53.9185 55.6451Z" fill="#000072"/>
<path d="M53.4393 57.0096C53.126 57.712 52.6408 58.5761 51.9081 59.3139C50.9227 60.3195 49.4926 61.0977 47.4713 60.9461C46.0867 60.8451 45.0356 60.2639 44.2422 59.4807C44.2422 59.4807 44.793 58.1567 46.1827 57.1764C47.6077 56.1606 49.9272 55.5037 53.4393 57.0096Z" fill="#FF4A8B"/>
<path d="M47.9652 61.4666C47.7934 61.4666 47.6165 61.4615 47.4397 61.4464C42.164 61.0623 41.3504 54.2807 41.3403 54.21L41.2695 53.5935L41.886 53.6592C42.1438 53.6845 42.3863 53.6996 42.6238 53.6996C46.2723 53.6996 47.4346 50.7131 47.4498 50.6777L48.041 49.1011L48.4099 50.7434C49.4913 55.5441 53.6856 55.1651 53.8625 55.1499L54.5548 55.0792L54.4032 55.7614C54.3981 55.8119 53.0691 61.4666 47.9652 61.4666ZM42.4419 54.6951C42.7552 56.2263 43.9175 60.183 47.5155 60.4458C51.2701 60.7238 52.781 57.5199 53.2561 56.1404C51.9119 56.0545 49.0466 55.4683 47.7833 52.1078C46.9849 53.2195 45.3526 54.7709 42.4419 54.6951Z" fill="#000072"/>
<path d="M67.2266 43.0674C66.6859 43.2039 66.1654 43.2645 65.6499 43.3251C65.3922 43.3757 65.1396 43.411 64.8869 43.4464C64.6342 43.4767 64.3816 43.502 64.1339 43.5576L63.3911 43.694C63.2648 43.7092 63.1435 43.7496 63.0273 43.785L62.6685 43.8861C62.1834 44.0023 61.7286 44.2044 61.2636 44.3712C60.819 44.5885 60.3743 44.7906 59.9649 45.0584C59.7476 45.1747 59.5556 45.3212 59.3585 45.4627C59.2625 45.5334 59.1564 45.5991 59.0604 45.6749L58.7825 45.9074C58.6915 45.9882 58.5904 46.059 58.5045 46.1398L58.2417 46.3925C58.0598 46.5542 57.9082 46.7412 57.7415 46.913C57.5899 47.1 57.4282 47.2768 57.2917 47.4689C57.221 47.5649 57.1502 47.6609 57.0896 47.7569C57.0593 47.8024 57.0239 47.8529 56.9936 47.8984L56.9178 48.0197L55.8768 47.0292C55.9425 46.9939 55.988 46.9736 56.0385 46.9484C56.089 46.9231 56.1345 46.9029 56.18 46.8877C56.276 46.8473 56.367 46.8119 56.463 46.7816C56.6499 46.7109 56.8369 46.6603 57.0239 46.6047C57.4029 46.5087 57.7819 46.438 58.1659 46.4026C58.929 46.3218 59.7022 46.3369 60.445 46.4683C60.632 46.4936 60.8139 46.5492 61.0009 46.5845L61.2738 46.6502C61.3647 46.6755 61.4506 46.7058 61.5416 46.7361C61.7184 46.7917 61.8953 46.8473 62.0722 46.913C62.244 46.9888 62.4158 47.0595 62.5826 47.1353C62.9262 47.2768 63.2344 47.4891 63.5478 47.671C63.7044 47.762 63.8459 47.8832 63.9925 47.9995C64.1339 48.1106 64.2805 48.2218 64.4169 48.3431C64.4523 48.3734 64.4574 48.424 64.427 48.4593C64.4068 48.4846 64.3715 48.4947 64.3411 48.4846H64.3361C63.9874 48.3835 63.6589 48.2572 63.3254 48.1561L62.8251 48.0146L62.5775 47.9388L62.3248 47.8832C62.1581 47.8479 61.9913 47.8074 61.8296 47.767L61.3293 47.6862L61.0817 47.6457L60.8291 47.6255C60.6623 47.6154 60.4955 47.5902 60.3288 47.5952L59.8335 47.5901C59.6668 47.5952 59.5051 47.6104 59.3383 47.6205C59.0099 47.6457 58.6864 47.6862 58.3681 47.7569C58.0497 47.8175 57.7415 47.9136 57.4332 48.0045C57.2867 48.0601 57.13 48.1106 56.9885 48.1713C56.9178 48.2016 56.847 48.2319 56.7763 48.2622C56.7409 48.2774 56.7055 48.2926 56.6752 48.3077L56.5994 48.3481C56.2356 48.5503 55.7808 48.4239 55.5786 48.0601C55.4523 47.8378 55.4523 47.5851 55.5534 47.3729L55.5584 47.3627C55.6039 47.2718 55.6393 47.2112 55.6747 47.1404C55.71 47.0697 55.7505 47.009 55.7858 46.9433C55.8616 46.817 55.9425 46.6907 56.0233 46.5744C56.185 46.3319 56.367 46.1146 56.5539 45.8922C56.938 45.4677 57.3423 45.0584 57.792 44.7148C58.6814 44.0073 59.6971 43.4666 60.7533 43.0876C61.294 42.936 61.8195 42.744 62.3754 42.6733L62.7847 42.6025C62.9211 42.5772 63.0576 42.552 63.194 42.5469L64.0177 42.4812C64.1542 42.4762 64.2906 42.456 64.427 42.461L64.8364 42.4812C65.1092 42.5014 65.3821 42.5166 65.6499 42.552C66.1856 42.6429 66.7213 42.7895 67.2316 42.9815C67.2569 42.9916 67.267 43.0169 67.2569 43.0421C67.2569 43.0522 67.2468 43.0624 67.2266 43.0674Z" fill="#000072"/>
<path d="M34.6887 39.0753C35.1536 39.0298 35.6236 39.0399 36.0885 39.0955C36.3159 39.1359 36.5433 39.1864 36.7707 39.242C36.9981 39.2976 37.2255 39.3532 37.4377 39.4492L38.0896 39.717C38.3069 39.803 38.509 39.9293 38.7213 40.0354C39.1508 40.2375 39.5349 40.5256 39.9341 40.7934C40.6971 41.3745 41.3793 42.082 41.92 42.8956C42.198 43.2948 42.4203 43.7345 42.6174 44.1842C42.7084 44.4116 42.7993 44.6441 42.865 44.8816C42.9054 44.9978 42.9358 45.1191 42.961 45.2454C42.9762 45.306 42.9914 45.3667 43.0015 45.4374C43.0116 45.5031 43.0267 45.5638 43.0368 45.6547L43.0419 45.68C43.0975 46.0893 42.8094 46.4633 42.4001 46.5188C42.1474 46.5542 41.9049 46.4531 41.7432 46.2763L41.6977 46.2308C41.6775 46.2106 41.6573 46.1904 41.632 46.1702C41.5865 46.1297 41.541 46.0843 41.4905 46.0438C41.3945 45.9579 41.2884 45.8771 41.1873 45.7962C40.97 45.6446 40.7527 45.488 40.5152 45.3566C40.2828 45.2201 40.0402 45.0989 39.7875 44.9877C39.6612 44.9371 39.5349 44.8765 39.4085 44.831L39.0144 44.6996C38.883 44.6542 38.7466 44.6289 38.6101 44.5885C38.4737 44.548 38.3372 44.5177 38.2008 44.4975C38.0643 44.4773 37.9229 44.452 37.7814 44.4217C37.6399 44.4065 37.4984 44.3964 37.3569 44.3762L37.1396 44.351L36.9223 44.3409L36.4827 44.3156C36.1896 44.3055 35.8914 44.3105 35.5832 44.2903H35.5731C35.5276 44.2853 35.4922 44.2448 35.4973 44.1994C35.4973 44.169 35.5175 44.1438 35.5478 44.1286C35.8308 44.0023 36.1188 43.881 36.417 43.79C36.7202 43.7193 37.0234 43.6182 37.3367 43.593C37.4933 43.5727 37.65 43.5576 37.8117 43.5374C37.9683 43.5323 38.13 43.5273 38.2918 43.5273C38.4535 43.5222 38.6101 43.5323 38.7718 43.5475C38.9335 43.5626 39.0952 43.5677 39.2519 43.593C39.8937 43.6789 40.5304 43.8608 41.1317 44.1236C41.4349 44.2549 41.728 44.4116 42.011 44.5935C42.1525 44.6895 42.2889 44.7805 42.4254 44.8866C42.4961 44.9371 42.5618 44.9927 42.6275 45.0483C42.6629 45.0786 42.6932 45.1039 42.7286 45.1393C42.764 45.1747 42.7943 45.1999 42.8398 45.2505L41.5461 45.867L41.5208 45.7558C41.5107 45.7154 41.4956 45.6699 41.4855 45.6193C41.4602 45.5284 41.4299 45.4374 41.3996 45.3414C41.344 45.1544 41.2581 44.9725 41.1873 44.7855C41.1014 44.6036 41.0307 44.4167 40.9245 44.2448C40.8285 44.068 40.7376 43.8861 40.6264 43.7193C40.2019 43.032 39.6663 42.4155 39.0649 41.8546C38.7415 41.6019 38.4332 41.319 38.0795 41.0966C37.9026 40.9854 37.7409 40.849 37.554 40.7479L36.9981 40.4397C36.8162 40.3285 36.6191 40.2426 36.4271 40.1466C36.235 40.0506 36.043 39.9495 35.851 39.8333C35.4619 39.6362 35.0627 39.4391 34.6685 39.1612L34.6635 39.1561C34.6432 39.141 34.6382 39.1106 34.6533 39.0904C34.6635 39.0854 34.6736 39.0803 34.6887 39.0753Z" fill="#000072"/>
<path d="M48.8684 51.1528C48.8785 51.2084 48.9038 51.3246 48.9291 51.4156C48.9543 51.5116 48.9847 51.6126 49.02 51.7086C49.0857 51.9007 49.1615 52.0927 49.2474 52.2797C49.4192 52.6536 49.6315 52.9973 49.8841 53.3055C50.1318 53.6138 50.4198 53.8816 50.7382 54.0989C50.814 54.1545 50.8999 54.205 50.9807 54.2505L51.1071 54.3212L51.2384 54.3819C51.4103 54.4678 51.6023 54.5133 51.7791 54.5941C52.4917 54.9276 53.3507 55.054 54.2401 55.0489C54.4625 55.0439 54.6848 55.0337 54.9122 55.0186C55.1346 54.9933 55.362 54.9731 55.5894 54.9428C55.8168 54.9074 56.0442 54.8771 56.2716 54.8316L56.9588 54.6901H56.9639C57.075 54.6649 57.1862 54.7407 57.2115 54.8518C57.2317 54.9428 57.1862 55.0337 57.1054 55.0792C56.2615 55.534 55.3569 55.9181 54.3816 56.1505C53.4063 56.3729 52.3401 56.4588 51.2587 56.2112C50.2076 55.8726 49.2575 55.1853 48.5955 54.3263C48.262 53.8967 47.9891 53.4318 47.7769 52.9467C47.6657 52.7042 47.5748 52.4565 47.4939 52.2039C47.4535 52.0775 47.4181 51.9512 47.3827 51.8198C47.3474 51.6834 47.3221 51.5722 47.2918 51.3953C47.221 50.9608 47.5141 50.5514 47.9487 50.4807C48.3732 50.4099 48.7775 50.6929 48.8583 51.1124L48.8684 51.1528Z" fill="#000072"/>
<path d="M48.7039 51.9966C48.5573 52.2089 48.431 52.3706 48.2844 52.5424C48.1379 52.7091 47.9964 52.8709 47.8347 53.0225C47.5264 53.3307 47.1879 53.6187 46.824 53.8765C46.1014 54.3919 45.2625 54.8063 44.3378 54.9882C43.4231 55.1903 42.4175 55.0994 41.5635 54.7406C40.7145 54.3666 40.0424 53.7148 39.6837 52.9113C39.6735 52.8911 39.6837 52.8709 39.7039 52.8607C39.714 52.8557 39.7241 52.8557 39.7291 52.8607C40.5629 53.1336 41.2704 53.3913 41.9577 53.5126C42.6399 53.644 43.3069 53.6137 43.9537 53.4116C44.6006 53.2094 45.2171 52.8709 45.8032 52.4514C46.0963 52.2392 46.3793 52.0067 46.6522 51.7642C46.7886 51.6429 46.9251 51.5166 47.0565 51.3902L47.4304 51.0213L47.481 50.9708C47.7943 50.6625 48.2996 50.6625 48.6078 50.9758C48.8908 51.2639 48.9212 51.6884 48.7039 51.9966Z" fill="#000072"/>
<path d="M48.4385 47.7013C48.4385 47.7013 46.6344 47.5245 45.2447 47.863C44.6434 48.0096 44.2846 48.616 44.4312 49.2173C44.6939 50.3038 45.5176 51.9158 48.0595 52.1382C50.6013 52.3555 51.6878 50.9051 52.1324 49.8844C52.3801 49.3184 52.1274 48.6564 51.5614 48.4138C50.2476 47.8378 48.4385 47.7013 48.4385 47.7013Z" fill="#000072"/>
<g opacity="0.3">
<path opacity="0.3" d="M48.4988 49.1058C48.504 48.8547 47.9789 48.6403 47.3259 48.6268C46.673 48.6134 46.1395 48.8061 46.1343 49.0573C46.1292 49.3084 46.6543 49.5228 47.3072 49.5363C47.9602 49.5497 48.4937 49.357 48.4988 49.1058Z" fill="white"/>
</g>
</svg>
