<svg width="249" height="30" viewBox="0 0 249 30" fill="none" xmlns="http://www.w3.org/2000/svg">
<path d="M0.786687 1.78653C0.536936 1.66872 0.429976 1.37075 0.547786 1.121C0.665596 0.871252 0.963562 0.764292 1.21331 0.882103L1 1.33432L0.786687 1.78653ZM249 1.33432L245.686 6.06171L243.249 0.827681L249 1.33432ZM1 1.33432L1.21331 0.882103C2.08898 1.29516 2.96704 1.70397 3.84747 2.10851L3.63871 2.56285L3.42995 3.01718C2.54648 2.61124 1.66538 2.20102 0.786687 1.78653L1 1.33432ZM8.95319 4.94029L9.15277 4.48185C10.9276 5.25449 12.7116 6.00992 14.5047 6.74793L14.3144 7.2103L14.1241 7.67267C12.3248 6.9321 10.5346 6.17406 8.75362 5.39874L8.95319 4.94029ZM19.7203 9.37193L19.9013 8.90582C21.7055 9.60629 23.5185 10.2892 25.34 10.9545L25.1685 11.4241L24.997 11.8938C23.1692 11.2262 21.3499 10.5409 19.5394 9.83804L19.7203 9.37193ZM30.6573 13.3662L30.8193 12.8932C32.65 13.5203 34.489 14.1296 36.3361 14.7209L36.1836 15.1971L36.0312 15.6733C34.1777 15.0799 32.3323 14.4685 30.4952 13.8392L30.6573 13.3662ZM41.7464 16.9163L41.8892 16.4372C43.7435 16.9898 45.6055 17.5245 47.475 18.0409L47.3419 18.5229L47.2088 19.0048C45.3327 18.4866 43.4643 17.9501 41.6036 17.3955L41.7464 16.9163ZM52.9697 20.0165L53.0931 19.532C54.9678 20.0093 56.8498 20.4685 58.7388 20.9092L58.6252 21.3961L58.5116 21.883C56.616 21.4408 54.7275 20.9801 52.8464 20.501L52.9697 20.0165ZM64.3089 22.6619L64.4127 22.1728C66.3047 22.5742 68.2035 22.9572 70.109 23.3215L70.0151 23.8126L69.9212 24.3038C68.0091 23.9381 66.1037 23.5538 64.2051 23.151L64.3089 22.6619ZM75.7448 24.8488L75.8288 24.3559C77.7353 24.6809 79.6481 24.9874 81.5671 25.2751L81.493 25.7695L81.4188 26.264C79.4933 25.9753 77.5738 25.6678 75.6608 25.3417L75.7448 24.8488ZM87.2592 26.575L87.3234 26.0792C89.2413 26.3275 91.1651 26.5572 93.0945 26.768L93.0402 27.265L92.9859 27.7621C91.0499 27.5506 89.1195 27.3201 87.195 27.0709L87.2592 26.575ZM98.8335 27.8395L98.8778 27.3415C100.804 27.5132 102.736 27.666 104.673 27.7999L104.638 28.2987L104.604 28.7975C102.66 28.6632 100.722 28.5098 98.7891 28.3375L98.8335 27.8395ZM110.449 28.6425L110.474 28.1431C112.405 28.2382 114.341 28.3145 116.282 28.3717L116.267 28.8715L116.253 29.3713C114.305 29.3139 112.362 29.2374 110.424 29.1419L110.449 28.6425ZM122.088 28.9857L122.093 28.4858C123.061 28.4952 124.03 28.5 125 28.5V29V29.5C124.026 29.5 123.054 29.4952 122.083 29.4857L122.088 28.9857ZM125 29V28.5C125.97 28.5 126.939 28.4952 127.908 28.4858L127.912 28.9857L127.917 29.4857C126.946 29.4952 125.974 29.5 125 29.5V29ZM133.733 28.8715L133.718 28.3717C135.659 28.3145 137.595 28.2382 139.526 28.1431L139.551 28.6425L139.576 29.1419C137.638 29.2374 135.695 29.3139 133.747 29.3713L133.733 28.8715ZM145.362 28.2987L145.327 27.7999C147.264 27.666 149.196 27.5131 151.122 27.3415L151.167 27.8395L151.211 28.3375C149.278 28.5098 147.34 28.6632 145.396 28.7975L145.362 28.2987ZM156.96 27.265L156.906 26.768C158.835 26.5572 160.759 26.3275 162.677 26.0792L162.741 26.575L162.805 27.0709C160.881 27.3201 158.95 27.5506 157.014 27.7621L156.96 27.265ZM168.507 25.7695L168.433 25.2751C170.352 24.9874 172.265 24.6809 174.171 24.3559L174.255 24.8488L174.339 25.3417C172.426 25.6678 170.507 25.9753 168.581 26.264L168.507 25.7695ZM179.985 23.8126L179.891 23.3215C181.796 22.9572 183.695 22.5742 185.587 22.1728L185.691 22.6619L185.795 23.151C183.896 23.5538 181.991 23.9381 180.079 24.3037L179.985 23.8126ZM191.375 21.3961L191.261 20.9092C193.15 20.4685 195.032 20.0093 196.907 19.5319L197.03 20.0165L197.154 20.501C195.272 20.9801 193.384 21.4408 191.488 21.883L191.375 21.3961ZM202.658 18.5228L202.525 18.0409C204.395 17.5245 206.257 16.9898 208.111 16.4372L208.254 16.9163L208.396 17.3955C206.536 17.9501 204.667 18.4866 202.791 19.0048L202.658 18.5228ZM213.816 15.1971L213.664 14.7209C215.511 14.1296 217.35 13.5203 219.181 12.8932L219.343 13.3662L219.505 13.8392C217.668 14.4685 215.822 15.0799 213.969 15.6733L213.816 15.1971ZM224.831 11.4241L224.66 10.9545C226.481 10.2892 228.294 9.60628 230.099 8.90582L230.28 9.37192L230.461 9.83803C228.65 10.5409 226.831 11.2262 225.003 11.8938L224.831 11.4241ZM235.686 7.21029L235.495 6.74792C237.288 6.00992 239.072 5.25448 240.847 4.48184L241.047 4.94028L241.246 5.39873C239.465 6.17405 237.675 6.93209 235.876 7.67266L235.686 7.21029ZM0.786687 1.78653C0.536936 1.66872 0.429976 1.37075 0.547786 1.121C0.665596 0.871252 0.963562 0.764292 1.21331 0.882103L1 1.33432L0.786687 1.78653ZM249 1.33432L245.686 6.06171L243.249 0.827681L249 1.33432ZM1 1.33432L1.21331 0.882103C2.08898 1.29516 2.96704 1.70397 3.84747 2.10851L3.63871 2.56285L3.42995 3.01718C2.54648 2.61124 1.66538 2.20102 0.786687 1.78653L1 1.33432ZM8.95319 4.94029L9.15277 4.48185C10.9276 5.25449 12.7116 6.00992 14.5047 6.74793L14.3144 7.2103L14.1241 7.67267C12.3248 6.9321 10.5346 6.17406 8.75362 5.39874L8.95319 4.94029ZM19.7203 9.37193L19.9013 8.90582C21.7055 9.60629 23.5185 10.2892 25.34 10.9545L25.1685 11.4241L24.997 11.8938C23.1692 11.2262 21.3499 10.5409 19.5394 9.83804L19.7203 9.37193ZM30.6573 13.3662L30.8193 12.8932C32.65 13.5203 34.489 14.1296 36.3361 14.7209L36.1836 15.1971L36.0312 15.6733C34.1777 15.0799 32.3323 14.4685 30.4952 13.8392L30.6573 13.3662ZM41.7464 16.9163L41.8892 16.4372C43.7435 16.9898 45.6055 17.5245 47.475 18.0409L47.3419 18.5229L47.2088 19.0048C45.3327 18.4866 43.4643 17.9501 41.6036 17.3955L41.7464 16.9163ZM52.9697 20.0165L53.0931 19.532C54.9678 20.0093 56.8498 20.4685 58.7388 20.9092L58.6252 21.3961L58.5116 21.883C56.616 21.4408 54.7275 20.9801 52.8464 20.501L52.9697 20.0165ZM64.3089 22.6619L64.4127 22.1728C66.3047 22.5742 68.2035 22.9572 70.109 23.3215L70.0151 23.8126L69.9212 24.3038C68.0091 23.9381 66.1037 23.5538 64.2051 23.151L64.3089 22.6619ZM75.7448 24.8488L75.8288 24.3559C77.7353 24.6809 79.6481 24.9874 81.5671 25.2751L81.493 25.7695L81.4188 26.264C79.4933 25.9753 77.5738 25.6678 75.6608 25.3417L75.7448 24.8488ZM87.2592 26.575L87.3234 26.0792C89.2413 26.3275 91.1651 26.5572 93.0945 26.768L93.0402 27.265L92.9859 27.7621C91.0499 27.5506 89.1195 27.3201 87.195 27.0709L87.2592 26.575ZM98.8335 27.8395L98.8778 27.3415C100.804 27.5132 102.736 27.666 104.673 27.7999L104.638 28.2987L104.604 28.7975C102.66 28.6632 100.722 28.5098 98.7891 28.3375L98.8335 27.8395ZM110.449 28.6425L110.474 28.1431C112.405 28.2382 114.341 28.3145 116.282 28.3717L116.267 28.8715L116.253 29.3713C114.305 29.3139 112.362 29.2374 110.424 29.1419L110.449 28.6425ZM122.088 28.9857L122.093 28.4858C123.061 28.4952 124.03 28.5 125 28.5V29V29.5C124.026 29.5 123.054 29.4952 122.083 29.4857L122.088 28.9857ZM125 29V28.5C125.97 28.5 126.939 28.4952 127.908 28.4858L127.912 28.9857L127.917 29.4857C126.946 29.4952 125.974 29.5 125 29.5V29ZM133.733 28.8715L133.718 28.3717C135.659 28.3145 137.595 28.2382 139.526 28.1431L139.551 28.6425L139.576 29.1419C137.638 29.2374 135.695 29.3139 133.747 29.3713L133.733 28.8715ZM145.362 28.2987L145.327 27.7999C147.264 27.666 149.196 27.5131 151.122 27.3415L151.167 27.8395L151.211 28.3375C149.278 28.5098 147.34 28.6632 145.396 28.7975L145.362 28.2987ZM156.96 27.265L156.906 26.768C158.835 26.5572 160.759 26.3275 162.677 26.0792L162.741 26.575L162.805 27.0709C160.881 27.3201 158.95 27.5506 157.014 27.7621L156.96 27.265ZM168.507 25.7695L168.433 25.2751C170.352 24.9874 172.265 24.6809 174.171 24.3559L174.255 24.8488L174.339 25.3417C172.426 25.6678 170.507 25.9753 168.581 26.264L168.507 25.7695ZM179.985 23.8126L179.891 23.3215C181.796 22.9572 183.695 22.5742 185.587 22.1728L185.691 22.6619L185.795 23.151C183.896 23.5538 181.991 23.9381 180.079 24.3037L179.985 23.8126ZM191.375 21.3961L191.261 20.9092C193.15 20.4685 195.032 20.0093 196.907 19.5319L197.03 20.0165L197.154 20.501C195.272 20.9801 193.384 21.4408 191.488 21.883L191.375 21.3961ZM202.658 18.5228L202.525 18.0409C204.395 17.5245 206.257 16.9898 208.111 16.4372L208.254 16.9163L208.396 17.3955C206.536 17.9501 204.667 18.4866 202.791 19.0048L202.658 18.5228ZM213.816 15.1971L213.664 14.7209C215.511 14.1296 217.35 13.5203 219.181 12.8932L219.343 13.3662L219.505 13.8392C217.668 14.4685 215.822 15.0799 213.969 15.6733L213.816 15.1971ZM224.831 11.4241L224.66 10.9545C226.481 10.2892 228.294 9.60628 230.099 8.90582L230.28 9.37192L230.461 9.83803C228.65 10.5409 226.831 11.2262 225.003 11.8938L224.831 11.4241ZM235.686 7.21029L235.495 6.74792C237.288 6.00992 239.072 5.25448 240.847 4.48184L241.047 4.94028L241.246 5.39873C239.465 6.17405 237.675 6.93209 235.876 7.67266L235.686 7.21029Z" fill="#AFAFAF"/>
</svg>
