<svg width="259" height="532" viewBox="0 0 259 532" fill="none" xmlns="http://www.w3.org/2000/svg">
<path d="M137.705 320.368C127.81 327.769 117.675 335.17 106.111 338.545C100.149 340.233 93.4727 340.753 88.346 337.117C82.2655 332.833 80.3579 323.614 81.9078 315.954C83.4578 308.294 87.7499 301.542 91.9228 295.05L131.982 274.666L137.705 320.368Z" fill="#EBA58E"/>
<path d="M125.425 282.197C102.415 354.905 87.6309 471.497 87.6309 471.497L127.094 473.704L155.47 277.782L125.425 282.197Z" fill="#468097"/>
<path d="M139.254 267.525C121.847 334.65 103.486 434.623 103.486 434.623L105.275 444.621L103.486 455.916H141.996L155.349 278.042L139.254 267.525Z" fill="white"/>
<path d="M139.254 267.525C132.458 293.622 125.543 324.783 119.582 352.957C126.259 350.23 132.697 346.855 138.777 342.83L129.955 425.275C129.597 428.002 127.451 430.209 124.947 430.209C123.278 430.209 121.609 431.118 120.655 432.676L118.628 436.181C118.032 437.09 117.198 437.869 116.244 438.259L108.494 441.505H121.251C124.59 441.505 127.57 444.101 128.166 447.737L129.478 455.657H142.116L155.469 277.782L139.254 267.525Z" fill="#E4E4E0"/>
<path d="M106.707 455.917H232.967L236.186 483.182C237.259 491.88 237.974 500.45 238.332 509.149L239.404 532H98.3613L106.707 455.787V455.917Z" fill="#454F6B"/>
<path d="M236.064 480.455L233.084 455.787H129.477L120.416 487.337L236.064 480.455Z" fill="#422C4F"/>
<path d="M155.59 158.723L160.955 174.953L197.199 163.138L183.25 119.124L155.59 158.723Z" fill="#F2C9AD"/>
<path d="M183.25 119.124L155.59 158.723L159.286 170.019C179.196 163.917 183.608 126.394 183.25 119.124Z" fill="#472948"/>
<path d="M92.6378 64.9822C92.0417 71.9933 92.0417 79.2641 93.83 86.0155C95.6184 92.8968 99.1952 99.2587 104.441 103.284C103.726 90.6896 104.322 77.5762 106.11 65.112C102.176 66.5402 96.5722 66.0209 92.6378 64.9822Z" fill="#6A3649"/>
<path d="M185.99 77.1868C182.771 63.6839 175.26 51.2197 164.411 43.6893C153.561 36.2886 139.373 34.2113 127.57 39.6644C115.051 45.5069 106.229 58.88 103.129 73.4215C99.9098 87.8333 101.817 103.154 105.752 117.436C109.567 131.068 115.886 144.441 126.139 153.27C136.393 162.099 151.415 165.475 162.98 158.594C169.299 154.828 174.068 148.466 177.287 141.455C186.11 122.759 190.879 97.7008 185.99 77.1868Z" fill="#F2C9AD"/>
<path d="M168.823 30.3162C168.584 30.7057 168.465 31.0952 168.227 31.4847C168.584 31.225 168.703 30.8355 168.823 30.3162Z" fill="white"/>
<path d="M161.549 92.767C159.284 88.4825 154.992 85.6261 150.581 85.2366C146.05 84.9769 141.52 87.314 138.777 91.209C145.812 90.3002 154.515 91.3389 161.549 92.767Z" fill="#6A3649"/>
<path d="M117.317 93.546C116.602 92.5073 115.767 91.3388 114.813 90.43C113.859 89.5211 112.667 88.8719 111.356 88.8719C109.21 88.8719 107.302 90.6896 106.467 92.8968C105.633 95.104 105.514 97.4411 105.514 99.7781C108.852 97.0516 113.383 94.4549 117.317 93.546Z" fill="#6A3649"/>
<path d="M156.543 106.01C156.782 104.712 156.305 102.894 155.232 101.466C154.159 100.038 152.49 98.9991 150.582 98.8693C148.675 98.7395 146.886 99.6483 145.694 100.947C144.502 102.245 143.906 103.933 144.025 105.361C145.575 103.154 148.078 101.726 150.463 101.856C152.847 101.985 155.232 103.673 156.543 106.01Z" fill="#472948"/>
<path d="M118.748 109.646C118.391 108.347 117.437 106.919 116.364 105.88C115.291 104.842 113.86 104.322 112.787 104.842C111.714 105.231 110.999 106.53 110.76 108.088C110.522 109.646 110.879 111.333 111.476 112.502C111.476 110.165 112.429 108.088 113.741 107.568C115.172 106.919 117.198 107.828 118.748 109.646Z" fill="#472948"/>
<path d="M139.733 122.11C135.918 122.499 132.102 122.889 128.287 123.278C129.479 125.615 131.506 127.433 133.891 127.173C136.394 127.044 138.779 124.707 139.733 122.11Z" fill="#EBA58E"/>
<path d="M162.384 127.044C152.488 132.756 141.758 136.911 130.789 139.248C135.2 143.273 140.446 147.038 146.169 147.298C150.819 147.558 155.469 145.35 158.569 141.715C161.668 137.95 163.099 131.977 162.384 127.044Z" fill="white"/>
<path d="M161.789 147.038C158.451 149.505 154.874 151.453 150.939 152.751C152.37 153.27 154.039 154.179 155.589 154.179C157.139 154.179 158.689 153.53 159.881 152.491C161.193 151.193 162.027 148.726 161.789 147.038Z" fill="#EBA58E"/>
<path d="M163.814 122.24C169.938 122.24 174.902 119.798 174.902 116.787C174.902 113.775 169.938 111.333 163.814 111.333C157.691 111.333 152.727 113.775 152.727 116.787C152.727 119.798 157.691 122.24 163.814 122.24Z" fill="#EBA58E"/>
<path d="M121.133 118.734C121.849 120.682 120.299 123.278 117.676 124.577C114.934 125.875 112.191 125.356 111.357 123.538C110.522 121.461 112.072 118.864 114.814 117.566C117.437 116.267 120.299 116.787 121.133 118.734Z" fill="#EBA58E"/>
<path d="M153.681 72.5127C157.616 86.6647 169.658 92.1178 176.811 91.988L187.422 85.2365C187.064 82.51 186.588 79.7835 185.991 77.1868C184.561 71.0845 182.176 65.1121 179.076 59.7888C153.801 62.3855 128.644 66.2806 103.607 71.474C103.488 72.1232 103.249 72.7724 103.13 73.4215C102.415 76.7972 101.938 80.3028 101.699 83.8084C119.583 84.3277 137.467 80.4326 153.681 72.5127Z" fill="#EBA58E"/>
<path d="M186.23 112.112C180.269 107.698 176.573 99.9079 176.811 91.988C167.154 89.0018 158.45 80.3028 156.304 69.6563C139.851 76.0182 122.325 78.3553 104.799 78.6149C99.1954 78.7448 93.4726 78.4851 88.3459 76.1481C83.1 73.9409 78.5694 69.2668 77.3772 63.4242C75.4695 54.3357 81.9077 45.6368 88.7035 40.0538C110.403 22.1366 141.401 18.631 165.961 31.3549C164.888 26.6808 164.769 22.6559 163.696 18.1117C166.081 19.0205 168.227 20.968 169.061 23.6946C169.896 26.2913 169.657 29.4073 168.346 31.7444C169.3 29.1477 171.327 27.0703 173.711 26.1615C176.096 25.1228 178.838 25.3824 181.103 26.6808C178.48 29.0178 175.738 31.3549 173.115 33.6919C178.122 31.7444 184.322 33.9516 188.495 37.587C192.668 41.0925 195.41 46.4158 196.96 51.9987C198.51 57.5816 198.748 63.4242 198.748 69.2668C198.748 75.8884 198.391 82.51 197.675 89.1316C197.199 93.4162 196.602 97.7007 195.172 101.726C193.741 105.751 191.237 109.386 187.78 111.593L186.23 112.112Z" fill="#6A3649"/>
<path d="M81.5501 62.6452C82.7424 55.8938 86.6768 49.9214 91.565 45.5069C96.4533 41.0925 102.295 38.2362 108.257 35.7693C117.795 31.8742 127.809 29.1477 137.944 29.2775C148.078 29.4074 158.45 32.5234 166.438 39.4047C174.665 35.8991 184.68 39.4047 190.999 46.1561C193.98 49.402 196.245 53.1672 198.033 57.322C197.795 55.5043 197.437 53.5567 196.96 51.739C195.529 46.1561 192.787 40.8329 188.495 37.3273C184.322 33.8218 178.123 31.4847 173.115 33.4323C175.738 31.0952 178.48 28.7582 181.103 26.4212C178.838 25.1228 176.096 24.8631 173.711 25.9018C171.684 26.6808 169.896 28.2388 168.823 30.3162C168.704 30.7057 168.465 31.0952 168.227 31.4847C168.346 31.0952 168.585 30.7057 168.823 30.3162C169.658 28.109 169.658 25.6421 168.942 23.4349C168.108 20.8382 165.962 18.7609 163.577 17.852C164.65 22.5261 164.769 26.551 165.842 31.0952C141.282 18.2415 110.283 21.7471 88.5844 39.7942C81.7886 45.507 75.3504 54.0761 77.258 63.1646C77.8541 66.2806 79.5233 69.137 81.6693 71.3442C81.0732 68.6176 81.0732 65.5016 81.5501 62.6452Z" fill="#8E5A61"/>
<path d="M192.549 89.1317C195.649 87.4438 199.702 87.7035 202.087 90.3002C205.067 93.4162 204.948 98.6097 204.233 103.154C203.756 106.4 203.041 109.646 201.61 112.502C200.179 115.358 198.033 117.955 195.172 119.124C179.434 126.005 182.295 94.4549 192.549 89.1317Z" fill="#F2C9AD"/>
<path d="M198.154 93.8057C194.815 93.8057 191.835 96.5323 190.523 99.908C189.093 103.284 189.093 107.049 189.331 110.684C189.331 111.463 189.45 112.242 189.689 113.021C190.046 113.671 190.523 114.32 191.239 114.45C192.55 114.579 193.504 113.021 193.981 111.723C194.577 110.165 195.054 108.347 194.696 106.659C194.339 104.972 192.908 103.414 191.358 103.543C191.358 101.596 192.312 99.3887 193.385 97.8306C194.458 96.2726 196.365 94.4549 198.154 93.8057Z" fill="#EBA58E"/>
<path d="M154.277 193.909L154.754 176.9L200.06 162.359L205.187 173.135L154.277 193.909Z" fill="#94C7D3"/>
<path d="M168.346 183.522L178.599 177.809C192.072 170.149 208.048 169.759 221.878 176.381C236.662 183.522 247.392 198.063 250.611 215.461L252.996 228.445C259.076 261.163 260.149 294.791 256.215 328.029L238.927 473.834H126.975L152.608 297.258L168.346 183.522Z" fill="#6CA8BF"/>
<path d="M205.187 239.481L160.478 322.705H154.397L144.74 352.178L160.716 239.481H205.187Z" fill="#41738C"/>
<path d="M230.7 282.197C213.413 319.849 160.477 386.455 160.477 386.455L164.769 384.247C182.652 374.769 197.317 359.449 206.855 340.493C220.447 313.098 229.746 296.349 230.7 282.197Z" fill="#468097"/>
<path d="M222.593 367.239C205.663 380.093 187.422 390.999 168.346 399.828C189.687 399.568 210.551 386.455 222.593 367.239Z" fill="#468097"/>
<path d="M77.4973 186.898C68.317 216.37 70.1053 249.738 82.3855 277.782C86.32 286.871 91.9236 295.959 100.627 299.335C102.415 306.865 103.846 314.656 104.561 322.446C105.038 327.509 109.927 330.625 114.219 328.548C115.172 328.029 116.126 327.509 117.08 326.86C119.107 325.562 120.418 323.095 120.418 320.498C120.299 311.669 119.107 301.932 118.034 293.363L129.36 287.78C131.029 293.882 131.983 299.854 132.46 304.528C133.056 309.592 138.302 312.448 142.356 309.722C142.356 309.722 142.475 309.722 142.475 309.592C144.502 308.294 145.694 305.957 145.694 303.36C145.575 291.285 142.237 281.288 142.237 281.288C161.79 233.898 120.538 178.978 120.538 178.978L77.4973 186.898Z" fill="#797C99"/>
<path d="M101.698 204.555C111.236 202.608 120.655 193.909 123.636 183.652C121.728 180.795 120.536 179.237 120.536 179.237L77.4957 186.898C76.6612 189.754 75.8266 192.61 75.2305 195.467C82.2648 202.738 92.1605 206.503 101.698 204.555Z" fill="#495375"/>
<path d="M120.775 179.497C120.895 179.627 121.133 180.016 121.372 180.276C121.133 180.016 120.895 179.757 120.775 179.497Z" fill="#797C99"/>
<path d="M123.041 182.743C123.279 183.003 123.399 183.392 123.637 183.652C123.399 183.262 123.16 183.003 123.041 182.743Z" fill="#797C99"/>
<path d="M120.537 179.237C120.537 179.237 120.657 179.368 120.777 179.498C120.657 179.368 120.537 179.237 120.537 179.237Z" fill="#797C99"/>
<path d="M75.2305 195.337C75.5881 194.039 75.8266 192.61 76.1843 191.312C75.9458 192.61 75.5881 194.039 75.2305 195.337Z" fill="#797C99"/>
<path d="M121.371 180.406C121.729 180.925 122.325 181.704 122.921 182.613C122.325 181.704 121.848 180.925 121.371 180.406Z" fill="#797C99"/>
<path d="M142.355 281.548C145.217 274.666 146.767 267.785 147.363 260.774C128.048 271.031 108.018 279.99 87.6309 287.39C90.9692 292.713 95.2613 297.128 100.746 299.335C101.58 302.841 102.296 306.476 103.011 309.982C108.376 307.125 113.86 304.399 119.226 301.542C118.868 298.686 118.51 295.959 118.153 293.233L129.479 287.65C130.194 290.247 130.79 292.843 131.148 295.31C135.44 293.103 139.732 290.896 144.144 288.559C143.19 284.404 142.355 281.548 142.355 281.548Z" fill="#495375"/>
<path d="M76.3047 191.312C76.6624 189.754 77.1393 188.326 77.6162 186.898C77.1393 188.326 76.6624 189.754 76.3047 191.312Z" fill="#495375"/>
<path d="M101.698 204.555C111.236 202.608 120.655 193.909 123.636 183.652C123.397 183.262 123.159 183.003 123.04 182.743C123.04 182.743 123.04 182.613 122.921 182.613C122.324 181.704 121.848 180.925 121.371 180.406C121.132 180.016 120.894 179.757 120.775 179.627C120.655 179.497 120.536 179.367 120.536 179.367L77.4957 186.898C77.0188 188.326 76.6612 189.884 76.1843 191.312C75.8266 192.61 75.4689 194.039 75.2305 195.337C82.2648 202.738 92.1605 206.503 101.698 204.555Z" fill="#495375"/>
<path d="M90.1351 298.816C92.2812 302.841 92.6389 308.034 90.8505 312.319C89.0621 316.603 85.3661 319.849 81.1932 320.888C76.7819 321.926 72.1321 320.498 67.6016 320.368C55.7983 320.109 44.4719 330.236 42.3258 342.83C40.1798 355.554 47.5717 369.316 58.7789 373.601C63.1902 375.289 68.4361 375.548 72.2513 372.562C76.0666 369.576 77.7357 363.084 74.6359 359.319C71.6552 355.684 66.4093 356.073 62.3557 354.126C57.8251 352.048 54.7252 346.855 54.8445 341.532C54.9637 336.208 58.302 331.145 62.8326 329.197C67.4823 327.25 72.7282 328.678 77.7357 328.418C84.8892 328.029 91.9235 324.004 96.0964 317.642C100.389 311.28 101.938 302.97 100.15 295.31C97.2887 296.089 92.8773 298.167 90.1351 298.816Z" fill="#797C99"/>
<path d="M100.148 295.44C97.4055 296.089 92.875 298.167 90.1328 298.946C92.2789 302.971 92.6365 308.034 90.9674 312.319C93.8288 312.579 96.8094 312.059 99.4324 311.02C100.982 305.957 101.34 300.504 100.148 295.44Z" fill="#495375"/>
<path d="M113.621 226.108L152.846 297.258L205.186 239.611C214.724 229.094 217.228 212.995 211.147 199.751C202.444 180.276 179.672 174.044 163.576 186.768L113.621 226.108Z" fill="#6CA8BF"/>
<path d="M160.479 277.912C153.564 260.774 138.661 235.586 127.096 221.693C134.011 238.832 148.914 263.89 160.479 277.912Z" fill="#468097"/>
<path d="M132.578 260.644L146.289 274.926C151.058 279.86 158.331 280.249 163.457 275.835L203.517 241.428L152.846 297.258L132.578 260.644Z" fill="#468097"/>
<path d="M115.173 228.964L74.3979 265.837C66.6482 272.849 64.6214 284.793 69.3904 294.271C74.6363 304.658 86.3204 308.943 96.3353 304.139L143.787 280.898L115.173 228.964Z" fill="#F2C9AD"/>
<path d="M115.171 228.964L143.785 280.898L125.305 289.987L129.955 284.274C133.055 280.509 133.651 275.056 131.624 270.382L113.621 230.392L115.171 228.964Z" fill="#EBA58E"/>
<path d="M113.144 221.823C111.475 219.097 109.448 216.24 106.467 215.721C104.321 215.332 102.294 216.37 100.268 217.409C98.8369 218.188 97.2869 219.227 96.4524 220.655C95.0217 223.252 96.6908 225.069 97.7638 227.147C99.1945 229.873 99.9099 232.859 100.744 235.716C101.46 238.053 102.175 240.39 103.367 242.597C107.898 238.183 113.144 234.807 118.867 232.6C117.555 228.705 115.29 225.199 113.144 221.823Z" fill="#797C99"/>
<path d="M118.868 232.6C113.146 234.807 107.9 238.183 103.369 242.597C103.846 243.506 104.442 244.415 105.158 245.194C107.304 247.79 110.761 249.608 113.861 248.699C116.603 247.92 118.749 245.194 119.584 242.208C120.418 239.221 119.941 235.846 118.988 232.989C118.868 232.859 118.868 232.73 118.868 232.6Z" fill="#99A3B0"/>
<path d="M101.459 241.299C98.1212 244.415 92.2791 244.285 88.9408 241.169C86.6755 239.091 85.3641 235.975 84.8872 232.859C84.4102 229.743 84.5295 226.497 84.7679 223.252C80.4758 242.597 87.6293 253.893 87.6293 253.893L101.459 241.299Z" fill="#495375"/>
<path d="M103.01 233.898C102.175 231.042 101.46 227.926 100.029 225.329C98.956 223.252 97.2869 221.434 98.7176 218.837C98.8368 218.577 99.0752 218.448 99.1945 218.188C98.1214 218.837 97.1676 219.616 96.5715 220.785C95.1408 223.381 96.81 225.199 97.883 227.276C99.3137 230.003 100.029 232.989 100.864 235.846C101.579 238.183 102.294 240.52 103.487 242.727C104.202 242.078 104.917 241.429 105.633 240.779C104.44 238.572 103.606 236.235 103.01 233.898Z" fill="#495375"/>
<path d="M107.302 243.376C106.586 242.597 106.109 241.688 105.513 240.779C104.798 241.428 104.083 242.078 103.367 242.727C103.844 243.636 104.44 244.545 105.156 245.324C107.302 247.92 110.759 249.738 113.859 248.829C115.29 248.44 116.601 247.401 117.674 246.232C117.197 246.492 116.601 246.752 116.124 246.882C112.905 247.661 109.448 245.973 107.302 243.376Z" fill="#797C99"/>
<path d="M145.216 200.141C143.547 197.414 141.52 194.558 138.54 194.039C136.393 193.649 134.367 194.688 132.34 195.726C130.909 196.505 129.359 197.544 128.525 198.972C127.094 201.569 128.763 203.387 129.836 205.464C131.267 208.191 131.982 211.177 132.817 214.033C133.532 216.37 134.247 218.707 135.44 220.915C139.97 216.5 145.216 213.124 150.939 210.917C149.627 207.022 147.362 203.517 145.216 200.141Z" fill="#797C99"/>
<path d="M150.939 210.917C145.216 213.124 139.97 216.5 135.439 220.915C135.916 221.823 136.512 222.732 137.228 223.511C139.374 226.108 142.831 227.926 145.931 227.017C148.673 226.238 150.82 223.511 151.654 220.525C152.489 217.539 152.012 214.163 151.058 211.307C151.058 211.177 150.939 211.047 150.939 210.917Z" fill="#99A3B0"/>
<path d="M135.082 212.216C134.247 209.359 133.532 206.243 132.101 203.646C131.028 201.569 129.359 199.751 130.79 197.155C130.909 196.895 131.147 196.765 131.267 196.505C130.194 197.155 129.24 197.934 128.644 199.102C127.213 201.699 128.882 203.517 129.955 205.594C131.386 208.321 132.101 211.307 132.936 214.163C133.651 216.5 134.367 218.837 135.559 221.044C136.274 220.395 136.99 219.746 137.705 219.097C136.513 216.89 135.797 214.553 135.082 212.216Z" fill="#495375"/>
<path d="M139.374 221.564C138.659 220.785 138.182 219.876 137.586 218.967C136.87 219.616 136.155 220.265 135.439 220.915C135.916 221.823 136.512 222.732 137.228 223.511C139.374 226.108 142.831 227.926 145.931 227.017C147.362 226.627 148.673 225.589 149.746 224.42C149.27 224.68 148.673 224.939 148.197 225.069C144.977 225.978 141.639 224.29 139.374 221.564Z" fill="#797C99"/>
<path d="M100.495 133.901C89.5078 134.031 75.1711 137.274 66.0599 143.242L56.4128 121.965C49.3114 178.531 58.0206 195.267 76.645 197.343C95.2693 199.548 120.325 187.612 126.623 179.698C132.92 171.784 125.551 151.286 99.6909 118.851L100.495 133.901Z" fill="#797C99"/>
<path d="M95.2622 160.281C92.8777 157.035 89.5394 154.569 85.7242 154.049C81.9089 153.53 77.8553 155.088 75.59 158.334C73.444 161.32 72.9671 165.215 72.6094 168.98C76.7823 169.5 81.1936 169.889 85.2472 168.721C89.1817 167.552 93.2353 164.306 95.2622 160.281Z" fill="white"/>
<path d="M83.1006 167.942C86.9158 167.942 89.8965 164.566 89.8965 160.541C89.8965 158.074 88.7042 155.737 86.9158 154.439C86.4389 154.309 86.0813 154.179 85.6043 154.179C82.7429 153.79 79.7623 154.569 77.3778 156.386C76.6624 157.555 76.1855 158.983 76.1855 160.541C76.3048 164.566 79.4046 167.942 83.1006 167.942Z" fill="#21255C"/>
<path d="M103.131 157.685C103.131 153.66 104.204 149.894 106.35 147.687C108.377 145.61 111.477 144.961 114.219 146.129C116.603 147.298 118.63 149.765 120.538 152.102C118.869 154.439 116.723 157.035 113.861 158.334C111 159.892 106.588 159.762 103.131 157.685Z" fill="white"/>
<path d="M114.696 156.646C112.55 158.723 108.974 157.944 106.828 154.698C105.516 152.751 105.158 150.414 105.635 148.466C105.874 148.207 106.112 147.947 106.351 147.687C107.901 145.999 110.047 145.35 112.193 145.61C113.146 146.129 113.981 146.908 114.696 147.947C116.723 150.803 116.723 154.698 114.696 156.646Z" fill="#21255C"/>
<path d="M66.2101 143.648C63.3064 145.458 60.6668 147.786 58.951 150.889C57.7631 140.287 58.423 126.193 58.423 126.193L66.2101 143.648Z" fill="#E47790"/>
<path d="M100.475 133.856C104.562 133.982 108.513 134.87 108.513 134.87C104.97 128.276 99.9297 122.189 99.9297 122.189L100.475 133.856Z" fill="#E47790"/>
<path d="M60.0898 185.989C63.4281 184.041 67.8395 181.445 72.37 178.978C76.9006 176.511 81.4311 174.304 84.8887 172.486C81.1927 173.654 76.4237 175.602 71.8931 178.069C67.4818 180.536 63.1897 183.392 60.0898 185.989Z" fill="#21255C"/>
<path d="M61.4004 192.87C64.6195 190.143 68.7924 186.508 73.2037 183.132C77.4958 179.757 82.0264 176.641 85.4839 174.174C81.7879 175.991 77.0189 178.848 72.6076 182.224C68.3155 185.729 64.2618 189.624 61.4004 192.87Z" fill="#21255C"/>
<path d="M69.6289 193.519C71.775 191.182 74.6364 188.066 77.617 185.08C80.5976 182.094 83.6975 179.237 85.9628 177.03C83.3398 178.848 80.1207 181.444 77.1401 184.561C74.1595 187.417 71.4173 190.793 69.6289 193.519Z" fill="#21255C"/>
<path d="M136.752 157.685C133.652 157.555 129.479 157.944 125.426 159.113C121.372 160.152 117.557 161.839 114.695 163.527C117.676 162.359 121.61 160.931 125.545 159.892C129.598 158.723 133.652 158.074 136.752 157.685Z" fill="#21255C"/>
<path d="M141.759 162.489C138.063 161.969 133.294 161.839 128.525 162.359C123.756 162.878 118.987 164.047 115.529 165.475C119.106 164.696 123.875 163.787 128.644 163.268C133.294 162.618 138.063 162.489 141.759 162.489Z" fill="#21255C"/>
<path d="M141.162 166.903C137.823 166.124 133.531 165.734 129.12 165.734C124.709 165.734 120.297 166.254 117.078 166.903C120.416 166.773 124.828 166.513 129.12 166.513C133.412 166.643 137.823 166.773 141.162 166.903Z" fill="#21255C"/>
<path d="M105.873 162.229C102.058 161.969 98.1235 163.397 95.1429 166.124C94.4275 166.773 94.666 167.942 95.3813 168.331C97.1697 169.24 99.1965 169.759 101.104 169.889C102.296 170.019 103.489 169.37 104.204 168.331C105.158 167.033 106.112 165.475 106.827 164.047C107.304 163.397 106.708 162.359 105.873 162.229Z" fill="#495375"/>
</svg>
