<svg width="332" height="438" viewBox="0 0 332 438" fill="none" xmlns="http://www.w3.org/2000/svg">
<path d="M185.354 19.889C170.211 29.9501 159.642 45.2957 150.089 60.743C140.536 76.1903 131.593 92.2473 118.483 104.849C101.004 121.617 77.8327 130.764 56.7959 142.756C35.7592 154.748 15.129 171.821 9.94601 195.398C4.86467 218.468 15.6371 241.943 28.3404 261.964C41.0438 281.883 56.1862 301.192 61.4708 324.159C63.9098 334.83 64.1131 345.908 67.0602 356.375C73.4627 379.038 92.0604 396.416 112.691 407.595C152.325 429.14 201.919 431.172 243.179 413.083C284.44 394.993 316.452 357.087 327.428 313.285C338.404 269.586 328.038 221.008 300.192 185.541C289.115 171.415 275.09 158.813 269.399 141.841C264.521 127.613 266.045 112.166 268.18 97.3286C270.314 82.4911 272.753 67.2471 269.704 52.6128C261.269 13.3849 217.874 -1.65583 185.354 19.889Z" fill="#B75DFC" fill-opacity="0.23"/>
<path d="M280.784 133.101C282.816 139.91 287.186 147.024 294.198 147.939C299.381 148.65 304.564 145.296 307.41 140.926C310.255 136.557 311.272 131.17 311.78 125.886C312.593 116.943 312.085 107.39 307.105 99.8693C302.43 92.7554 288.609 85.1334 282.816 94.6863C276.617 105.052 277.532 122.024 280.784 133.101Z" fill="#B75DFC" fill-opacity="0.23"/>
<path d="M71.3401 91.5194C63.5148 96.4991 54.8765 100.666 45.5269 101.885C36.2789 103.003 26.3194 100.869 19.4088 94.4666C13.4128 88.9787 10.364 80.7469 10.0592 72.6168C9.75428 64.4867 11.8884 56.4582 15.2421 49.0394C27.539 21.3969 56.0961 1.68134 86.2792 0.0553093C100.913 -0.757705 123.475 7.37243 121.34 25.7669C119.41 42.2304 105.792 60.0151 94.8159 71.8038C87.9052 79.3242 79.9784 85.9299 71.3401 91.5194Z" fill="#B75DFC" fill-opacity="0.23"/>
<path d="M1.41082 138.487C2.8336 142.044 5.17101 145.296 8.42307 147.329C14.9272 151.394 24.2768 149.565 29.2565 143.772C38.6062 132.796 31.2891 115.621 18.2809 111.759C3.2401 107.186 -3.06076 127.308 1.41082 138.487Z" fill="#B75DFC" fill-opacity="0.23"/>
<path d="M10.4556 173.853C12.4881 172.837 13.5044 170.601 13.8093 168.366C14.7239 161.861 6.28887 154.036 1.41079 160.947C-2.14615 166.13 3.84983 177.207 10.4556 173.853Z" fill="#B75DFC" fill-opacity="0.23"/>
<path d="M124.991 36.1518C125.601 28.6314 130.784 22.0257 137.39 18.4688C145.723 13.9972 156.902 14.6069 164.016 20.7046C169.605 25.481 172.349 33.2046 171.028 40.4201C169.707 47.6356 164.524 53.9365 157.715 56.5788C149.89 59.526 142.979 56.4772 135.662 53.8349C128.65 51.3958 124.382 43.4689 124.991 36.1518Z" fill="#472948"/>
<path d="M164.116 20.7021C156.9 14.5029 145.823 13.9948 137.489 18.4664C132.713 21.007 128.648 25.2753 126.615 30.2551C129.562 26.6981 133.323 23.7509 137.693 22.0233C145.823 18.8729 155.579 20.0924 162.286 25.6819C167.774 30.2551 170.721 37.5722 170.111 44.5844C170.62 43.2633 171.026 41.9421 171.331 40.5194C172.449 33.3039 169.603 25.4786 164.116 20.7021Z" fill="#654059"/>
<path d="M213.812 143.264C208.934 139.504 204.869 134.321 201.82 128.528C199.889 124.971 198.364 121.211 197.145 117.349C197.043 116.841 196.942 116.333 196.942 115.825C194.299 98.0401 191.962 79.3408 181.088 65.0114C170.519 51.0885 152.124 43.5681 134.746 46.1088C117.47 48.6495 101.921 61.0479 95.7214 77.4099C89.5222 93.7718 92.7742 113.386 104.055 126.699C105.986 128.935 107.408 131.475 108.425 134.219C108.425 135.134 108.526 136.15 108.425 137.166C108.323 141.435 107.612 145.906 106.189 150.175C104.665 154.443 102.53 158.406 99.8881 161.76C97.3474 165.114 94.4002 167.858 91.5547 169.992C94.6035 168.366 97.9572 165.825 100.803 162.471C103.648 159.219 106.189 155.053 107.713 150.683C109.034 146.821 109.746 142.756 109.746 138.894C112.185 151.394 107.51 166.333 100.701 177.309C139.014 173.447 178.446 168.569 216.657 164.707C208.73 157.288 204.055 147.329 201.108 136.76C201.921 137.776 202.633 138.792 203.547 139.707C205.986 142.349 208.73 144.585 211.678 146.313C214.625 148.04 217.775 149.26 220.824 149.87C223.873 150.479 226.82 150.479 229.462 150.073C224.279 149.362 218.69 147.126 213.812 143.264Z" fill="#472948"/>
<path d="M102.328 72.1253C111.271 59.422 126.617 51.4951 142.166 51.4951C157.715 51.4951 173.06 59.422 182.105 72.1253C190.032 83.3043 192.776 96.9222 196.129 110.439C193.69 94.3816 190.845 77.918 181.089 65.1131C170.52 51.1902 152.125 43.6698 134.747 46.2105C117.47 48.7512 101.921 61.1496 95.7222 77.5115C92.4702 85.9466 91.8604 95.2962 93.4865 104.239C92.6734 92.9588 95.7222 81.3734 102.328 72.1253Z" fill="#654059"/>
<path d="M110.636 438L105.932 400.915C104.091 386.714 106.443 372.207 112.579 359.232L116.567 350.855L255.331 346.053L260.546 354.533C270.669 370.981 273.43 391.005 268.317 409.599L260.443 437.898H110.636V438Z" fill="#454F6B"/>
<path d="M224.583 378.022C237.998 372.737 250.6 365.725 263.202 358.611C262.389 357.087 261.677 355.664 260.762 354.241L255.58 345.806L117.672 350.481L113.709 358.814C112.794 360.745 111.981 362.676 111.27 364.709C131.188 376.192 153.851 386.152 176.717 387.168C192.977 387.981 209.339 384.119 224.583 378.022Z" fill="#422C4F"/>
<path d="M146.634 396.315L172.853 404.75C178.951 406.681 185.557 406.579 191.553 404.242L225.395 391.437L193.179 409.729C190.333 411.355 188.402 414.201 188.098 417.453L185.963 437.169H180.374L179.561 418.571C179.358 414.912 177.223 411.559 173.971 409.933L146.634 396.315Z" fill="#422C4F"/>
<path d="M262.896 350.989L248.669 325.176C242.266 313.59 238.303 300.684 237.185 287.472L225.904 157.695L206.29 157.39C201.819 172.634 187.998 185.033 172.144 187.065C155.68 189.199 138.505 180.053 130.68 165.52L117.672 167.248C121.534 181.272 121.026 197.329 117.164 211.354C115.03 218.874 111.879 226.191 109.643 233.61C107.408 241.029 105.985 249.159 107.611 256.781C108.525 261.049 110.456 265.114 113.302 268.367C118.993 274.871 122.753 282.798 123.668 291.436L124.989 303.733C126.412 317.249 124.176 330.867 118.485 343.265L111.371 358.611C130.782 369.993 153.14 380.054 175.497 381.071C191.148 381.782 206.697 378.123 221.229 372.331C235.66 366.538 249.38 358.713 262.896 350.989Z" fill="#EBA7AC"/>
<path d="M215.236 218.366C216.049 222.838 224.382 230.155 232.715 236.557L227.329 174.972C213.203 186.151 213.508 209.22 215.236 218.366Z" fill="#E68799"/>
<path d="M236.068 352.92C229.462 355.664 221.84 358.51 213.608 360.745C205.377 362.981 196.535 364.607 187.592 365.319C178.649 366.03 169.604 365.928 161.169 365.115C152.734 364.302 144.706 362.778 137.795 361.152C143.893 364.912 151.616 368.164 160.356 370.197C169.096 372.229 178.649 372.941 188.202 372.127C197.755 371.314 207.104 368.977 215.336 365.522C223.568 362.168 230.682 357.595 236.068 352.92Z" fill="#E68799"/>
<path d="M229.664 342.757C225.904 344.078 221.635 345.603 216.961 347.026C212.387 348.448 207.408 349.77 202.428 350.786C197.448 351.802 192.367 352.615 187.59 353.123C182.814 353.631 178.241 353.936 174.277 354.14C178.139 355.156 182.814 355.867 187.794 355.969C192.773 356.07 198.058 355.562 203.241 354.546C208.424 353.428 213.505 351.802 217.977 349.77C222.55 347.635 226.513 345.196 229.664 342.757Z" fill="#E68799"/>
<path d="M205.682 178.325C201.617 181.679 196.739 185.033 191.15 187.675C185.56 190.216 179.259 192.045 172.755 192.553C166.353 193.061 159.849 192.35 153.853 190.724C147.857 189.098 142.471 186.557 137.999 183.915C141.454 187.878 146.434 191.74 152.633 194.281C158.731 196.821 166.048 198.142 173.162 197.533C180.377 196.923 187.288 194.484 192.877 190.927C198.569 187.37 202.939 182.797 205.682 178.325Z" fill="#E68799"/>
<path d="M237.185 287.371L236.982 284.525C199.075 284.322 161.168 286.456 123.566 291.131C123.566 291.232 123.566 291.334 123.566 291.436L124.888 303.733C125.701 311.558 125.294 319.383 123.77 327.005L156.9 303.631C156.189 307.594 156.595 311.863 157.713 315.724C158.831 319.586 161.27 323.143 164.827 324.973C168.384 326.903 172.957 326.903 176.209 324.566C178.546 322.838 180.071 320.094 180.681 317.249C181.087 315.42 181.29 313.59 181.29 311.761C181.189 310.643 181.189 309.627 181.29 308.509C181.29 309.627 181.29 310.643 181.29 311.761C181.494 314.098 182.002 316.334 182.51 318.57C183.221 321.924 185.355 325.176 188.608 326.395C192.876 327.92 197.754 325.379 200.295 321.517C202.835 317.757 203.547 313.082 204.156 308.509L240.945 306.985C239.014 300.48 237.795 293.976 237.185 287.371Z" fill="#E68799"/>
<path d="M120.213 227.818H86.6757L77.8342 288.387C77.7325 289.302 77.6309 290.216 77.5293 291.131L112.489 281.172L120.213 227.818Z" fill="#BD6C67"/>
<path d="M172.246 187.065C188.1 185.033 201.921 172.634 206.393 157.39L181.799 157.085L171.23 121.414L142.063 145.906L147.551 163.183L130.782 165.52C138.506 179.951 155.782 189.199 172.246 187.065Z" fill="#BD6C67"/>
<path d="M141.96 145.906L144.806 154.951C162.082 163.081 174.684 145.601 171.127 121.414L141.96 145.906Z" fill="#472948"/>
<path d="M120.316 136.048C117.268 136.557 114.219 137.166 111.17 136.963C108.121 136.76 104.971 135.642 102.938 133.406C100.906 131.17 100.194 127.512 101.719 124.971C103.243 122.329 107.003 121.313 109.747 122.735C112.186 127.309 116.251 132.796 120.316 136.048Z" fill="#A64F5A"/>
<path d="M174.177 115.825C173.059 125.174 171.738 135.134 165.335 142.146C159.136 148.853 149.075 151.191 140.132 149.463C131.188 147.634 123.262 142.248 117.062 135.439C105.68 123.04 99.5826 105.967 100.599 89.1984C114.115 79.0357 131.798 73.9544 148.668 75.2755C148.262 80.865 150.701 86.9626 153.75 91.7391C156.798 96.4139 161.27 100.174 166.555 102.105C166.046 104.239 166.758 106.373 167.774 108.304C168.79 110.235 170.62 111.861 172.754 112.573C172.652 109.422 173.262 106.577 174.888 103.833C176.514 101.089 179.258 98.9545 182.408 98.548C185.559 98.1415 189.014 99.6659 190.335 102.511C191.961 105.764 190.742 109.625 188.811 112.776C187.286 115.316 185.152 117.654 182.408 118.67C179.563 119.788 176.006 118.162 174.177 115.825Z" fill="#BD6C67"/>
<path d="M186.27 102.105C184.136 101.495 181.595 102.308 180.071 103.934C178.445 105.56 177.632 107.796 177.429 110.134C177.327 111.048 177.327 111.963 177.733 112.776C178.038 113.589 178.851 114.3 179.766 114.3C180.985 114.3 181.9 113.284 182.408 112.166C182.916 111.15 183.221 110.032 183.018 108.914C182.815 107.796 181.9 106.78 180.681 106.678C181.29 104.646 184.034 102.512 186.27 102.105Z" fill="#A64F5A"/>
<path d="M148.973 92.4506C147.144 89.0969 143.079 87.0643 139.319 87.5725C135.558 88.0806 132.205 91.0278 131.188 94.788C136.473 94.1782 143.587 93.0603 148.973 92.4506Z" fill="#472948"/>
<path d="M113.202 99.7676C112.49 98.853 111.779 97.9383 110.864 97.227C109.95 96.5156 108.832 96.0074 107.612 96.2107C105.885 96.4139 104.563 98.04 104.157 99.7676C103.75 101.495 104.055 103.325 104.36 105.052C106.901 103.528 110.661 101.292 113.202 99.7676Z" fill="#472948"/>
<path d="M141.961 109.93C143.869 109.93 145.416 108.383 145.416 106.475C145.416 104.567 143.869 103.02 141.961 103.02C140.053 103.02 138.506 104.567 138.506 106.475C138.506 108.383 140.053 109.93 141.961 109.93Z" fill="#472948"/>
<path d="M115.845 113.69C116.251 115.52 115.54 117.349 114.219 117.654C112.898 117.959 111.373 116.739 110.967 114.808C110.56 112.979 111.272 111.15 112.593 110.845C113.914 110.642 115.337 111.861 115.845 113.69Z" fill="#472948"/>
<path d="M139.421 123.243C134.34 125.581 129.055 127.41 123.669 128.731C126.413 130.052 129.665 130.561 132.51 129.646C135.458 128.63 137.998 125.886 139.421 123.243Z" fill="#A64F5A"/>
<path d="M159.237 122.634C151.006 128.223 142.063 132.593 132.713 135.743C137.083 138.894 143.892 138.487 148.465 135.743C153.14 133.101 156.798 127.512 159.237 122.634Z" fill="white"/>
<path d="M156.697 134.931C153.343 138.894 148.567 141.435 143.384 142.146C145.924 143.264 149.177 143.467 151.717 142.146C154.258 140.825 156.087 137.675 156.697 134.931Z" fill="#A64F5A"/>
<path d="M184.238 120.398C184.238 122.125 182.816 123.65 180.986 123.65C179.259 123.65 177.734 122.227 177.734 120.398C177.734 118.67 179.157 117.146 180.986 117.146C182.816 117.146 184.238 118.569 184.238 120.398Z" fill="#E4E4E0"/>
<path d="M181.596 119.992C181.596 120.703 180.987 121.313 180.275 121.313C179.564 121.313 178.954 120.703 178.954 119.992C178.954 119.28 179.564 118.67 180.275 118.67C180.987 118.67 181.596 119.28 181.596 119.992Z" fill="white"/>
<path d="M159.644 110.743C160.457 112.776 157.916 115.825 153.851 117.552C149.786 119.178 145.823 118.873 145.01 116.841C144.197 114.808 146.737 111.76 150.802 110.032C154.766 108.406 158.729 108.711 159.644 110.743Z" fill="#A64F5A"/>
<path d="M118.892 123.955C119.298 126.191 118.079 128.223 115.945 128.731C113.912 129.138 111.88 127.715 111.473 125.479C111.067 123.243 112.286 121.211 114.42 120.703C116.351 120.296 118.384 121.719 118.892 123.955Z" fill="#A64F5A"/>
<path d="M117.672 167.248C104.663 168.976 94.1958 178.833 91.5535 191.638L84.1348 227.817H123.668C123.668 173.65 117.672 167.248 117.672 167.248Z" fill="#EBA7AC"/>
<path d="M266.761 214.606L276.111 265.115C279.058 280.968 267.168 295.603 251.111 296.009L150.297 298.652L203.448 266.842L235.054 261.761L231.395 220.094L266.761 214.606Z" fill="#BD6C67"/>
<path d="M216.251 283.001C214.523 284.017 212.592 286.66 212.491 288.692C212.389 290.623 213.405 292.656 215.031 293.773C217.064 295.196 219.808 295.196 222.348 295.095C231.19 294.688 240.743 293.57 247.45 287.777C253.04 283.001 255.987 275.277 254.971 268.062C253.954 260.745 249.076 254.139 242.369 251.09L241.251 240.724C251.718 239.708 262.999 235.135 269.91 231.883L266.759 214.606L231.393 219.992L235.052 261.659L203.446 266.741L150.193 298.652L163.405 298.347L201.718 281.477C207.308 283.204 216.251 283.001 216.251 283.001Z" fill="#A64F5A"/>
<path d="M164.014 309.729C163.811 310.542 163.709 311.355 163.608 312.168C163.201 314.403 163.201 316.842 164.014 318.977C165.234 321.822 168.181 323.753 171.23 323.956C174.279 324.16 177.327 322.635 179.258 320.196C181.291 317.554 181.901 314.505 182.206 311.253C176.514 308.916 170.112 308.407 164.014 309.729Z" fill="#CEB49D"/>
<path d="M169.198 298.143C166.454 301.7 164.929 305.46 164.116 309.729C170.214 308.407 176.616 308.814 182.409 311.151C182.816 306.68 182.511 301.802 184.645 297.737L169.198 298.143Z" fill="#967F92"/>
<path d="M187.185 310.237C187.084 310.846 186.88 311.558 186.779 312.168C186.372 314.403 186.372 316.842 187.185 318.977C188.405 321.822 191.352 323.753 194.401 323.956C197.45 324.159 200.498 322.635 202.429 320.196C204.767 317.249 205.275 313.59 205.58 309.83C199.685 308.001 193.181 308.204 187.185 310.237Z" fill="#CEB49D"/>
<path d="M192.876 297.533C190.03 301.192 188.201 305.663 187.185 310.135C193.181 308.204 199.685 308.001 205.782 309.729C206.087 305.359 206.189 300.887 208.12 297.127L192.876 297.533Z" fill="#967F92"/>
<path d="M225.905 157.593L233.019 157.695C245.214 157.898 255.885 165.724 259.746 177.207L274.686 221.923C258.73 231.578 228.039 231.984 228.039 231.984L221.027 207.289C217.571 195.297 217.775 182.594 221.636 170.703L225.905 157.593Z" fill="#EBA7AC"/>
<path d="M252.431 266.029C252.126 259.017 248.772 250.48 242.573 247.33L239.219 249.566C242.979 253.732 244.707 260.135 243.183 265.521C241.658 270.907 237.187 275.277 231.902 276.802C230.479 277.208 229.057 277.411 227.532 277.513C231.089 280.765 233.325 285.541 233.427 290.42C237.492 289.2 241.252 287.472 244.504 284.627C249.788 280.054 252.736 272.94 252.431 266.029Z" fill="#967F92"/>
<path d="M227.532 277.513C225.702 277.716 223.771 277.716 221.942 277.92C218.588 278.224 215.133 279.037 212.796 281.273C210.357 283.509 209.442 287.676 211.576 290.216C213.609 292.757 217.369 292.757 220.621 292.554C224.991 292.249 229.361 291.639 233.528 290.42C233.324 285.542 231.088 280.765 227.532 277.513Z" fill="#645B79"/>
<path d="M246.331 259.627C245.823 258.102 244.502 256.883 242.978 256.375C243.892 259.322 243.994 262.574 243.181 265.521C243.079 265.928 242.978 266.334 242.774 266.639C243.384 266.537 243.892 266.233 244.4 265.928C246.23 264.505 247.043 261.863 246.331 259.627Z" fill="#645B79"/>
<path d="M246.129 274.871C245.722 275.887 245.621 277.005 245.113 278.021C244.096 279.85 241.86 280.765 240.539 282.493C239.421 284.017 239.32 286.05 240.031 287.777C241.556 286.964 243.08 285.948 244.401 284.728C248.365 281.273 251.108 276.395 252.023 271.212C249.584 271.111 247.043 272.533 246.129 274.871Z" fill="#645B79"/>
<path d="M240.743 277.411C241.149 277.31 241.454 277.106 241.759 276.903C242.674 276.192 246.434 272.127 243.995 271.314C242.064 270.704 239.726 273.651 239.218 275.074C239.015 275.785 239.015 276.7 239.625 277.106C239.93 277.513 240.336 277.513 240.743 277.411Z" fill="#645B79"/>
<path d="M79.6634 268.672C78.4439 269.586 77.326 270.602 76.3097 271.72C74.1756 274.261 72.7528 277.513 73.0577 280.765C73.3626 284.017 75.7 287.168 78.952 287.879C81.1878 288.387 83.4236 287.676 85.3545 286.558C87.2854 285.44 88.9114 283.814 90.6391 282.391C91.5537 281.578 92.4684 280.765 93.4847 280.054C90.8424 274.464 85.6594 270.298 79.6634 268.672Z" fill="#CEB49D"/>
<path d="M118.079 229.85C111.88 237.269 108.018 246.618 107.306 256.171C99.278 258.102 91.3511 261.659 84.2372 265.724C82.7128 266.639 81.1884 267.553 79.7656 268.671C85.66 270.196 90.9446 274.464 93.5869 280.054C101.717 273.448 111.168 268.367 121.229 265.318C123.465 253.732 121.737 241.029 118.079 229.85Z" fill="#967F92"/>
<path d="M118.078 229.85C111.879 237.269 108.017 246.618 107.306 256.171C104.663 256.781 102.123 257.594 99.582 258.509C99.582 260.236 100.293 261.964 101.513 263.285C102.631 264.403 104.155 265.114 105.781 265.216C107.814 265.419 109.44 266.74 110.253 268.57C110.354 268.875 110.456 269.078 110.558 269.383C114.013 267.757 117.57 266.436 121.229 265.318C123.464 253.732 121.737 241.029 118.078 229.85Z" fill="#645B79"/>
<path d="M72.7535 231.375C71.7372 233.204 70.5177 234.931 69.7047 236.964C68.8917 238.895 68.5868 241.131 69.2982 243.163C70.2128 245.602 72.4486 247.33 74.9893 248.041C79.3592 249.464 84.3389 248.448 88.2008 245.907C92.0626 243.367 94.8065 239.403 96.5341 235.135C98.2618 230.866 98.8716 226.293 99.1764 221.618C99.2781 220.094 99.2781 218.57 98.5667 217.248C97.3472 215.216 94.6032 214.809 92.2658 214.708C89.4203 214.606 86.5747 214.606 83.7292 214.911C81.6966 215.114 78.6478 214.809 78.0381 216.944C76.5137 222.025 75.3958 226.801 72.7535 231.375Z" fill="#472948"/>
<path d="M137.287 274.159C131.901 268.773 125.396 262.472 121.23 256.07C117.063 249.667 114.218 241.435 114.522 233.813C109.949 229.24 105.173 224.261 100.193 220.195C98.9735 219.281 97.3475 219.078 95.8231 219.484C94.2987 219.789 92.9775 220.5 91.5548 221.11C85.0506 223.752 76.8189 223.143 70.518 220.094C65.0302 222.939 59.3391 222.126 54.7659 218.773C50.1927 215.419 47.7536 210.033 45.1113 205.155C52.1236 200.886 59.4407 195.805 66.4529 191.435C66.6562 181.374 74.2782 171.923 84.136 169.585C93.8922 167.248 104.969 172.126 109.746 180.968C114.827 190.419 122.449 199.362 132.307 203.529C142.978 208.102 155.071 208.305 166.657 207.187C178.242 206.171 189.726 203.935 201.413 203.935C213.1 203.935 225.194 206.476 234.239 213.793C243.284 221.11 247.145 236.354 242.775 247.127L224.991 259.322L185.153 260.44L137.287 274.159Z" fill="#967F92"/>
<path d="M140.741 216.943C142.672 220.196 147.042 220.805 150.294 222.635C154.562 224.972 157.306 229.444 159.948 233.61C162.591 237.675 165.944 241.944 170.619 243.265C175.904 244.789 181.595 242.249 185.66 238.488C189.725 234.728 192.57 229.952 196.127 225.683C199.583 221.415 204.156 217.553 209.542 216.74C212.184 216.334 214.928 216.74 217.571 216.029C220.823 215.013 223.363 212.065 223.872 208.712C223.872 208.508 223.872 208.204 223.973 208C216.859 205.155 209.034 204.037 201.31 204.037C189.623 204.037 178.139 206.273 166.554 207.289C158.424 208 150.192 208.204 142.265 206.679C141.655 207.594 141.046 208.61 140.639 209.728C139.521 212.065 139.42 214.809 140.741 216.943Z" fill="#645B79"/>
<path d="M142.166 231.375C141.861 232.899 142.369 234.423 143.284 235.745C144.097 237.066 145.316 238.082 146.536 238.997C147.959 240.216 149.686 241.334 151.414 241.131C153.141 240.927 154.463 239.301 154.869 237.574C155.174 235.846 154.666 234.017 153.751 232.594C151.515 229.24 143.385 224.667 142.166 231.375Z" fill="#645B79"/>
<path d="M240.336 221.821C241.352 225.683 240.946 229.952 239.015 233.508C236.169 238.691 229.665 242.655 223.669 242.35C225.702 239.301 228.039 235.846 230.072 232.899C221.027 235.033 212.49 238.996 204.665 244.078C205.376 240.826 205.783 236.862 206.494 233.61C196.535 239.098 187.49 248.041 182.205 258.102L150.803 266.232C146.738 267.35 142.266 265.724 139.929 262.269C137.998 259.423 136.88 256.07 137.286 252.716L121.433 256.476C125.599 262.777 131.9 268.875 137.185 274.159L184.848 260.643L224.685 259.525L242.47 247.33C245.722 239.504 244.604 229.545 240.336 221.821Z" fill="#645B79"/>
<path d="M47.1429 209.22C50.0054 209.22 52.3259 207.673 52.3259 205.765C52.3259 203.856 50.0054 202.309 47.1429 202.309C44.2805 202.309 41.96 203.856 41.96 205.765C41.96 207.673 44.2805 209.22 47.1429 209.22Z" fill="#472948"/>
<path d="M82.8138 192.146C84.8344 192.146 86.4724 190.508 86.4724 188.488C86.4724 186.467 84.8344 184.829 82.8138 184.829C80.7933 184.829 79.1553 186.467 79.1553 188.488C79.1553 190.508 80.7933 192.146 82.8138 192.146Z" fill="#472948"/>
<path d="M70.416 220.094C75.2941 217.35 82.8145 210.846 82.8145 210.846C80.9852 216.232 75.9039 220.399 70.416 220.094Z" fill="#472948"/>
<path d="M97.3476 187.98C97.8558 192.756 99.2785 197.533 98.872 202.411C98.3639 209.017 94.7053 214.911 91.7582 220.907C88.811 226.903 86.5752 233.915 89.1159 240.114C91.5549 246.009 98.1606 249.566 104.461 249.261C110.762 248.956 116.657 245.094 120.315 239.911C123.974 234.728 125.498 228.224 125.6 221.923C125.701 215.622 124.482 209.322 122.856 203.122C121.23 197.126 119.299 191.029 115.945 185.846C113.201 181.577 108.323 176.191 103.039 175.073C96.7379 173.651 96.8395 183.915 97.3476 187.98Z" fill="#59395B"/>
<path d="M241.656 251.09C242.571 249.972 243.486 248.448 242.571 247.33C242.063 246.72 241.25 246.619 240.539 246.72C239.827 246.822 239.116 247.228 238.506 247.533C234.543 249.769 230.681 252.005 226.921 254.647C226.209 255.155 225.396 255.765 224.685 256.273C225.396 255.663 226.209 255.155 226.921 254.647C231.595 251.192 235.864 247.33 239.726 242.96C240.335 242.35 240.843 241.639 241.148 240.826C241.453 240.013 241.453 238.997 240.843 238.387C240.234 237.675 239.319 237.574 238.404 237.675C237.591 237.879 236.778 238.285 236.067 238.793C230.884 241.944 225.396 244.891 220.213 248.041C224.278 244.179 228.242 240.419 232.307 236.557C233.526 235.338 234.847 233.712 234.034 232.188C233.628 231.476 232.815 230.968 232.002 230.968C230.477 230.765 229.156 231.578 227.937 232.289C219.807 237.269 211.778 242.452 204.563 248.651L208.221 238.387C208.831 236.659 209.136 234.931 209.237 233.102C209.339 231.476 207.307 230.561 206.189 231.781C197.855 240.318 190.233 250.277 184.644 260.846L112.387 281.375L77.4276 291.334C77.0211 299.464 80.0699 307.391 85.8626 313.286C94.9074 322.33 108.627 324.363 119.908 318.367L198.567 276.598C212.591 276.598 227.225 272.025 237.693 262.676C238.303 262.167 238.913 261.558 239.116 260.846C239.421 260.135 239.217 259.119 238.608 258.712C237.896 258.204 236.88 258.61 236.067 259.017C233.221 260.338 229.664 261.558 226.819 262.98C232.51 259.83 237.591 255.867 241.656 251.09Z" fill="#BD6C67"/>
<path d="M106.9 285.135C103.343 283.712 99.4812 283.204 95.6194 283.611C95.4162 284.119 95.1113 284.627 94.908 285.135C93.1804 288.895 92.1641 293.265 93.5869 297.127C94.7048 300.176 97.4487 302.513 100.498 303.326C103.648 304.139 107.103 303.326 109.542 301.192C112.489 298.651 113.709 294.79 115.335 291.233C113.201 288.59 110.254 286.456 106.9 285.135Z" fill="#CEB49D"/>
<path d="M137.287 252.716C132.714 248.041 125.905 246.212 119.502 244.992C117.978 251.395 117.775 258.102 118.994 264.606C109.136 267.147 100.295 274.566 95.6201 283.611C99.3803 283.204 103.344 283.712 106.901 285.135C110.153 286.456 113.1 288.59 115.437 291.233C115.641 290.724 115.844 290.216 116.149 289.81C118.893 284.322 124.076 279.952 130.072 277.005C133.933 275.074 136.474 271.111 136.271 266.741C136.169 262.066 136.576 257.391 137.287 252.716Z" fill="#967F92"/>
</svg>
