<svg width="68" height="55" viewBox="0 0 68 55" fill="none" xmlns="http://www.w3.org/2000/svg">
<path fill-rule="evenodd" clip-rule="evenodd" d="M46.0756 33.4928C45.091 36.0555 49.0588 39.0236 54.9379 40.1222C60.817 41.2209 66.3811 40.0341 67.3657 37.4714C68.3503 34.9087 64.3824 31.9406 58.5033 30.842C52.6242 29.7433 47.0601 30.9301 46.0756 33.4928ZM58.5033 22.6359C52.6242 23.7346 47.0601 22.5478 46.0755 19.9851C45.091 17.4225 49.0588 14.4543 54.9379 13.3557C60.817 12.257 66.3811 13.4438 67.3657 16.0065C68.3502 18.5692 64.3824 21.5373 58.5033 22.6359ZM4.43911 29.3266C-12.1891 39.3689 21.8856 65.0584 40.871 34.5737C43.8301 29.8224 43.8301 24.3886 40.871 19.6373C21.8856 -10.8475 -12.1891 14.842 4.43911 24.8843C6.11568 25.8969 6.11568 28.3141 4.43911 29.3266ZM45.3777 7.84542C41.9347 10.2467 37.3991 10.9767 35.2472 9.47589C33.0953 7.97508 34.142 4.81181 37.585 2.41051C41.0281 0.00921884 45.5637 -0.720766 47.7156 0.780041C49.8675 2.28085 48.8208 5.44413 45.3777 7.84542ZM35.2472 44.8866C33.0953 46.3874 34.1419 49.5507 37.585 51.952C41.028 54.3533 45.5636 55.0833 47.7155 53.5825C49.8674 52.0817 48.8208 48.9184 45.3777 46.5171C41.9347 44.1158 37.3991 43.3858 35.2472 44.8866Z" fill="#A53CF6" fill-opacity="0.45"/>
</svg>
